<?xml version="1.0" encoding="UTF-8" standalone="no"?>
<!-- Generator: Adobe Illustrator 19.0.0, SVG Export Plug-In . SVG Version: 6.00 Build 0)  -->

<svg
   version="1.1"
   id="Capa_1"
   x="0px"
   y="0px"
   viewBox="0 0 60 60"
   style="enable-background:new 0 0 60 60;"
   xml:space="preserve"
   sodipodi:docname="best-practices-1-must.svg"
   inkscape:version="1.1.1 (3bf5ae0d25, 2021-09-20)"
   xmlns:inkscape="http://www.inkscape.org/namespaces/inkscape"
   xmlns:sodipodi="http://sodipodi.sourceforge.net/DTD/sodipodi-0.dtd"
   xmlns="http://www.w3.org/2000/svg"
   xmlns:svg="http://www.w3.org/2000/svg"><defs
   id="defs37" /><sodipodi:namedview
   id="namedview35"
   pagecolor="#ffffff"
   bordercolor="#666666"
   borderopacity="1.0"
   inkscape:pageshadow="2"
   inkscape:pageopacity="0.0"
   inkscape:pagecheckerboard="0"
   showgrid="false"
   inkscape:zoom="9.7934289"
   inkscape:cx="17.05225"
   inkscape:cy="29.91802"
   inkscape:window-width="1904"
   inkscape:window-height="1034"
   inkscape:window-x="0"
   inkscape:window-y="0"
   inkscape:window-maximized="1"
   inkscape:current-layer="Capa_1" />
<path
   d="m 47.019084,26.875661 v -3.483849 h 2.65036 v -6.396295 h -2.65036 v -3.48385 c 0,-1.018077 -1.029665,-1.846397 -2.295212,-1.846397 H 12.209256 c -1.265547,0 -2.2952124,0.82832 -2.2952124,1.846397 v 13.363994 c 0,1.018077 1.0296654,1.846397 2.2952124,1.846397 h 32.514616 c 1.265547,0 2.295212,-0.82832 2.295212,-1.846397 z M 37.080234,12.73132 v 14.924689 h -7.95108 V 12.73132 Z m -9.27626,0 v 14.924689 h -7.95108 V 12.73132 Z m 20.54029,5.330245 v 4.264197 h -1.32518 v -4.264197 z m -2.65036,-4.549898 v 3.48385 6.396295 3.483849 c 0,0.430684 -0.434659,0.780348 -0.970032,0.780348 H 38.405414 V 12.73132 h 6.318458 c 0.535373,0 0.970032,0.349664 0.970032,0.780347 z M 11.239224,26.875661 V 13.511667 c 0,-0.430683 0.434659,-0.780347 0.970032,-0.780347 h 6.318458 v 14.924689 h -6.318458 c -0.535373,0 -0.970032,-0.349664 -0.970032,-0.780348 z"
   id="path2"
   style="stroke-width:0.594287" />
<g
   id="g4">
</g>
<g
   id="g6">
</g>
<g
   id="g8">
</g>
<g
   id="g10">
</g>
<g
   id="g12">
</g>
<g
   id="g14">
</g>
<g
   id="g16">
</g>
<g
   id="g18">
</g>
<g
   id="g20">
</g>
<g
   id="g22">
</g>
<g
   id="g24">
</g>
<g
   id="g26">
</g>
<g
   id="g28">
</g>
<g
   id="g30">
</g>
<g
   id="g32">
</g>
<g
   aria-label="MUST"
   transform="scale(0.93591965,1.0684678)"
   id="text3121"
   style="font-weight:bold;font-size:15.3989px;line-height:1.25;-inkscape-font-specification:'sans-serif, Bold';letter-spacing:0px;word-spacing:0px;stroke-width:0.384976"><path
     d="m 16.201982,41.294567 -2.648611,-8.623384 h -0.0616 q 0.0154,0.307978 0.0462,0.923934 0.0308,0.615956 0.0616,1.324305 0.0308,0.692951 0.0308,1.26271 v 5.112435 H 11.551514 V 30.299752 h 3.172174 l 2.602414,8.4078 h 0.0462 l 2.756403,-8.4078 h 3.172174 V 41.294567 H 21.12963 v -5.204828 q 0,-0.523563 0.0154,-1.201114 0.0308,-0.677552 0.0462,-1.278109 0.0308,-0.615956 0.0462,-0.923934 h -0.06159 l -2.833398,8.607985 z"
     id="path4991" /><path
     d="m 35.019421,37.414044 q 0,1.139519 -0.508164,2.063453 -0.492765,0.908535 -1.509092,1.447497 -1.000928,0.523562 -2.540818,0.523562 -2.186644,0 -3.326163,-1.108721 -1.139519,-1.124119 -1.139519,-2.956588 v -7.083495 h 2.325234 v 6.72932 q 0,1.355103 0.554361,1.909463 0.55436,0.554361 1.647682,0.554361 1.139519,0 1.647682,-0.600557 0.523563,-0.600557 0.523563,-1.878666 v -6.713921 h 2.325234 z"
     id="path4993" /><path
     d="m 44.197144,38.245585 q 0,1.462895 -1.062524,2.340633 -1.047125,0.862338 -2.987387,0.862338 -1.740075,0 -3.110577,-0.662153 v -2.171244 q 0.785344,0.338775 1.616884,0.631354 0.84694,0.277181 1.67848,0.277181 0.862339,0 1.216513,-0.323377 0.369574,-0.338776 0.369574,-0.84694 0,-0.41577 -0.292579,-0.708349 -0.27718,-0.292579 -0.754546,-0.538962 -0.477366,-0.261781 -1.093322,-0.55436 -0.384973,-0.184787 -0.831541,-0.431169 -0.446568,-0.261782 -0.862338,-0.631355 -0.400372,-0.384973 -0.662153,-0.923934 -0.261781,-0.538962 -0.261781,-1.293508 0,-1.478294 1.000928,-2.294436 1.000929,-0.831541 2.725606,-0.831541 0.862338,0 1.632283,0.200186 0.785344,0.200186 1.632283,0.569759 l -0.754546,1.817071 q -0.754546,-0.307978 -1.355103,-0.477366 -0.600557,-0.169388 -1.231912,-0.169388 -0.662153,0 -1.016327,0.307978 -0.354175,0.307978 -0.354175,0.800743 0,0.585158 0.523563,0.923934 0.523562,0.338775 1.555289,0.83154 0.846939,0.400372 1.432097,0.831541 0.600557,0.431169 0.923934,1.016327 0.323377,0.585159 0.323377,1.447497 z"
     id="path4995" /><path
     d="M 50.43368,41.294567 H 48.108446 V 32.240014 H 45.12106 v -1.940262 h 8.300007 v 1.940262 H 50.43368 Z"
     id="path4997" /></g><path
   style="fill:#de78f2;fill-opacity:1;stroke-width:0.0104151"
   d="m 11.827189,27.505027 c -0.178098,-0.07747 -0.373382,-0.233475 -0.433964,-0.346673 -0.07564,-0.141341 -0.110149,-2.345469 -0.110149,-7.036051 v -6.830236 l 0.263362,-0.247545 0.263363,-0.247545 3.310462,-0.02954 3.310463,-0.02954 v 7.457993 7.457994 l -3.139861,-0.004 c -2.437451,-0.0031 -3.2123,-0.03551 -3.463676,-0.144854 z"
   id="path5669" /><path
   style="fill:#de78f2;fill-opacity:1;stroke-width:0.0104151"
   d="m 19.860255,20.1999 v -7.453978 h 3.931208 3.931207 v 7.453978 7.453978 h -3.931207 -3.931208 z"
   id="path5708" /><path
   style="fill:#de78f2;fill-opacity:1;stroke-width:0.0104151"
   d="m 29.1522,20.1999 v -7.453978 h 3.931208 3.931207 V 20.1999 27.653878 H 33.083408 29.1522 Z"
   id="path5747" /><path
   style="fill:#de78f2;fill-opacity:1;stroke-width:0.0104151"
   d="m 38.444145,20.1999 v -7.453978 h 3.168667 c 3.466537,0 3.782465,0.04472 3.979632,0.56331 0.161665,0.425209 0.132963,13.510419 -0.03034,13.834099 -0.227446,0.450807 -0.604023,0.498591 -3.978095,0.504784 l -3.13986,0.0058 z"
   id="path5786" /><path
   style="fill:#ffffff;stroke-width:0.0104151"
   d="m 47.021325,20.1999 v -2.042186 h 0.612655 0.612656 V 20.1999 22.242086 H 47.63398 47.021325 Z"
   id="path5862" /></svg>
