<?xml version="1.0" encoding="UTF-8" standalone="no"?>
<!-- Generator: Adobe Illustrator 19.0.0, SVG Export Plug-In . SVG Version: 6.00 Build 0)  -->

<svg
   version="1.1"
   id="Capa_1"
   x="0px"
   y="0px"
   viewBox="0 0 60 60"
   style="enable-background:new 0 0 60 60;"
   xml:space="preserve"
   sodipodi:docname="best-practices-3-could.svg"
   inkscape:version="1.1.1 (3bf5ae0d25, 2021-09-20)"
   xmlns:inkscape="http://www.inkscape.org/namespaces/inkscape"
   xmlns:sodipodi="http://sodipodi.sourceforge.net/DTD/sodipodi-0.dtd"
   xmlns="http://www.w3.org/2000/svg"
   xmlns:svg="http://www.w3.org/2000/svg"><defs
   id="defs37" /><sodipodi:namedview
   id="namedview35"
   pagecolor="#ffffff"
   bordercolor="#666666"
   borderopacity="1.0"
   inkscape:pageshadow="2"
   inkscape:pageopacity="0.0"
   inkscape:pagecheckerboard="0"
   showgrid="false"
   inkscape:zoom="9.7934289"
   inkscape:cx="13.069988"
   inkscape:cy="29.91802"
   inkscape:window-width="1904"
   inkscape:window-height="1034"
   inkscape:window-x="0"
   inkscape:window-y="0"
   inkscape:window-maximized="1"
   inkscape:current-layer="Capa_1" />
<path
   d="m 47.019084,26.875661 v -3.483849 h 2.65036 v -6.396295 h -2.65036 v -3.48385 c 0,-1.018077 -1.029665,-1.846397 -2.295212,-1.846397 H 12.209256 c -1.265547,0 -2.2952124,0.82832 -2.2952124,1.846397 v 13.363994 c 0,1.018077 1.0296654,1.846397 2.2952124,1.846397 h 32.514616 c 1.265547,0 2.295212,-0.82832 2.295212,-1.846397 z M 37.080234,12.73132 v 14.924689 h -7.95108 V 12.73132 Z m -9.27626,0 v 14.924689 h -7.95108 V 12.73132 Z m 20.54029,5.330245 v 4.264197 h -1.32518 v -4.264197 z m -2.65036,-4.549898 v 3.48385 6.396295 3.483849 c 0,0.430684 -0.434659,0.780348 -0.970032,0.780348 H 38.405414 V 12.73132 h 6.318458 c 0.535373,0 0.970032,0.349664 0.970032,0.780347 z M 11.239224,26.875661 V 13.511667 c 0,-0.430683 0.434659,-0.780347 0.970032,-0.780347 h 6.318458 v 14.924689 h -6.318458 c -0.535373,0 -0.970032,-0.349664 -0.970032,-0.780348 z"
   id="path2"
   style="stroke-width:0.594287" />
<g
   id="g4">
</g>
<g
   id="g6">
</g>
<g
   id="g8">
</g>
<g
   id="g10">
</g>
<g
   id="g12">
</g>
<g
   id="g14">
</g>
<g
   id="g16">
</g>
<g
   id="g18">
</g>
<g
   id="g20">
</g>
<g
   id="g22">
</g>
<g
   id="g24">
</g>
<g
   id="g26">
</g>
<g
   id="g28">
</g>
<g
   id="g30">
</g>
<g
   id="g32">
</g>
<g
   aria-label="COULD"
   transform="scale(0.93645935,1.067852)"
   id="text3121"
   style="font-weight:bold;font-size:15.4078px;line-height:1.25;-inkscape-font-specification:'sans-serif, Bold';letter-spacing:0px;word-spacing:0px;stroke-width:0.385197"><path
     d="m 11.347717,32.104522 q -1.340479,0 -2.0492377,1.001507 -0.7087588,1.001507 -0.7087588,2.742588 0,1.756489 0.6471276,2.727181 0.6625354,0.955283 2.1108689,0.955283 0.677943,0 1.340478,-0.154078 0.677943,-0.154078 1.463741,-0.431418 v 1.95679 q -0.724166,0.292749 -1.432925,0.431419 -0.708759,0.13867 -1.587004,0.13867 -1.6948575,0 -2.8042191,-0.693351 Q 7.2338341,40.070354 6.709969,38.806915 6.1861038,37.528067 6.1861038,35.833209 q 0,-1.664042 0.6009042,-2.942889 0.6009041,-1.278848 1.7410813,-2.003014 1.155585,-0.724167 2.8196277,-0.724167 0.816613,0 1.633226,0.215709 0.832022,0.200302 1.587004,0.554681 l -0.754982,1.895159 Q 13.196653,32.53594 12.564933,32.320231 11.948621,32.104522 11.347717,32.104522 Z"
     id="path843" /><path
     d="m 26.169999,35.802394 q 0,1.710266 -0.570088,2.989113 -0.554681,1.26344 -1.710266,1.972198 -1.155585,0.708759 -2.958298,0.708759 -1.787304,0 -2.958297,-0.708759 -1.155585,-0.708758 -1.725674,-1.987606 -0.55468,-1.278847 -0.55468,-2.989113 0,-1.710266 0.55468,-2.973705 0.570089,-1.26344 1.725674,-1.956791 1.170993,-0.708759 2.973705,-0.708759 1.787305,0 2.94289,0.708759 1.155585,0.693351 1.710266,1.972198 0.570088,1.26344 0.570088,2.973706 z m -8.027463,0 q 0,1.725673 0.662535,2.72718 0.662535,0.9861 2.126276,0.9861 1.494557,0 2.141685,-0.9861 0.647127,-1.001507 0.647127,-2.72718 0,-1.741082 -0.647127,-2.727181 -0.647128,-0.986099 -2.126277,-0.986099 -1.479149,0 -2.141684,0.986099 -0.662535,0.986099 -0.662535,2.727181 z"
     id="path845" /><path
     d="m 37.402279,37.435621 q 0,1.140177 -0.508457,2.064645 -0.49305,0.90906 -1.509964,1.448333 -1.001507,0.523865 -2.542287,0.523865 -2.187908,0 -3.328085,-1.109362 -1.140177,-1.124769 -1.140177,-2.958297 v -7.087588 h 2.326578 v 6.733209 q 0,1.355886 0.55468,1.910567 0.554681,0.554681 1.648635,0.554681 1.140177,0 1.648635,-0.600905 0.523865,-0.600904 0.523865,-1.879751 v -6.717801 h 2.326577 z"
     id="path847" /><path
     d="M 40.098621,41.318386 V 30.317217 h 2.326578 v 9.075194 h 4.468262 v 1.925975 z"
     id="path849" /><path
     d="m 57.925426,35.709947 q 0,2.788812 -1.587004,4.206329 -1.571595,1.40211 -4.422038,1.40211 H 48.804008 V 30.317217 h 3.451348 q 1.725673,0 2.989113,0.616312 1.278847,0.616312 1.972198,1.81812 0.708759,1.186401 0.708759,2.958298 z m -2.419025,0.06163 q 0,-1.833528 -0.801205,-2.680957 -0.801206,-0.862837 -2.326578,-0.862837 h -1.248032 v 7.164627 h 1.001507 q 3.374308,0 3.374308,-3.620833 z"
     id="path851" /></g><path
   style="fill:#ff9100;fill-opacity:1;stroke-width:0.0104151"
   d="m 11.827189,27.505027 c -0.178098,-0.07747 -0.373382,-0.233475 -0.433964,-0.346673 -0.07564,-0.141341 -0.110149,-2.345469 -0.110149,-7.036051 v -6.830236 l 0.263362,-0.247545 0.263363,-0.247545 3.310462,-0.02954 3.310463,-0.02954 v 7.457993 7.457994 l -3.139861,-0.004 c -2.437451,-0.0031 -3.2123,-0.03551 -3.463676,-0.144854 z"
   id="path5669" /><path
   style="fill:#ff9100;fill-opacity:1;stroke-width:0.0104151"
   d="m 19.860255,20.1999 v -7.453978 h 3.931208 3.931207 v 7.453978 7.453978 h -3.931207 -3.931208 z"
   id="path5708" /><path
   style="fill:#ffffff;fill-opacity:1;stroke-width:0.0104151"
   d="m 29.1522,20.1999 v -7.453978 h 3.931208 3.931207 V 20.1999 27.653878 H 33.083408 29.1522 Z"
   id="path5747" /><path
   style="fill:#ffffff;fill-opacity:1;stroke-width:0.0104151"
   d="m 38.444145,20.1999 v -7.453978 h 3.168667 c 3.466537,0 3.782465,0.04472 3.979632,0.56331 0.161665,0.425209 0.132963,13.510419 -0.03034,13.834099 -0.227446,0.450807 -0.604023,0.498591 -3.978095,0.504784 l -3.13986,0.0058 z"
   id="path5786" /><path
   style="fill:#ffffff;stroke-width:0.0104151"
   d="m 47.021325,20.1999 v -2.042186 h 0.612655 0.612656 V 20.1999 22.242086 H 47.63398 47.021325 Z"
   id="path5862" /></svg>
