<?xml version="1.0" encoding="utf-8"?>
<!-- Generator: Adobe Illustrator 19.0.0, SVG Export Plug-In . SVG Version: 6.00 Build 0)  -->
<svg version="1.1" id="Layer_1" xmlns="http://www.w3.org/2000/svg" xmlns:xlink="http://www.w3.org/1999/xlink" x="0px" y="0px"
	 viewBox="-462 463 35 35" style="enable-background:new -462 463 35 35;" xml:space="preserve">
<style type="text/css">
	.st0{fill:#0078D6;}
</style>
<title>_</title>
<path class="st0" d="M-441.2,484c0.9,0.3,1.8,0.8,2.6,1.4c0.8,0.6,1.4,1.3,2,2.1c0.5,0.8,1,1.7,1.3,2.6c0.3,1,0.4,1.9,0.4,2.9h-1.3
	c0-1.1-0.2-2.2-0.6-3.2c-0.8-2-2.4-3.5-4.3-4.3c-1.7-0.7-3.6-0.8-5.4-0.3c-0.7,0.2-1.4,0.5-2,0.8c-1.2,0.7-2.2,1.7-2.9,2.9
	c-0.7,1.3-1.1,2.7-1.1,4.2h-1.3c0-2,0.6-3.9,1.7-5.5c0.6-0.8,1.2-1.5,2-2.1c0.8-0.6,1.7-1.1,2.6-1.4c-1.1-0.6-2-1.4-2.6-2.5
	c-0.3-0.5-0.5-1.1-0.7-1.7c-0.4-1.5-0.3-3.1,0.3-4.5c0.7-1.6,2-2.9,3.6-3.6c1.7-0.7,3.6-0.7,5.3,0c1.6,0.7,2.9,2,3.6,3.6
	c0.6,1.4,0.7,3,0.3,4.5c-0.2,0.6-0.4,1.1-0.7,1.7c-0.3,0.5-0.7,1-1.1,1.4C-440.2,483.3-440.7,483.7-441.2,484z M-450,478
	c0,0.7,0.1,1.5,0.4,2.1c0.6,1.3,1.6,2.3,2.9,2.9c1.4,0.6,2.9,0.6,4.2,0c1.3-0.6,2.3-1.6,2.9-2.9c0.6-1.4,0.6-2.9,0-4.2
	c-0.6-1.3-1.6-2.3-2.9-2.9c-1.4-0.6-2.9-0.6-4.2,0c-1.3,0.6-2.3,1.6-2.9,2.9C-449.9,476.5-450,477.3-450,478z"/>
<path class="st0" d="M-434.5,493.5h-2.3V493c0-1-0.2-2.1-0.6-3.1c-0.7-1.8-2.2-3.3-4.1-4.1c-1.6-0.7-3.4-0.8-5.1-0.3
	c-0.6,0.2-1.3,0.4-1.9,0.8c-1.1,0.7-2.1,1.6-2.8,2.8c-0.7,1.2-1,2.6-1,3.9v0.5h-2.3V493c0-2.1,0.6-4.1,1.8-5.8
	c0.6-0.8,1.3-1.6,2.1-2.2c0.6-0.4,1.2-0.8,1.9-1.1c-0.3-0.2-0.6-0.4-0.8-0.7c-0.5-0.5-0.9-1-1.2-1.5c-0.3-0.5-0.6-1.1-0.8-1.7
	c-0.4-1.6-0.3-3.3,0.3-4.8c1.6-3.7,5.8-5.4,9.6-3.9c1.7,0.7,3.1,2.1,3.9,3.9c0.6,1.5,0.7,3.2,0.3,4.8c-0.2,0.6-0.4,1.2-0.8,1.8
	c-0.3,0.6-0.7,1.1-1.2,1.5c-0.2,0.2-0.5,0.5-0.8,0.7c0.7,0.3,1.3,0.6,1.9,1.1c0.8,0.6,1.5,1.4,2.1,2.2c0.6,0.8,1,1.8,1.3,2.7
	c0.3,1,0.5,2,0.5,3.1V493.5z M-435.9,492.5h0.4c0-0.8-0.2-1.6-0.4-2.3c-0.3-0.9-0.7-1.7-1.2-2.5c-0.5-0.8-1.2-1.4-1.9-2
	c-0.7-0.6-1.6-1-2.5-1.3l-1-0.4l0.9-0.5c0.5-0.3,1-0.6,1.4-1c0.4-0.4,0.7-0.8,1-1.3c0.3-0.5,0.5-1,0.7-1.5c0.4-1.4,0.3-2.8-0.3-4.2
	c-1.4-3.2-5.1-4.7-8.3-3.4c-1.5,0.6-2.7,1.9-3.4,3.4c-0.3,0.8-0.5,1.6-0.5,2.5c0,0.6,0.1,1.1,0.2,1.7c0.1,0.5,0.3,1.1,0.6,1.6
	c0.6,1,1.4,1.8,2.4,2.3l0.9,0.5l-1,0.4c-0.9,0.3-1.7,0.8-2.5,1.4c-0.7,0.6-1.4,1.2-1.9,2c-1,1.4-1.5,3.1-1.6,4.8h0.4
	c0.1-1.4,0.5-2.8,1.2-4c0.7-1.3,1.8-2.3,3.1-3.1c0.7-0.4,1.4-0.7,2.1-0.9c1.9-0.5,3.9-0.4,5.7,0.4c2.1,0.8,3.7,2.5,4.6,4.6
	C-436.1,490.5-435.9,491.5-435.9,492.5z M-444.5,483.9c-0.8,0-1.6-0.2-2.3-0.5c-1.4-0.6-2.6-1.7-3.2-3.1c-0.6-1.5-0.6-3.1,0-4.6
	c0.6-1.4,1.7-2.5,3.1-3.2c1.5-0.6,3.1-0.6,4.6,0c1.4,0.6,2.6,1.7,3.2,3.2c0.6,1.5,0.6,3.1,0,4.6c-0.6,1.4-1.7,2.5-3.1,3.1
	C-442.9,483.8-443.7,483.9-444.5,483.9z M-444.5,473c-0.7,0-1.3,0.1-1.9,0.4c-1.2,0.5-2.1,1.5-2.7,2.7c-0.5,1.2-0.5,2.6,0,3.9
	c0.5,1.2,1.5,2.1,2.7,2.7c1.2,0.5,2.6,0.5,3.9,0c1.2-0.5,2.1-1.5,2.7-2.7c0.5-1.2,0.5-2.6,0-3.9c-0.5-1.2-1.5-2.1-2.7-2.7
	C-443.2,473.1-443.8,473-444.5,473z"/>
<path class="st0" d="M-444.5,497c-9.1,0-16.5-7.4-16.6-16.5c0-9.1,7.4-16.5,16.5-16.6c9.1,0,16.5,7.4,16.6,16.5
	C-428,489.6-435.4,497-444.5,497z M-444.5,465.8c-8.1,0-14.7,6.6-14.7,14.7s6.6,14.7,14.7,14.7s14.7-6.6,14.7-14.7c0,0,0,0,0,0
	C-429.9,472.3-436.4,465.8-444.5,465.8L-444.5,465.8z"/>
</svg>
