<?xml version="1.0" encoding="UTF-8" standalone="no"?>
<!-- Created with Inkscape (http://www.inkscape.org/) -->

<svg
   xmlns:dc="http://purl.org/dc/elements/1.1/"
   xmlns:cc="http://creativecommons.org/ns#"
   xmlns:rdf="http://www.w3.org/1999/02/22-rdf-syntax-ns#"
   xmlns:svg="http://www.w3.org/2000/svg"
   xmlns="http://www.w3.org/2000/svg"
   xmlns:sodipodi="http://sodipodi.sourceforge.net/DTD/sodipodi-0.dtd"
   xmlns:inkscape="http://www.inkscape.org/namespaces/inkscape"
   width="78.581245mm"
   height="88.887085mm"
   viewBox="0 0 78.581247 88.887084"
   version="1.1"
   id="svg15459"
   sodipodi:docname="directory-1.svg"
   inkscape:version="0.92.4 (5da689c313, 2019-01-14)">
  <defs
     id="defs15453">
    <filter
       style="color-interpolation-filters:sRGB"
       inkscape:label="Drop Shadow"
       id="filter1084">
      <feFlood
         flood-opacity="0.498039"
         flood-color="rgb(0,0,0)"
         result="flood"
         id="feFlood1074" />
      <feComposite
         in="flood"
         in2="SourceGraphic"
         operator="in"
         result="composite1"
         id="feComposite1076" />
      <feGaussianBlur
         in="composite1"
         stdDeviation="1.1"
         result="blur"
         id="feGaussianBlur1078" />
      <feOffset
         dx="1.2"
         dy="1.4107"
         result="offset"
         id="feOffset1080" />
      <feComposite
         in="SourceGraphic"
         in2="offset"
         operator="over"
         result="composite2"
         id="feComposite1082" />
    </filter>
  </defs>
  <sodipodi:namedview
     id="base"
     pagecolor="#ffffff"
     bordercolor="#666666"
     borderopacity="1.0"
     inkscape:pageopacity="0.0"
     inkscape:pageshadow="2"
     inkscape:zoom="0.98994949"
     inkscape:cx="383.38459"
     inkscape:cy="427.33745"
     inkscape:document-units="mm"
     inkscape:current-layer="g16015"
     showgrid="false"
     fit-margin-top="0"
     fit-margin-left="0"
     fit-margin-right="0"
     fit-margin-bottom="0"
     inkscape:window-width="1600"
     inkscape:window-height="877"
     inkscape:window-x="-8"
     inkscape:window-y="-8"
     inkscape:window-maximized="1" />
  <metadata
     id="metadata15456">
    <rdf:RDF>
      <cc:Work
         rdf:about="">
        <dc:format>image/svg+xml</dc:format>
        <dc:type
           rdf:resource="http://purl.org/dc/dcmitype/StillImage" />
        <dc:title></dc:title>
      </cc:Work>
    </rdf:RDF>
  </metadata>
  <g
     inkscape:label="Layer 1"
     inkscape:groupmode="layer"
     id="layer1"
     transform="translate(-4.3961612,-151.63106)">
    <g
       id="g16015"
       transform="translate(-210.60816,42.918337)">
      <path
         style="opacity:1;fill:#0c0c0c;fill-opacity:1;fill-rule:nonzero;stroke:#000000;stroke-width:0.80719751;stroke-linecap:round;stroke-linejoin:round;stroke-miterlimit:4;stroke-dasharray:none;stroke-opacity:0.87058824"
         d="m 254.29495,109.11632 a 38.887009,38.887009 0 0 0 -25.59161,9.64761 l 0.63946,0.63946 a 38.032915,38.032915 0 0 1 24.98551,-9.42111 38.032915,38.032915 0 0 1 22.59911,7.49772 l 0.60589,-0.60588 a 38.887009,38.887009 0 0 0 -23.23836,-7.7578 z m 27.33291,11.24877 -0.60442,0.60442 a 38.032915,38.032915 0 0 1 11.33783,27.04572 38.032915,38.032915 0 0 1 -9.40735,24.99928 l 0.5673,0.5673 a 38.887009,38.887009 0 0 0 9.66075,-25.57846 38.887009,38.887009 0 0 0 -11.55411,-27.63826 z m -56.69476,2.21413 a 38.887009,38.887009 0 0 0 -9.52518,25.42413 38.887009,38.887009 0 0 0 7.76239,23.23376 l 0.62132,-0.62131 a 38.032915,38.032915 0 0 1 -7.49626,-22.60057 38.032915,38.032915 0 0 1 9.24695,-24.82679 z m 2.33719,52.14344 -0.60276,0.60276 a 38.887009,38.887009 0 0 0 27.62742,11.56495 38.887009,38.887009 0 0 0 25.44143,-9.50787 l -0.59983,-0.59984 a 38.032915,38.032915 0 0 1 -24.80824,9.26552 38.032915,38.032915 0 0 1 -27.05802,-11.32552 z"
         id="path16021"
         inkscape:connector-curvature="0" />
      <path
         style="fill:#0c0c0c;fill-opacity:1;stroke-width:0.3708694"
         d="m 254.22008,181.16 h -4.77316 l 0.74594,-1.94707 0.74596,-1.94706 0.0529,-4.64966 0.0529,-4.64965 -0.65756,-1.00611 -0.65758,-1.0061 h -0.7516 -0.75161 l -1.00147,0.52107 -1.00148,0.52107 -0.88736,0.94991 -0.88736,0.94991 -0.8627,1.40326 -0.86268,1.40326 -0.0116,-0.37636 -0.0116,-0.37637 0.7295,-1.36107 0.72949,-1.36108 -0.82221,-0.11691 -0.82222,-0.11691 3.25982,-1.56616 3.25981,-1.56616 -0.53784,-1.02992 -0.53784,-1.02992 -1.14811,-1.5762 -1.1481,-1.5762 h -0.71096 -0.71096 l -1.19406,1.00474 -1.19406,1.00474 -0.87055,1.86949 -0.87056,1.86951 -0.0154,-0.5563 -0.0154,-0.55631 -0.55047,0.72806 -0.55047,0.72806 -0.62687,1.98865 -0.62687,1.98865 -0.59685,0.31943 -0.59686,0.31943 0.8963,-1.81109 0.89629,-1.81109 -0.13906,-0.4172 -0.13907,-0.41721 -1.08599,0.85424 -1.08599,0.85424 0.28229,-0.45676 0.28229,-0.45676 h -0.2317 -0.2317 l -0.81008,0.43159 -0.81008,0.43159 0.47681,-0.57823 0.4768,-0.57823 1.22551,-0.2299 1.22552,-0.22991 0.75471,-0.82878 0.7547,-0.82878 0.43026,-0.83446 0.43027,-0.83445 h -1.13394 -1.13395 l -1.75334,1.56133 -1.75334,1.56132 0.46358,-0.52289 0.46359,-0.52289 v -0.30622 -0.30622 l -1.0469,0.54137 -1.0469,0.54138 -0.45022,0.54247 -0.45021,0.54247 -0.75091,-0.19637 -0.75092,-0.19637 1.46054,-0.6539 1.46053,-0.6539 0.25308,-0.40949 0.25307,-0.40948 -0.48546,-0.038 -0.48548,-0.038 1.11261,-0.31824 1.11261,-0.31824 2.74649,-0.73463 2.7465,-0.73463 0.57543,-0.57543 0.57544,-0.57543 -0.35498,-0.32423 -0.35497,-0.32422 -1.8277,-0.6056 -1.8277,-0.60559 h -0.7893 -0.78931 l -2.70169,1.90343 -2.70167,1.90344 0.47739,-0.76444 0.4774,-0.76443 0.90237,-0.41115 0.90237,-0.41115 -0.23202,-0.23203 -0.23203,-0.23202 1.16078,-0.70593 1.1608,-0.70591 -0.32767,-0.30992 -0.32765,-0.30992 -1.77459,-0.5926 -1.77459,-0.59259 h -0.71192 -0.71192 l -0.92717,-0.92717 -0.92718,-0.92718 h 0.13175 0.13176 l 1.98388,0.92355 1.98389,0.92355 0.72429,0.004 0.72429,0.004 -1.46602,-1.56557 -1.46603,-1.56558 2.1116,1.93768 2.11161,1.93768 0.85534,0.32175 0.85536,0.32175 2.59608,-0.32895 2.59609,-0.32897 0.88494,-0.19919 0.88493,-0.1992 -1.0494,-1.09531 -1.04939,-1.09533 -3.60524,-1.85188 -3.60526,-1.8519 h -1.70061 -1.70062 l 0.0927,-0.42292 0.0927,-0.42292 -2.00434,-0.70899 -2.00434,-0.70899 -2.42008,-0.22599 -2.42007,-0.22599 0.8666,-0.32057 0.86661,-0.32058 1.14716,0.34713 1.14716,0.34712 1.01989,0.22581 1.01989,0.22581 v -0.41195 -0.412 l -0.83446,-1.10713 -0.83446,-1.10713 -0.91608,-0.99131 -0.91609,-0.99147 -0.0758,-0.49612 -0.0758,-0.49612 -0.64183,-0.70921 -0.64183,-0.70921 h 0.3857 0.3857 l 0.65187,1.0199 0.65187,1.01989 2.07711,2.56224 2.07712,2.56224 1.85682,0.86467 1.85681,0.86468 0.71845,0.004 0.71844,0.004 -2.34393,-2.36173 -2.34393,-2.36173 0.0493,-0.23436 0.0493,-0.23452 h 0.18544 0.18543 l -0.0124,0.0927 -0.0124,0.0927 2.70122,2.84296 2.70123,2.84295 1.75545,0.74944 1.75545,0.74943 1.24651,0.95076 1.24651,0.95076 h 0.42858 0.42858 v -0.23438 -0.23437 l -0.77057,-1.24681 -0.77057,-1.24681 -0.62019,-0.36188 -0.62019,-0.36189 0.7065,-0.0113 0.7065,-0.0113 -0.7065,-0.79282 -0.7065,-0.79281 -2.91131,-2.35958 -2.91131,-2.35958 -1.16825,-0.0261 -1.16826,-0.0261 -0.74174,-0.34879 -0.74173,-0.34879 1.29804,0.18329 1.29804,0.18329 0.46238,-0.29316 0.46238,-0.29316 -1.29684,-1.25694 -1.29682,-1.25693 v -0.48414 -0.48417 l -1.85435,-1.33221 -1.85434,-1.33222 v -0.17168 -0.17167 l 0.82426,0.57733 0.82426,0.57734 h 0.34582 0.34584 l -0.52107,-0.66959 -0.52107,-0.66959 0.92717,0.95122 0.92718,0.95121 1.24088,1.48 1.24088,1.48001 -0.2354,-0.92718 -0.2354,-0.92717 0.95835,1.92264 0.95834,1.92264 2.28429,2.11484 2.28429,2.11485 0.13072,-0.39216 0.13072,-0.39215 -0.99546,-1.97642 -0.99545,-1.97642 -1.39463,-1.52268 -1.39463,-1.52268 -0.4335,-0.88797 -0.43349,-0.88797 0.66996,0.8214 0.66996,0.82141 0.61144,0.84751 0.61144,0.84751 0.25036,-0.24369 0.25037,-0.24369 -0.62233,-1.23979 -0.62232,-1.23979 -2.4647,-2.57451 -2.46469,-2.57452 0.61295,0.4575 0.61296,0.45749 0.19368,-0.39562 0.19369,-0.39562 -0.0942,0.46809 -0.0942,0.4681 0.95649,1.00388 0.95649,1.00388 0.47028,0.11349 0.47027,0.11349 4.16559,4.00553 4.1656,4.00553 0.84603,0.58786 0.84603,0.58786 0.15979,-0.1598 0.15979,-0.15979 -1.42269,-2.14237 -1.4227,-2.14236 -1.08138,-0.99319 -1.08139,-0.99318 0.36711,0.27815 0.3671,0.27815 h 0.2967 0.29669 v -0.41618 -0.41618 l -3.05967,-3.14138 -3.05967,-3.14138 -1.5762,-0.92811 -1.57619,-0.92811 v -0.13856 -0.13855 l 0.64902,0.23845 0.64902,0.23846 -1.76163,-1.90312 -1.76163,-1.90312 v -0.24691 -0.24691 l 3.68239,3.847 3.68239,3.847 1.13891,0.66999 1.13892,0.66999 -0.001,-0.66999 -0.001,-0.66999 -0.68699,-1.12656 -0.68701,-1.12656 -2.11694,-2.28655 -2.11693,-2.28654 -0.74588,-0.23674 -0.74589,-0.23673 0.2142,-0.21419 0.21419,-0.2142 -0.63999,-0.77183 -0.6398,-0.77184 0.52792,0.46359 0.52792,0.46359 h 0.31451 0.31452 l -1.15989,-1.76163 -1.15989,-1.76163 0.95731,1.04136 0.95732,1.04136 0.30419,-0.188 0.30419,-0.188 1.35795,2.32137 1.35794,2.32137 0.99266,0.90483 0.99266,0.90483 -0.1908,-0.5563 -0.19081,-0.5563 -0.65449,-2.03979 -0.6545,-2.03978 -1.34659,-1.47405 -1.34658,-1.47406 0.91316,0.73232 0.91315,0.73232 0.65002,0.74173 0.65002,0.74174 1.35677,4.07957 1.35677,4.07956 1.15962,2.96695 1.15961,2.96696 0.22933,-1.29804 0.22933,-1.29805 0.0488,1.21724 0.0488,1.21724 0.53186,1.27293 0.53186,1.27293 0.8589,0.18192 0.8589,0.18192 1.76163,0.34262 1.76163,0.34263 v -0.25915 -0.25915 l -1.36152,-1.64295 -1.36152,-1.64295 -1.67933,-1.75668 -1.67933,-1.75667 -0.27703,0.44824 -0.27702,0.44823 -0.15477,-0.54591 -0.15477,-0.54591 -0.43341,-1.81152 -0.4334,-1.81152 0.16206,-0.16206 0.16206,-0.16207 0.24155,1.04641 0.24155,1.04641 2.36044,2.59458 2.36044,2.59457 0.23281,-0.23281 0.23281,-0.23282 -3.60869,-5.31444 -3.60868,-5.31445 -1.2424,-2.94584 -1.24239,-2.94584 0.12424,-0.37272 0.12424,-0.37272 0.6753,1.76826 0.6753,1.76825 0.31919,-0.50374 0.31917,-0.50375 0.006,0.67299 0.006,0.67298 0.81011,1.9231 0.81009,1.9231 1.25099,1.98757 1.25099,1.98757 0.20584,-0.20584 0.20584,-0.20584 -0.59948,-1.75939 -0.59949,-1.75939 -0.83299,-0.9166 -0.83298,-0.9166 0.46358,0.26713 0.46359,0.26712 v -0.40012 -0.40013 l -0.90857,-2.236 -0.90857,-2.236 0.19539,-0.50917 0.19539,-0.50917 -0.41531,-0.77601 -0.41531,-0.77602 0.45536,0.098 0.45536,0.098 1.00376,2.03978 1.00376,2.03978 0.60835,0.74174 0.60835,0.74174 -0.56812,-1.43605 -0.56809,-1.43606 0.001,-0.23286 0.001,-0.23286 0.69731,1.14351 0.6973,1.14351 0.24951,1.13597 0.2495,1.13597 0.7774,0.68748 0.7774,0.68747 1.4268,2.19 1.42679,2.19 v -0.37031 -0.37031 l -0.69011,-2.00512 -0.69011,-2.00513 -1.35899,-2.69805 -1.35899,-2.69805 -1.37102,-1.56694 -1.37102,-1.56695 0.94065,0.83445 0.94066,0.83446 h 0.41469 0.41469 l 0.25097,0.79074 0.25097,0.79074 0.32465,-0.51259 0.32464,-0.51259 0.0224,0.92718 0.0224,0.92717 0.50946,1.11261 0.50945,1.11261 0.0753,-1.48348 0.0753,-1.48348 0.30194,2.03978 0.30194,2.03979 0.40272,0.92717 0.40272,0.92717 -0.1584,-2.31779 -0.15839,-2.31779 0.33568,-0.20746 0.33551,-0.20747 v 1.50537 1.50536 h 0.36381 0.3638 l 0.25296,-1.00787 0.25296,-1.00787 -0.80228,-2.23724 -0.80227,-2.23723 0.0262,-0.74174 0.0262,-0.74174 0.31874,0.74174 0.31873,0.74174 0.0838,-0.92718 0.0837,-0.92717 -0.0582,-0.92717 -0.0583,-0.92718 0.53897,1.20533 0.53897,1.20532 h 0.2328 0.23282 l -0.21055,-1.20532 -0.21053,-1.20533 0.20062,0.42953 0.20062,0.42952 0.69385,2.352 0.69383,2.35199 0.0806,-1.66891 0.0806,-1.66891 0.28197,2.03978 0.28198,2.03978 0.0602,2.78152 0.0602,2.78152 0.3758,-0.92717 0.37579,-0.92717 0.16395,-4.05561 0.16395,-4.0556 0.17848,-0.17849 0.17848,-0.17849 v 0.58721 0.58721 l 0.42406,0.14135 0.42405,0.14135 -0.44734,0.83586 -0.44734,0.83586 0.116,0.75963 0.11601,0.75963 1.01989,-0.80568 1.01989,-0.80567 0.0522,-2.66189 0.0522,-2.66189 0.25377,2.03979 0.25376,2.03978 -0.28717,1.11261 -0.28718,1.1126 -0.37936,3.15239 -0.37937,3.15239 -0.24952,1.07501 -0.24952,1.07502 0.42464,-0.26245 0.42464,-0.26244 -0.005,0.11461 -0.005,0.1146 -0.73695,2.35098 -0.73695,2.35097 0.03,9.14598 0.03,9.14597 0.66545,-1.42699 0.66546,-1.427 0.44309,-2.838 0.4431,-2.838 0.80849,-4.07957 0.8085,-4.07956 -0.028,-10.19891 -0.028,-10.19891 0.14198,2.03979 0.14197,2.03978 0.30801,0.31071 0.30801,0.31071 -0.19708,3.86157 -0.19715,3.86157 h 0.24788 0.24787 l 0.40642,-1.01989 0.40641,-1.01989 0.50249,-1.66892 0.50249,-1.66891 -0.21593,1.66891 -0.21592,1.66892 -0.75268,1.77291 -0.75269,1.77292 0.21125,0.21125 0.21126,0.21125 1.11947,-2.1696 1.11948,-2.1696 0.0179,0.30246 0.0178,0.30246 -1.29804,2.80944 -1.29804,2.80944 v 0.54949 0.54948 l 0.5563,-0.46169 0.5563,-0.46169 v -0.3502 -0.35021 l 0.90253,-1.18327 0.90253,-1.18327 0.94819,-2.03709 0.9482,-2.03709 0.004,-0.83446 0.004,-0.83445 h 0.37086 0.37088 v -0.53442 -0.53442 l 0.4106,-0.25376 0.4106,-0.25377 -0.26641,0.8809 -0.2664,0.8809 -2.12638,4.47595 -2.12637,4.47595 -0.2111,2.38514 -0.21111,2.38513 1.11713,-1.29804 1.11712,-1.29805 -0.74569,1.48348 -0.74569,1.48348 -1.29235,1.24106 -1.29235,1.24105 -0.44936,1.60499 -0.44937,1.60498 0.16645,0.49178 0.16644,0.49179 0.81284,-1.48348 0.81284,-1.48348 -0.22224,0.83446 -0.22223,0.83445 h 0.19387 0.19386 l 1.5012,-2.52689 1.5012,-2.52689 1.2572,-3.12887 1.25719,-3.12886 0.67454,-4.07957 0.67453,-4.07956 0.14445,0.70285 0.14445,0.70286 0.32763,-0.51742 0.32763,-0.51742 0.006,0.66207 0.006,0.66207 -0.52641,0.82141 -0.52642,0.82141 -0.25368,2.22521 -0.25368,2.22522 1.16941,-1.29804 1.16942,-1.29805 -1.67867,2.3802 -1.67868,2.3802 -1.09775,2.62654 -1.09775,2.62654 -1.86553,3.31927 -1.86554,3.31928 0.15561,0.15561 0.15561,0.1556 1.2228,-0.70432 1.22278,-0.70433 1.15763,-2.29286 1.15762,-2.29287 -0.1997,-0.19954 -0.19955,-0.19954 h 0.45768 0.45767 l -0.23472,-0.83446 -0.23472,-0.83445 0.35625,0.51524 0.35626,0.51523 0.58036,-1.07154 0.58037,-1.07154 0.0148,0.28638 0.0149,0.28639 -1.48762,2.95872 -1.48762,2.95872 h 0.56809 0.56809 l 1.19768,-1.72331 1.19768,-1.72332 2.31794,-3.1315 2.31793,-3.13151 0.0117,-0.43007 0.0117,-0.43006 0.91678,-0.66729 0.91677,-0.66728 -1.48487,2.11972 -1.48487,2.11972 0.174,0.17399 0.17399,0.174 1.03147,-0.64002 1.03147,-0.64002 1.24237,-1.35728 1.24238,-1.35728 -0.24437,0.46358 -0.24438,0.46359 h 0.33527 0.33528 l 0.67126,-0.74174 0.67127,-0.74174 h 0.3656 0.36561 l -1.74127,1.53272 -1.74126,1.53273 -1.32445,2.63955 -1.32445,2.63956 -0.72442,1.11261 -0.72442,1.11261 1.12761,-1.267 1.12762,-1.267 1.66654,-2.86822 1.66655,-2.86821 1.14304,-0.81392 1.14303,-0.81392 -0.20764,-0.65426 -0.20766,-0.65426 0.63587,-0.51595 0.63587,-0.51595 -0.27852,0.46359 -0.27851,0.46358 h 0.45627 0.45627 l 0.75861,-0.64902 0.75862,-0.64902 -2.3091,2.71398 -2.3091,2.71398 -0.50583,0.99472 -0.50582,0.99471 -0.28592,0.92426 -0.28591,0.92427 0.6098,-0.50609 0.6098,-0.50609 v 0.25559 0.25559 l -0.92718,1.21559 -0.92717,1.21559 v 0.2864 0.2864 l 0.82398,-0.21548 0.82396,-0.21547 -1.00389,0.82124 -1.00391,0.82124 -0.58002,2.54697 -0.58002,2.54697 0.21045,0.21045 0.21046,0.21046 1.49843,-1.45939 1.49843,-1.45937 -0.24687,0.64902 -0.24688,0.64902 h 0.41055 0.41055 l 1.47086,-1.47086 1.47086,-1.47086 0.87774,-1.40338 0.87774,-1.40338 0.42103,-1.22654 0.42102,-1.22654 -0.82256,0.23212 -0.82256,0.23212 -2.22522,1.1191 -2.22521,1.11909 0.74173,-0.70343 0.74174,-0.70343 1.85435,-0.78291 1.85435,-0.78291 0.60787,-0.1871 0.60787,-0.1871 0.65875,-1.78906 0.65875,-1.78906 0.32459,-0.36734 0.32459,-0.36734 -0.58176,1.64887 -0.58176,1.64888 0.17383,0.45298 0.17383,0.45298 -0.50549,0.41952 -0.50548,0.41951 -0.38035,1.09108 -0.38031,1.09108 h 0.20847 0.20847 l 1.34844,-1.41264 1.34843,-1.41264 -0.83446,0.96934 -0.83445,0.96935 v 0.34283 0.34283 l -3.05149,3.06742 -3.05148,3.06742 h 1.63682 1.63682 l 0.93986,-0.83446 0.93985,-0.83445 -0.46785,0.61295 -0.46784,0.61296 0.47906,0.17072 0.47907,0.17073 -0.20452,0.22439 -0.20452,0.22439 -2.91074,0.19108 -2.91075,0.19108 -1.6196,0.78404 -1.61961,0.78404 -0.38512,0.71962 -0.38513,0.71962 0.21435,0.67537 0.21435,0.67537 -0.56468,0.46864 -0.56467,0.46864 v 0.68926 0.68927 l 0.83445,0.19775 0.83446,0.19775 1.72132,0.3102 1.72131,0.31021 0.60417,-0.33811 0.60417,-0.33811 -0.10027,0.48624 -0.10027,0.48624 0.99171,0.11463 0.9917,0.11463 1.49689,-0.76365 1.49689,-0.76365 0.29293,0.0148 0.29292,0.0148 -1.07154,0.58036 -1.07154,0.58036 0.51524,0.32629 0.51523,0.32628 1.53652,0.006 1.53651,0.006 0.20737,0.54037 0.20736,0.54038 -0.93564,-0.35573 -0.93564,-0.35573 -4.14606,-0.37251 -4.14606,-0.37252 -2.14376,-0.5078 -2.14376,-0.5078 -1.62874,2.26988 -1.62873,2.26987 0.0823,0.0823 0.0823,0.0823 3.26677,0.3712 3.26676,0.37119 0.43158,0.35818 0.43158,0.35818 2.5756,0.47457 2.5756,0.47457 -0.91482,0.22302 -0.91482,0.22301 1.11261,0.6104 1.1126,0.61039 -0.29292,0.0148 -0.29293,0.0149 -1.40068,-0.71458 -1.40069,-0.71457 -2.20052,-0.79843 -2.20051,-0.79842 -3.15239,-0.17697 -3.15239,-0.17696 -0.50803,0.34856 -0.50802,0.34856 1.24976,1.73429 1.24977,1.73429 0.80374,0.99788 0.80373,0.99787 2.22007,-0.0812 2.22007,-0.0812 0.39407,0.47484 0.39409,0.47483 -2.21257,-0.16003 -2.21255,-0.16005 v 0.4209 0.4209 l 1.14316,0.69519 1.14316,0.6952 -0.48629,0.1621 -0.48629,0.1621 0.67081,1.02377 0.6708,1.02378 -0.14777,0.14777 -0.14777,0.14777 -2.17841,-2.96147 -2.17842,-2.96147 h -0.29953 -0.29954 l 0.002,0.27816 0.002,0.27815 0.40341,1.45294 0.4034,1.45294 0.94018,1.51402 0.94019,1.51401 -1.09322,-1.02508 -1.09322,-1.02508 -0.3119,0.28334 -0.31189,0.28334 0.26678,-0.46359 0.26677,-0.46358 -0.30003,-0.003 -0.30004,-0.003 -0.095,-2.23956 -0.095,-2.23956 -0.53471,-1.27976 -0.53472,-1.27976 -0.95342,-0.4344 -0.95341,-0.43441 -1.13952,1.0826 -1.13953,1.08259 -0.77292,1.0758 -0.7729,1.07579 0.96856,0.83313 0.96857,0.83312 -0.18209,0.1821 -0.1821,0.18209 1.78196,1.4137 1.78195,1.41369 0.37087,0.3421 0.37087,0.3421 -0.92717,-0.47408 -0.92718,-0.47408 -1.26579,-0.9595 -1.26579,-0.95949 0.19821,0.92459 0.19821,0.92459 0.2536,0.74175 0.2536,0.74173 -1.35588,-2.7309 -1.35589,-2.73091 -0.55416,0.55415 -0.55415,0.55416 -0.74401,2.17675 -0.74401,2.17675 -0.19655,3.59568 -0.19655,3.59569 0.77784,1.31833 0.77783,1.31834 h -4.77236 z m 2.95318,-14.09304 0.7346,-0.92717 0.22574,-0.83927 0.22574,-0.83928 -0.45769,-0.55148 -0.45769,-0.55149 h -0.51089 -0.5109 l 0.008,2.31793 0.008,2.31793 0.73459,-0.92717 z m -6.74339,-4.28112 0.12704,-0.61426 -0.23657,-1.261 -0.23656,-1.26101 h -1.28123 -1.28124 v 0.20752 0.20752 l 1.39076,1.66774 1.39076,1.66775 z m 8.1992,0.20156 h 0.30878 l 0.24369,-0.97094 0.24369,-0.97093 -0.14395,-0.14395 -0.14395,-0.14394 -0.65217,0.72064 -0.65217,0.72064 0.24366,0.39424 0.24364,0.39424 z m 4.32212,-2.38286 2.18641,-1.82333 1.78951,-1.69832 1.78951,-1.69831 0.36427,-0.6644 0.36427,-0.6644 -2.59956,1.30911 -2.59956,1.30912 -1.27664,1.12091 -1.27666,1.12091 -0.24224,1.0159 -0.24225,1.01588 -0.22173,0.74013 -0.22173,0.74013 z m -6.24339,0.52851 h 0.18986 l 1.80661,-1.37774 1.80661,-1.37774 0.36423,-1.31106 0.36423,-1.31106 0.002,-1.25427 0.002,-1.25427 0.76044,-1.23041 0.76043,-1.2304 1.2304,-0.76043 1.23041,-0.76044 h 1.1313 1.13131 l 0.727,-1.20532 0.72701,-1.20533 0.45282,-1.41561 0.4528,-1.4156 -0.21082,-0.21083 -0.21082,-0.21082 -0.92648,0.60705 -0.92648,0.60705 -4.04203,4.49704 -4.04203,4.49705 -1.15843,1.9114 -1.15843,1.9114 -0.32697,1.75017 -0.32697,1.75017 h 0.18987 z m -13.5661,-1.88285 1.36888,0.0285 0.24918,-0.40318 0.24918,-0.40319 -0.38269,-0.38269 -0.38269,-0.38268 -1.54374,0.0213 -1.54374,0.0213 -1.1751,0.27337 -1.1751,0.27338 1.48347,0.46269 1.48348,0.46269 z m 5.02469,-0.34237 h 1.58013 l -0.004,-0.46358 -0.004,-0.46359 -1.22755,-1.54384 -1.22754,-1.54384 -1.08679,-0.90443 -1.08679,-0.90442 -0.81007,-0.42597 -0.81008,-0.42597 h -0.20982 -0.20981 v 0.40481 0.40481 l 1.75769,2.93301 1.75768,2.93301 h 1.58014 z m 3.36557,-1.62346 0.11653,-1.39114 -1.1338,-2.42286 -1.13379,-2.42287 -1.16801,-1.47473 -1.16801,-1.47473 -2.05892,-1.52102 -2.05893,-1.52101 -2.90148,-2.77206 -2.90148,-2.77205 -0.18359,0.18359 -0.18359,0.1836 1.54255,3.48774 1.54255,3.48775 1.24733,1.96015 1.24734,1.96015 0.56854,0.21817 0.56854,0.21816 0.21417,-0.21417 0.21418,-0.21418 -1.75033,-2.45286 -1.75032,-2.45286 0.18543,-0.18544 0.18544,-0.18543 1.77874,2.5285 1.77874,2.52851 2.43354,2.59608 2.43356,2.59609 1.10927,1.46003 1.10927,1.46003 z m 10.7314,-0.23882 0.27815,-0.008 2.57369,-1.66716 2.57369,-1.66715 1.38562,-0.41514 1.38561,-0.41514 0.23103,-0.92049 0.23103,-0.92048 -0.12028,-0.12028 -0.12028,-0.12028 -1.73976,-0.0901 -1.73976,-0.09 -0.84682,0.7045 -0.8468,0.70451 -1.76164,1.66815 -1.76162,1.66815 v 0.84839 0.8484 z m -4.54154,-2.95902 h 0.11362 l 1.88896,-2.54806 1.88896,-2.54808 0.5568,-1.57812 0.55679,-1.57812 v -0.54084 -0.54084 l -1.49464,1.18378 -1.49464,1.18378 -0.49962,0.97988 -0.49961,0.97989 -0.56512,2.50337 -0.56513,2.50336 z m -5.4911,-0.88251 0.0736,-0.0681 -0.3755,-2.76978 -0.3755,-2.76979 -0.62522,-1.27411 -0.62522,-1.27411 -0.93944,-0.6853 -0.93943,-0.6853 -1.90439,-0.50236 -1.90439,-0.50237 3.18869,4.50155 3.18869,4.50156 0.58231,0.79814 0.58231,0.79813 z m 12.26548,-1.28115 1.56858,-1.23649 v -0.15427 -0.15427 h -0.51229 -0.51229 l -1.05628,1.39076 -1.05628,1.39076 z m 5.64814,-1.67302 0.92717,-0.0574 0.77906,-2.42807 0.77906,-2.42806 0.25757,-1.37303 0.25758,-1.37302 -0.94568,0.43088 -0.94567,0.43088 -1.66715,3.13392 -1.66716,3.13392 v 0.11638 0.11637 l 0.64903,0.17736 0.64902,0.17735 z m -6.55367,-2.70705 0.60557,-0.33889 2.55845,-2.29064 2.55846,-2.29065 1.23284,-2.14902 1.23283,-2.14901 0.83461,-1.76163 0.8346,-1.76163 h -0.19426 -0.19427 l -1.66042,1.1424 -1.66042,1.14239 -2.02642,3.04503 -2.02643,3.04503 -1.10856,0.65484 -1.10856,0.65485 v 0.48898 0.48897 l -0.24179,1.20893 -0.24178,1.20894 z m -9.1389,-0.96205 0.16877,-0.64469 -0.16128,-0.83878 -0.16129,-0.83878 -0.008,1.48347 -0.007,1.48348 0.16878,-0.6447 z m -2.04838,-1.95138 0.26734,-1.48348 0.0214,-1.17109 0.0214,-1.17108 -2.13249,-4.20652 -2.1325,-4.20652 -2.03979,-1.21775 -2.03977,-1.21775 -0.11928,0.56543 -0.11928,0.56543 1.36453,2.50666 1.36452,2.50667 2.63832,5.00674 2.63833,5.00673 z m -22.12751,0.5563 h 0.18544 v -0.18543 -0.18544 h -0.18544 -0.18543 v 0.18544 0.18543 z m 24.3972,-2.65412 0.33272,-0.86914 -0.24153,-3.09906 -0.24153,-3.09906 -0.68317,-2.09311 -0.68316,-2.09311 -1.29159,-2.89203 -1.29159,-2.89203 -0.41336,1.18574 -0.41335,1.18574 v 1.59419 1.59418 l 1.20408,3.2645 1.20409,3.26449 0.20083,-1.66891 0.20083,-1.66892 0.44736,1.48348 0.44737,1.48348 0.002,1.17703 0.002,1.17703 0.44257,1.91733 0.44257,1.91732 0.33273,-0.86914 z m 15.61292,0.4289 h 0.18543 l 0.22921,-0.37087 0.22921,-0.37086 h -0.18543 -0.18544 l -0.22921,0.37086 -0.22921,0.37087 z m -40.38099,-4.8213 h 0.18544 v -0.18543 -0.18544 h -0.18544 -0.18543 v 0.18544 0.18543 z m 25.02497,-5.3776 0.27298,-0.74174 0.25693,-2.90441 0.25695,-2.90441 -0.25945,-1.73012 -0.25945,-1.73011 -0.28899,0.74039 -0.28899,0.7404 -0.0261,1.41197 -0.0261,1.41196 -0.40052,1.59065 -0.40053,1.59064 0.44511,1.63326 0.44512,1.63325 0.27298,-0.74173 z m -7.4795,-1.68377 0.1146,0.0149 -0.27279,-0.46358 -0.27279,-0.46359 -1.54912,-2.03978 -1.54911,-2.03978 -1.15989,-1.85435 -1.15989,-1.85435 -0.007,0.82388 -0.007,0.82388 0.90677,2.05036 0.90677,2.05036 h 0.1942 0.1942 l -0.21347,-0.55631 -0.21348,-0.5563 h 0.21758 0.21758 l 0.75131,1.4727 0.75132,1.4727 1.01785,0.55223 1.01785,0.55224 0.11461,0.0148 z m -3.45243,-2.21036 h 0.18543 v -0.18544 -0.18543 h -0.18543 -0.18544 v 0.18543 0.18544 z m 8.64786,-2.96696 0.11786,-2.41065 -0.63836,-2.12652 -0.63835,-2.12652 -0.68484,-0.61976 -0.68483,-0.61977 0.005,1.63368 0.005,1.63367 0.23182,0.86581 0.23184,0.86581 0.31373,-0.49494 0.31373,-0.49494 0.006,1.47108 0.006,1.47108 0.64902,1.68131 0.64901,1.68131 z m 3.85869,-1.99264 0.32091,-1.80721 -0.20785,-0.20785 -0.20785,-0.20785 -0.4033,0.4033 -0.4033,0.40329 0.29025,1.61177 0.29023,1.61176 z m 7.52039,49.46392 h -0.18543 v -0.18543 -0.18544 h 0.18543 0.18544 v 0.18544 0.18543 z M 242.09993,172.63 h -0.18544 l 0.22921,-0.37087 0.22921,-0.37087 h 0.18544 0.18543 l -0.22921,0.37087 -0.22921,0.37087 z m 21.56444,0 h -0.15191 l -0.24446,-0.39554 -0.24446,-0.39554 0.17676,-0.17676 0.17676,-0.17676 0.21961,0.5723 0.21961,0.5723 z m -28.56718,-0.74174 h -0.18544 v -0.18543 -0.18544 h 0.18544 0.18543 v 0.18544 0.18543 z m 1.81057,-0.37087 h -0.18544 l 0.22921,-0.37087 0.22921,-0.37086 h 0.18544 0.18543 l -0.22921,0.37086 -0.22921,0.37087 z m 3.9379,-0.74173 h -0.49449 l 0.24724,-0.24725 0.24725,-0.24725 0.24725,0.24725 0.24724,0.24725 z m 1.26714,-0.40016 -0.71084,-0.0293 0.48677,-0.19478 0.48677,-0.19479 0.22406,0.22407 0.22407,0.22406 -0.71083,-0.0293 z m 32.68929,-0.71245 h -0.16355 l -0.26462,-0.42818 -0.26463,-0.42817 0.42817,0.26463 0.42818,0.26462 v 0.16355 0.16355 z m -1.50536,-1.11261 h -0.18544 v -0.18543 -0.18544 h 0.18544 0.18543 v 0.18544 0.18543 z m -39.31215,-0.74174 h -0.18544 v -0.18543 -0.18544 h 0.18544 0.18543 v 0.18544 0.18543 z m -3.7087,-1.48348 h -0.18543 v -0.18543 -0.18544 h 0.18543 0.18544 v 0.18544 0.18543 z m 52.10714,-2.9987 -0.5563,0.0204 -0.5563,-0.35952 -0.55631,-0.35951 0.37087,0.0204 0.37087,0.0204 0.74174,0.31873 0.74174,0.31874 -0.55631,0.0204 z m -4.63586,-0.33912 h -0.18544 v -0.18543 -0.18544 h 0.18544 0.18543 v 0.18544 0.18543 z m -0.74174,-0.37087 h -0.18543 v -0.18544 -0.18543 h 0.18543 0.18543 v 0.18543 0.18544 z m 8.90086,-0.37087 h -0.18543 v -0.18544 -0.18543 h 0.18543 0.18544 v 0.18543 0.18544 z m -57.11388,-0.37087 h -0.18543 v -0.18543 -0.18544 h 0.18543 0.18544 v 0.18544 0.18543 z m 55.81584,0 h -0.49449 l 0.24724,-0.24725 0.24725,-0.24724 0.24725,0.24724 0.24725,0.24725 z m -54.36326,-0.40015 -0.71083,-0.0293 0.48676,-0.19479 0.48677,-0.19479 0.22406,0.22407 0.22407,0.22407 -0.71083,-0.0293 z m 52.87978,0.0293 h -0.49448 l 0.24724,-0.24725 0.24724,-0.24724 0.24725,0.24724 0.24724,0.24725 z m -51.55083,-1.94041 h -1.29805 l 0.64903,-0.1696 0.64902,-0.16961 0.64902,0.16961 0.64902,0.1696 z m 45.61692,-0.37087 h -1.29804 l 0.64902,-0.16961 0.64902,-0.1696 0.64903,0.1696 0.64902,0.16961 z m -51.10914,-2.91788 -1.36887,-0.037 0.92717,-0.29693 0.92718,-0.29693 0.67091,-0.037 0.67091,-0.037 -0.22921,0.37087 -0.22921,0.37087 -1.36888,-0.037 z m 60.75175,-0.70477 h -0.49449 l 0.24724,-0.24725 0.24725,-0.24724 0.24724,0.24724 0.24725,0.24725 z m -62.49149,-0.74174 h -0.18543 v -0.18543 -0.18544 h 0.18543 0.18544 v 0.18544 0.18543 z m 2.96696,-0.37087 h -0.18544 v -0.18543 -0.18544 h 0.18544 0.18543 v 0.18544 0.18543 z m -0.74174,-0.37087 h -0.18543 v -0.18543 -0.18543 h 0.18543 0.18543 v 0.18543 0.18543 z m 51.92171,-0.74173 h -0.18544 v -0.18544 -0.18543 h 0.18544 0.18544 v 0.18543 0.18544 z m 6.11934,-0.0586 h -0.92717 l 0.46359,-0.18706 0.46358,-0.18707 0.46359,0.18707 0.46358,0.18706 z m -4.8213,-0.54185 -0.92717,0.22189 1.29804,-0.62449 1.29804,-0.62448 -3.33782,-0.29085 -3.33783,-0.29086 -0.92717,-0.16749 -0.92717,-0.16749 3.02865,0.12228 3.02866,0.12229 1.00588,-0.52186 1.00589,-0.52186 -0.49134,0.59202 -0.49134,0.59203 0.53636,-0.0769 0.53636,-0.0769 0.92717,0.0502 0.92718,0.0502 -1.11261,0.69522 -1.11261,0.69521 z m 6.67565,0.22954 h -0.49449 l 0.24724,-0.24725 0.24725,-0.24724 0.24725,0.24724 0.24724,0.24725 z m -61.56432,-1.11261 h -0.49449 l 0.24725,-0.24725 0.24724,-0.24724 0.24725,0.24724 0.24725,0.24725 z m 2.627,-0.39694 -1.63801,0.0261 0.15453,-0.13423 0.15453,-0.13424 2.22522,-0.20135 2.22521,-0.20135 -0.74174,0.30952 -0.74174,0.30952 -1.638,0.0261 z m -2.81243,-0.71567 h -0.18543 v -0.18543 -0.18544 h 0.18543 0.18543 v 0.18544 0.18543 z m -1.48348,-0.44317 -1.1126,-0.0137 0.65608,-0.17097 0.65608,-0.17097 0.45653,0.18471 0.45652,0.18471 -1.11261,-0.0138 z m 16.29252,0.0682 -0.39661,0.004 -1.96794,-1.46828 -1.96795,-1.46829 -0.23154,-0.26008 -0.23153,-0.26009 0.55631,0.30131 0.5563,0.3013 0.55631,0.47347 0.5563,0.47346 0.19403,-0.0663 0.19403,-0.0663 1.28945,1.01578 1.28944,1.01578 -0.3966,0.004 z m 44.71549,-0.0545 h -0.92717 l 0.46358,-0.18706 0.46359,-0.18706 0.46359,0.18706 0.46359,0.18706 z m 2.03978,-2.53752 h -0.18543 v -0.18544 -0.18543 h 0.18543 0.18544 v 0.18543 0.18544 z m -63.41866,-0.37087 h -0.18543 v -0.18544 -0.18543 h 0.18543 0.18544 v 0.18543 0.18544 z m 11.49696,0 h -0.18544 v -0.18544 -0.18543 h 0.18544 0.18543 v 0.18543 0.18544 z m 49.97464,-0.39694 -0.27815,-0.0261 -0.74174,-0.31874 -0.74174,-0.31874 1.01989,-0.0261 1.01989,-0.0261 v 0.37087 0.37087 l -0.27815,-0.0261 z m -54.42508,-0.3448 h -0.18543 v -0.18544 -0.18543 h 0.18543 0.18544 v 0.18543 0.18544 z m -4.07956,-0.37087 h -0.18544 v -0.18544 -0.18543 h 0.18544 0.18544 v 0.18543 0.18544 z m 3.33782,0 h -0.18543 v -0.18544 -0.18543 h 0.18543 0.18544 v 0.18543 0.18544 z m -4.07956,-0.38223 h -0.37087 l -0.5563,-0.35951 -0.55631,-0.35951 h 0.37087 0.37087 l 0.5563,0.35951 0.55631,0.35951 z m 58.41192,-0.53577 -0.92717,0.18448 0.5563,-0.24043 0.55631,-0.24043 0.95808,-0.48298 0.95808,-0.48298 v 0.53387 0.53386 l -0.58721,0.005 -0.58721,0.005 -0.92718,0.18448 z m 2.78153,-0.56548 h -0.18544 v -0.18543 -0.18544 h 0.18544 0.18543 v 0.18544 0.18543 z m -62.30606,-1.48348 h -0.18543 v -0.18543 -0.18544 h 0.18543 0.18544 v 0.18544 0.18543 z m 5.74848,0 h -0.49449 l 0.24724,-0.24724 0.24725,-0.24725 0.24724,0.24725 0.24725,0.24724 z m -6.49022,-0.37087 h -0.18543 v -0.18543 -0.18544 h 0.18543 0.18544 v 0.18544 0.18543 z m 5.56304,0 h -0.18543 v -0.18543 -0.18544 h 0.18543 0.18544 v 0.18544 0.18543 z m -6.30477,-0.37087 h -0.18544 v -0.18543 -0.18543 h 0.18544 0.18543 v 0.18543 0.18543 z m 5.56304,-0.0113 h -0.37087 l -0.55631,-0.35953 -0.5563,-0.35951 h 0.37087 0.37087 l 0.5563,0.35951 0.55631,0.35951 h -0.37087 z m -1.85435,-0.7304 h -0.18543 v -0.18543 -0.18543 h 0.18543 0.18544 v 0.18543 0.18543 z m -1.11261,-0.37086 h -0.18544 v -0.18544 -0.18543 h 0.18544 0.18543 v 0.18543 0.18544 z m 35.60346,-0.37087 h -0.18543 v -0.18544 -0.18543 h 0.18543 0.18543 v 0.18543 0.18544 z m -30.22585,-0.77349 -0.55631,0.0204 -0.5563,-0.35951 -0.55631,-0.35952 0.37087,0.0204 0.37088,0.0204 0.74173,0.31873 0.74174,0.31874 -0.5563,0.0204 z m 53.21975,-0.70999 h -0.18544 v -0.18544 -0.18543 h 0.18544 0.18543 v 0.18543 0.18544 z m -55.6304,-0.37087 h -0.18544 v -0.18544 -0.18543 h 0.18544 0.18543 v 0.18543 0.18544 z m 4.45043,0 h -0.18544 v -0.18544 -0.18543 h 0.18544 0.18543 v 0.18543 0.18544 z m 51.92171,0 h -0.18544 v -0.18544 -0.18543 h 0.18544 0.18543 v 0.18543 0.18544 z m -44.81771,-0.37087 h -0.12796 l -0.7065,-0.83446 -0.7065,-0.83445 0.83446,0.7065 0.83445,0.7065 v 0.12796 0.12795 z m 45.90842,0 h -0.57818 l 0.23295,-0.37692 0.23294,-0.37692 0.34525,0.21337 0.34524,0.21338 v 0.16354 0.16355 z m -58.57546,-0.37087 h -0.18544 v -0.18543 -0.18544 h 0.18544 0.18543 v 0.18544 0.18543 z m 5.27198,-0.14162 -0.17361,0.17361 -0.23125,-0.60263 -0.23125,-0.60263 0.0113,-0.24782 0.0113,-0.24782 0.39358,0.67684 0.39359,0.67683 -0.17362,0.17362 z m 45.53712,0.14162 h -0.18544 v -0.18543 -0.18544 h 0.18544 0.18543 v 0.18544 0.18543 z m -44.11156,-0.74174 h -0.16355 l -0.26463,-0.42817 -0.26462,-0.42817 0.42817,0.26462 0.42817,0.26463 v 0.16354 0.16355 z m 44.44865,0 h -0.12838 l 0.21347,-0.5563 0.21348,-0.55631 h 0.3766 0.3766 l -0.46168,0.55631 -0.46171,0.5563 z m -12.51396,-0.49449 -0.24726,0.24725 v -0.4945 -0.49449 l 0.24726,0.24725 0.24724,0.24724 z m -29.3605,-0.24725 h -0.18543 v -0.18543 -0.18544 h 0.18543 0.18544 v 0.18544 0.18543 z m -9.27173,-0.37087 h -0.18544 v -0.18543 -0.18544 h 0.18544 0.18543 v 0.18544 0.18543 z m 4.45043,0 h -0.18543 v -0.18543 -0.18544 h 0.18543 0.18544 v 0.18544 0.18543 z m 34.55266,-0.49449 -0.24724,0.24725 v -0.49449 -0.4945 l 0.24724,0.24725 0.24725,0.24725 z m 1.0508,0.12362 h -0.18544 v -0.18543 -0.18543 h 0.18544 0.18544 v 0.18543 0.18543 z m 12.00784,0 h -0.32545 v -0.32761 -0.32761 l 0.76293,-0.19952 0.76293,-0.19951 -0.43747,0.52713 -0.43748,0.52712 z M 234.7482,135.9139 h -0.16355 l -0.26462,-0.42818 -0.26463,-0.42817 0.42818,0.26463 0.42817,0.26462 v 0.16355 0.16355 z m 1.17053,-0.14163 -0.17361,0.17361 -0.23125,-0.60263 -0.23125,-0.60263 0.0113,-0.24782 0.0113,-0.24782 0.39359,0.67684 0.39359,0.67684 -0.17362,0.17361 z m 31.41799,-0.22924 h -0.18544 l 0.39697,-0.74174 0.39697,-0.74174 h 0.18543 0.18544 l -0.39697,0.74174 -0.39696,0.74174 z m -39.61151,-0.37087 h -0.14003 l -0.50899,-0.64903 -0.509,-0.64902 0.64902,0.509 0.64902,0.509 v 0.14002 0.14003 z m 38.525,-0.37087 h -0.18543 v -0.18544 -0.18543 h 0.18543 0.18543 v 0.18543 0.18544 z m 12.98042,0 h -0.18543 v -0.18544 -0.18543 h 0.18543 0.18544 v 0.18543 0.18544 z m -44.13344,-0.74174 h -0.18544 v -0.18544 -0.18543 h 0.18544 0.18543 v 0.18543 0.18544 z m 33.77354,-0.92718 -0.61235,0.74174 0.91027,-1.87018 0.91027,-1.87019 0.62721,-2.1575 0.6272,-2.15751 -0.21804,-1.0902 -0.21804,-1.0902 0.33361,0.20618 0.3336,0.20619 0.20657,-0.4659 0.20656,-0.4659 -0.16822,1.85435 -0.16822,1.85435 1.00408,-2.1325 1.00408,-2.1325 h 0.29354 0.29354 l -0.93966,1.85434 -0.93967,1.85435 h 0.34618 0.34619 l 0.76092,-1.01989 0.76092,-1.01989 0.0117,0.28644 0.0118,0.28644 -1.5251,1.65453 -1.52509,1.65453 -1.03075,2.13859 -1.03075,2.1386 -0.61235,0.74174 z m -38.59485,0.18544 h -0.18543 v -0.18544 -0.18543 h 0.18543 0.18544 v 0.18543 0.18544 z m 1.54529,-0.49449 -0.24724,0.24724 v -0.49449 -0.49449 l 0.24724,0.24724 0.24724,0.24725 z m 40.73382,-1.35986 h -0.18544 v -0.18543 -0.18544 h 0.18544 0.18543 v 0.18544 0.18543 z m 2.48328,-1.80725 -1.35486,1.25095 0.66253,-0.79461 0.66253,-0.7946 0.25674,-0.92732 0.25673,-0.92732 0.43559,0.47098 0.4356,0.47098 z m -43.2335,0.69464 h -0.14002 l -0.509,-0.64902 -0.509,-0.64902 0.64902,0.509 0.64902,0.509 v 0.14002 0.14002 z m 41.12109,0 h -0.18544 v -0.18543 -0.18543 h 0.18544 0.18543 v 0.18543 0.18543 z m 0.43268,-0.86536 -0.24725,0.24725 v -0.49449 -0.4945 l 0.24725,0.24725 0.24725,0.24725 z m -4.18515,-0.98898 h -0.18543 l 0.22921,-0.37087 0.2292,-0.37087 h 0.18544 0.18543 l -0.22921,0.37087 -0.22921,0.37087 z m 4.55602,-0.12363 -0.24725,0.24725 v -0.49449 -0.49449 l 0.24725,0.24724 0.24724,0.24725 z m 3.97398,-0.98898 h -0.18544 l 0.22921,-0.37087 0.22921,-0.37087 h 0.18544 0.18543 l -0.22921,0.37087 -0.22921,0.37087 z m -14.79101,-2.22522 h -0.18543 v -0.18543 -0.18544 h 0.18543 0.18544 v 0.18544 0.18543 z m 11.82405,-1.11261 h -0.18544 l 0.22921,-0.37086 0.22921,-0.37087 h 0.18544 0.18543 l -0.2292,0.37087 -0.22921,0.37086 z m -41.4936,-0.37086 h -0.18543 v -0.18544 -0.18543 h 0.18543 0.18544 v 0.18543 0.18544 z m 3.39964,-0.12363 -0.24724,0.24725 v -0.49449 -0.4945 l 0.24724,0.24725 0.24725,0.24725 z m 31.83296,0.12363 h -0.18544 v -0.18544 -0.18543 h 0.18544 0.18543 v 0.18543 0.18544 z m -0.70311,-0.47132 -0.22407,0.22407 0.0293,-0.71083 0.0293,-0.71084 0.1948,0.48677 0.19479,0.48677 -0.22407,0.22406 z M 232.5011,122.5626 h -0.18544 v -0.18544 -0.18543 h 0.18544 0.18543 v 0.18543 0.18544 z m 6.67565,0 h -0.18544 v -0.18544 -0.18543 h 0.18544 0.18543 v 0.18543 0.18544 z m 22.94638,-0.0309 -0.13791,0.15453 v -1.91615 -1.91616 h 0.39359 0.39359 l -0.25568,1.76163 -0.25568,1.76163 z m 2.68684,0.0309 h -0.1422 l -0.17893,-0.93603 -0.17894,-0.93602 0.32113,-0.19847 0.32113,-0.19847 v 1.13449 1.1345 z m 7.37415,-0.37087 h -0.18544 v -0.18544 -0.18543 h 0.18544 0.18543 v 0.18543 0.18544 z m 2.59608,0 h -0.18543 v -0.18544 -0.18543 h 0.18543 0.18544 v 0.18543 0.18544 z m -37.8995,-0.37655 -0.30004,-0.006 -0.5563,-0.35951 -0.55631,-0.35951 0.62714,-0.006 0.62713,-0.006 0.22921,0.37087 0.22921,0.37087 -0.30004,-0.006 z m 6.06655,-0.11794 -0.24724,0.24724 v -0.49449 -0.49449 l 0.24724,0.24724 0.24725,0.24725 z m 4.43071,0.12362 h -0.14333 l -0.18442,-1.20533 -0.18441,-1.20532 0.31648,-0.55631 0.31647,-0.5563 0.0113,1.76163 0.0113,1.76163 z m -8.57208,-0.37087 h -0.18544 v -0.18544 -0.18543 h 0.18544 0.18543 v 0.18543 0.18544 z m 1.48347,0 h -0.18543 v -0.18544 -0.18543 h 0.18543 0.18544 v 0.18543 0.18544 z m 27.81521,0 h -0.18544 v -0.18544 -0.18543 h 0.18544 0.18543 v 0.18543 0.18544 z m 1.11261,0 h -0.18544 v -0.18544 -0.18543 h 0.18544 0.18543 v 0.18543 0.18544 z m -31.89477,-0.74174 h -0.18543 v -0.18543 -0.18544 h 0.18543 0.18544 v 0.18544 0.18543 z m 2.59608,0 h -0.18543 v -0.18543 -0.18544 h 0.18543 0.18544 v 0.18544 0.18543 z m 2.6759,-0.14162 -0.17361,0.17361 -0.23125,-0.60263 -0.23125,-0.60263 0.0113,-0.24782 0.0113,-0.24782 0.39358,0.67684 0.39359,0.67683 -0.17361,0.17362 z m -4.15937,-0.22925 h -0.18544 v -0.18543 -0.18544 h 0.18544 0.18543 v 0.18544 0.18543 z m 1.11261,-0.37087 h -0.18544 v -0.18543 -0.18544 h 0.18544 0.18543 v 0.18544 0.18543 z m 5.19216,0 h -0.18543 v -0.18543 -0.18544 h 0.18543 0.18544 v 0.18544 0.18543 z m 1.17443,-0.12362 -0.24725,0.24725 v -0.4945 -0.49449 l 0.24725,0.24725 0.24724,0.24724 z m 14.47231,-0.33997 -0.16961,0.64903 v -1.29805 -1.29804 l 0.16961,0.64902 0.16961,0.64902 z m -20.46804,-0.27815 h -0.18543 v -0.18543 -0.18544 h 0.18543 0.18544 v 0.18544 0.18543 z m 4.56425,-0.17562 -0.20761,0.20761 -0.25323,-0.66501 -0.25322,-0.66502 0.46084,0.45741 0.46083,0.4574 z m -2.7099,-0.19525 h -0.18543 v -0.18543 -0.18544 h 0.18543 0.18544 v 0.18544 0.18543 z m 4.82131,0 h -0.18544 v -0.18543 -0.18544 h 0.18544 0.18543 v 0.18544 0.18543 z m 9.33354,-0.49449 -0.24724,0.24725 v -0.49449 -0.4945 l 0.24724,0.24725 0.24725,0.24725 z m -9.87124,-0.44418 -0.35226,0.21771 -0.37212,-0.69531 -0.37212,-0.69531 0.31751,-0.33497 0.31752,-0.33497 0.20202,-0.74174 0.20203,-0.74173 -0.18793,1.66891 -0.18792,1.66891 0.38708,-0.5563 0.38709,-0.55631 0.006,0.4417 0.006,0.4417 -0.35226,0.21771 z m 0.90856,0.19694 h -0.18543 v -0.18544 -0.18543 h 0.18543 0.18544 v 0.18543 0.18544 z m 1.85435,0 h -0.18543 v -0.5109 -0.51089 l -0.55631,-0.46169 -0.5563,-0.46169 v -0.38221 -0.3822 l 0.74173,0.85523 0.74175,0.85523 v 0.49956 0.49956 z m 3.82378,-0.68087 -0.13029,0.8663 -0.25584,-0.91098 -0.25584,-0.91098 0.17073,-0.17072 0.17072,-0.17072 0.2154,0.2154 0.21541,0.2154 z m -8.64508,0.31 h -0.18544 v -0.18544 -0.18543 h 0.18544 0.18543 v 0.18543 0.18544 z m 18.91434,0 h -0.18544 v -0.18544 -0.18543 h 0.18544 0.18544 v 0.18543 0.18544 z m -20.02695,-0.37087 h -0.18543 v -0.18544 -0.18543 h 0.18543 0.18544 v 0.18543 0.18544 z m 11.16472,-0.10045 -0.22407,0.22407 0.0293,-0.71083 0.0293,-0.71084 0.19479,0.48677 0.19479,0.48676 -0.22407,0.22407 z m -9.24856,-1.50665 -0.24725,0.24724 v -0.49449 -0.49449 l 0.24725,0.24724 0.24724,0.24725 z m 6.98471,0.12362 h -0.18544 v -0.18544 -0.18543 h 0.18544 0.18543 v 0.18543 0.18544 z m -2.22522,-0.37087 h -0.18544 v -0.18544 -0.18543 h 0.18544 0.18543 v 0.18543 0.18544 z m 1.17442,-0.12362 -0.24724,0.24724 v -0.49449 -0.49449 l 0.24724,0.24724 0.24725,0.24725 z m -3.39964,-0.24725 h -0.18543 v -0.18543 -0.18544 h 0.18543 0.18544 v 0.18544 0.18543 z m 4.07957,-0.37087 H 251.23 v -0.18543 -0.18544 h 0.18544 0.18543 v 0.18544 0.18543 z m -2.22522,-0.37087 h -0.18543 v -0.18543 -0.18544 h 0.18543 0.18543 v 0.18544 0.18543 z"
         id="path16017"
         inkscape:connector-curvature="0" />
      <g
         aria-label="Apache Directory"
         style="font-style:normal;font-variant:normal;font-weight:normal;font-stretch:normal;font-size:21.34285927px;line-height:125%;font-family:Montserrat;-inkscape-font-specification:Montserrat;letter-spacing:0px;word-spacing:0px;fill:#000000;fill-opacity:1;stroke:none;stroke-width:0.77610391px;stroke-linecap:butt;stroke-linejoin:miter;stroke-opacity:1"
         id="text890"
         transform="matrix(0.40359875,0,0,0.40359875,128.22884,117.84877)">
        <path
           d="m 229.55719,193.07512 -1.38729,-3.22277 h -6.25346 l -1.38728,3.22277 h -3.54292 l 6.44555,-14.91866 h 3.22277 l 6.44554,14.91866 z m -4.50335,-10.47934 -1.87817,4.3326 h 3.735 z"
           style="font-style:normal;font-variant:normal;font-weight:bold;font-stretch:normal;font-family:Montserrat;-inkscape-font-specification:'Montserrat Bold';stroke-width:0.77610391px"
           id="path1756"
           inkscape:connector-curvature="0" />
        <path
           d="m 241.1707,181.40057 q 2.00623,0 3.56426,1.68609 1.57937,1.66474 1.57937,4.20454 0,2.5398 -1.57937,4.24723 -1.55803,1.70743 -3.67097,1.70743 -2.0916,0 -3.37217,-1.68608 v 5.65585 h -3.20143 v -15.62297 h 3.20143 v 1.28057 q 1.47265,-1.47266 3.47888,-1.47266 z m -3.52157,5.95466 q 0,1.38729 0.76834,2.28369 0.78969,0.87506 1.89952,0.87506 1.10983,0 1.9422,-0.87506 0.83237,-0.8964 0.83237,-2.28369 0,-1.38728 -0.81103,-2.32637 -0.81103,-0.93908 -1.9422,-0.93908 -1.13117,0 -1.92086,0.93908 -0.76834,0.91774 -0.76834,2.32637 z"
           style="font-style:normal;font-variant:normal;font-weight:bold;font-stretch:normal;font-family:Montserrat;-inkscape-font-specification:'Montserrat Bold';stroke-width:0.77610391px"
           id="path1758"
           inkscape:connector-curvature="0" />
        <path
           d="m 258.45875,193.07512 h -3.00934 v -1.38729 q -1.23789,1.55803 -3.07337,1.55803 -1.81414,0 -3.05203,-1.0458 -1.23789,-1.06714 -1.23789,-2.81726 0,-1.77145 1.28058,-2.64651 1.28057,-0.87506 3.50022,-0.87506 h 2.3904 v -0.064 q 0,-1.83548 -1.9422,-1.83548 -0.83237,0 -1.77145,0.34148 -0.91775,0.32015 -1.55803,0.81103 l -1.42997,-2.07025 q 2.26234,-1.64341 5.16497,-1.64341 2.0916,0 3.41486,1.04581 1.32325,1.0458 1.32325,3.30814 z m -3.22277,-4.37529 v -0.55491 h -2.00623 q -1.92085,0 -1.92085,1.1952 0,0.61894 0.4482,0.96043 0.46954,0.32014 1.32325,0.32014 0.85372,0 1.494,-0.51223 0.66163,-0.53357 0.66163,-1.40863 z"
           style="font-style:normal;font-variant:normal;font-weight:bold;font-stretch:normal;font-family:Montserrat;-inkscape-font-specification:'Montserrat Bold';stroke-width:0.77610391px"
           id="path1760"
           inkscape:connector-curvature="0" />
        <path
           d="m 266.88385,190.40726 q 1.60071,0 2.88128,-1.60071 l 1.89952,2.13428 q -2.21966,2.30503 -4.80215,2.30503 -2.58248,0 -4.37528,-1.62206 -1.77146,-1.6434 -1.77146,-4.26857 0,-2.64651 1.7928,-4.28991 1.81414,-1.66475 4.28991,-1.66475 1.23789,0 2.49712,0.51223 1.28057,0.51223 2.241,1.51535 l -1.66474,2.17697 q -0.55492,-0.66163 -1.36595,-1.02446 -0.78968,-0.36283 -1.57937,-0.36283 -1.25923,0 -2.17697,0.83237 -0.8964,0.81103 -0.8964,2.28369 0,1.45131 0.8964,2.26234 0.91774,0.81103 2.13429,0.81103 z"
           style="font-style:normal;font-variant:normal;font-weight:bold;font-stretch:normal;font-family:Montserrat;-inkscape-font-specification:'Montserrat Bold';stroke-width:0.77610391px"
           id="path1762"
           inkscape:connector-curvature="0" />
        <path
           d="m 277.00103,186.88569 v 6.18943 h -3.20143 v -15.8364 h 3.20143 v 5.63451 q 1.45131,-1.47266 3.24411,-1.47266 1.81415,0 3.05203,1.28058 1.23789,1.28057 1.23789,3.41485 v 6.97912 h -3.20143 v -6.2748 q 0,-2.64652 -1.9422,-2.64652 -0.96043,0 -1.68609,0.70432 -0.70431,0.68297 -0.70431,2.02757 z"
           style="font-style:normal;font-variant:normal;font-weight:bold;font-stretch:normal;font-family:Montserrat;-inkscape-font-specification:'Montserrat Bold';stroke-width:0.77610391px"
           id="path1764"
           inkscape:connector-curvature="0" />
        <path
           d="m 297.37645,191.41038 q -1.9422,1.83548 -4.56737,1.83548 -2.60383,0 -4.31126,-1.60071 -1.70743,-1.62206 -1.70743,-4.3326 0,-2.71055 1.72878,-4.31126 1.75011,-1.60072 4.11917,-1.60072 2.36905,0 4.01245,1.42998 1.66475,1.42997 1.66475,3.92708 v 1.70743 h -8.3664 q 0.1494,0.93909 0.98177,1.53669 0.83237,0.5976 1.87817,0.5976 1.68609,0 2.77457,-1.13117 z m -2.30503,-5.229 q -0.10671,-1.02446 -0.76834,-1.57938 -0.66163,-0.55491 -1.62206,-0.55491 -0.93908,0 -1.72877,0.57626 -0.78968,0.57625 -0.91774,1.55803 z"
           style="font-style:normal;font-variant:normal;font-weight:bold;font-stretch:normal;font-family:Montserrat;-inkscape-font-specification:'Montserrat Bold';stroke-width:0.77610391px"
           id="path1766"
           inkscape:connector-curvature="0" />
        <path
           d="m 311.82257,178.15646 q 3.99112,0 6.1254,1.96354 2.13429,1.9422 2.13429,5.42109 0,3.47889 -2.0916,5.50646 -2.07026,2.02757 -6.33883,2.02757 h -5.10094 v -14.91866 z m 0.17075,11.97334 q 2.28368,0 3.50022,-1.15251 1.23789,-1.15251 1.23789,-3.35083 0,-2.19831 -1.23789,-3.37217 -1.21654,-1.1952 -3.75634,-1.1952 h -1.85683 v 9.07071 z"
           style="font-style:normal;font-variant:normal;font-weight:bold;font-stretch:normal;font-family:Montserrat;-inkscape-font-specification:'Montserrat Bold';stroke-width:0.77610391px"
           id="path1768"
           inkscape:connector-curvature="0" />
        <path
           d="m 325.73111,193.07512 h -3.20143 v -11.48246 h 3.20143 z m -2.94532,-12.93377 q -0.53357,-0.55492 -0.53357,-1.3446 0,-0.78969 0.53357,-1.32326 0.55492,-0.55492 1.3446,-0.55492 0.78969,0 1.32326,0.55492 0.55491,0.53357 0.55491,1.32326 0,0.78968 -0.55491,1.3446 -0.53357,0.53357 -1.32326,0.53357 -0.78968,0 -1.3446,-0.53357 z"
           style="font-style:normal;font-variant:normal;font-weight:bold;font-stretch:normal;font-family:Montserrat;-inkscape-font-specification:'Montserrat Bold';stroke-width:0.77610391px"
           id="path1770"
           inkscape:connector-curvature="0" />
        <path
           d="m 334.8225,184.40992 q -1.42997,0 -2.13429,1.02446 -0.70431,1.00311 -0.70431,2.66785 v 4.97289 h -3.20143 v -11.48246 h 3.20143 v 1.51534 q 0.61894,-0.70431 1.53669,-1.1952 0.93908,-0.49088 1.89951,-0.51223 l 0.0213,3.00935 z"
           style="font-style:normal;font-variant:normal;font-weight:bold;font-stretch:normal;font-family:Montserrat;-inkscape-font-specification:'Montserrat Bold';stroke-width:0.77610391px"
           id="path1772"
           inkscape:connector-curvature="0" />
        <path
           d="m 347.48215,191.41038 q -1.9422,1.83548 -4.56737,1.83548 -2.60383,0 -4.31126,-1.60071 -1.70743,-1.62206 -1.70743,-4.3326 0,-2.71055 1.72877,-4.31126 1.75012,-1.60072 4.11917,-1.60072 2.36906,0 4.01246,1.42998 1.66475,1.42997 1.66475,3.92708 v 1.70743 h -8.36641 q 0.1494,0.93909 0.98178,1.53669 0.83237,0.5976 1.87817,0.5976 1.68608,0 2.77457,-1.13117 z m -2.30503,-5.229 q -0.10671,-1.02446 -0.76834,-1.57938 -0.66163,-0.55491 -1.62206,-0.55491 -0.93909,0 -1.72877,0.57626 -0.78969,0.57625 -0.91774,1.55803 z"
           style="font-style:normal;font-variant:normal;font-weight:bold;font-stretch:normal;font-family:Montserrat;-inkscape-font-specification:'Montserrat Bold';stroke-width:0.77610391px"
           id="path1774"
           inkscape:connector-curvature="0" />
        <path
           d="m 356.21539,190.40726 q 1.60071,0 2.88128,-1.60071 l 1.89952,2.13428 q -2.21966,2.30503 -4.80214,2.30503 -2.58249,0 -4.37529,-1.62206 -1.77146,-1.6434 -1.77146,-4.26857 0,-2.64651 1.7928,-4.28991 1.81415,-1.66475 4.28992,-1.66475 1.23788,0 2.49711,0.51223 1.28057,0.51223 2.241,1.51535 l -1.66474,2.17697 q -0.55492,-0.66163 -1.36594,-1.02446 -0.78969,-0.36283 -1.57938,-0.36283 -1.25922,0 -2.17697,0.83237 -0.8964,0.81103 -0.8964,2.28369 0,1.45131 0.8964,2.26234 0.91775,0.81103 2.13429,0.81103 z"
           style="font-style:normal;font-variant:normal;font-weight:bold;font-stretch:normal;font-family:Montserrat;-inkscape-font-specification:'Montserrat Bold';stroke-width:0.77610391px"
           id="path1776"
           inkscape:connector-curvature="0" />
        <path
           d="m 366.95151,183.89769 v 5.14363 q 0,0.66163 0.34149,1.0458 0.34149,0.36283 0.81103,0.36283 0.8964,0 1.51534,-0.81103 l 1.1952,2.241 q -1.494,1.36594 -3.15874,1.36594 -1.6434,0 -2.79592,-1.08848 -1.13117,-1.08849 -1.13117,-2.96666 v -5.29303 h -1.3446 v -2.30503 h 1.3446 v -3.4362 h 3.22277 v 3.4362 h 2.77458 v 2.30503 z"
           style="font-style:normal;font-variant:normal;font-weight:bold;font-stretch:normal;font-family:Montserrat;-inkscape-font-specification:'Montserrat Bold';stroke-width:0.77610391px"
           id="path1778"
           inkscape:connector-curvature="0" />
        <path
           d="m 374.9464,187.33389 q 0,1.40863 0.78969,2.30503 0.81103,0.87506 2.04892,0.87506 1.25922,0 2.04891,-0.87506 0.81103,-0.8964 0.81103,-2.30503 0,-1.40863 -0.81103,-2.30503 -0.78969,-0.8964 -2.04891,-0.8964 -1.23789,0 -2.04892,0.8964 -0.78969,0.8964 -0.78969,2.30503 z m 8.92132,0 q 0,2.49711 -1.72877,4.20454 -1.72877,1.70743 -4.35394,1.70743 -2.60383,0 -4.33261,-1.70743 -1.72877,-1.70743 -1.72877,-4.20454 0,-2.49711 1.72877,-4.20454 1.72878,-1.72878 4.33261,-1.72878 2.62517,0 4.35394,1.72878 1.72877,1.70743 1.72877,4.20454 z"
           style="font-style:normal;font-variant:normal;font-weight:bold;font-stretch:normal;font-family:Montserrat;-inkscape-font-specification:'Montserrat Bold';stroke-width:0.77610391px"
           id="path1780"
           inkscape:connector-curvature="0" />
        <path
           d="m 392.2648,184.40992 q -1.42997,0 -2.13429,1.02446 -0.70431,1.00311 -0.70431,2.66785 v 4.97289 h -3.20143 v -11.48246 h 3.20143 v 1.51534 q 0.61894,-0.70431 1.53668,-1.1952 0.93909,-0.49088 1.89952,-0.51223 l 0.0213,3.00935 z"
           style="font-style:normal;font-variant:normal;font-weight:bold;font-stretch:normal;font-family:Montserrat;-inkscape-font-specification:'Montserrat Bold';stroke-width:0.77610391px"
           id="path1782"
           inkscape:connector-curvature="0" />
        <path
           d="m 396.96358,197.59981 q -1.68609,0 -3.18009,-1.36595 l 1.45132,-2.36906 q 0.81102,0.78969 1.66474,0.78969 0.4482,0 0.76834,-0.4482 0.32014,-0.42686 0.32014,-0.91774 0,-0.49089 -4.43931,-11.69589 h 3.41486 l 2.79591,7.14986 2.79592,-7.14986 h 3.41485 l -5.33571,13.53137 q -0.46954,1.17386 -1.47266,1.81415 -0.98177,0.66163 -2.19831,0.66163 z"
           style="font-style:normal;font-variant:normal;font-weight:bold;font-stretch:normal;font-family:Montserrat;-inkscape-font-specification:'Montserrat Bold';stroke-width:0.77610391px"
           id="path1784"
           inkscape:connector-curvature="0" />
      </g>
    </g>
  </g>
</svg>
