<svg xmlns="http://www.w3.org/2000/svg" viewBox="0 0 48 48"><defs><linearGradient gradientUnits="userSpaceOnUse" y2="-314.9" x2="488.29" y1="1133.61" x1="506.06" id="0"><stop stop-color="#0c7eed"/><stop offset="1" stop-color="#0bb6ff"/></linearGradient></defs><g transform="matrix(.03284 0 0 .03284 8.696 10.996)" fill="#fff" fill-opacity=".873"><g fill-rule="evenodd"><rect y="-334.89" x="-240.41" height="1461.84" width="1412.96" fill="url(#0)" fill-opacity="1" rx="90.81" stroke-width="14.552"/><g fill="#fcfcfc" fill-opacity=".85" transform="matrix(14.55151 0 0 14.55151 2310.04 64.12)"><circle r="3.5" cy="-17.745" cx="-164.03"/><circle r="3.5" cy="-17.745" cx="-154.79"/><circle r="3.5" cy="-17.745" cx="-145.46"/></g></g><g fill="#fff" fill-opacity=".873"><path d="m466.07 161.53c-205.6 0-382.8 121.2-464.2 296.1-2.5 5.3-2.5 11.5 0 16.9 81.4 174.9 258.6 296.1 464.2 296.1 205.6 0 382.8-121.2 464.2-296.1 2.5-5.3 2.5-11.5 0-16.9-81.4-174.9-258.6-296.1-464.2-296.1m0 514.7c-116.1 0-210.1-94.1-210.1-210.1 0-116.1 94.1-210.1 210.1-210.1 116.1 0 210.1 94.1 210.1 210.1 0 116-94.1 210.1-210.1 210.1"/><circle r="134.5" cy="466.02" cx="466.08"/></g></g></svg>
