<?xml version="1.0" encoding="UTF-8" standalone="no"?>
<svg height="48" width="48" xmlns="http://www.w3.org/2000/svg" xmlns:xlink="http://www.w3.org/1999/xlink">
  <defs>
    <linearGradient id="a" gradientUnits="userSpaceOnUse" x1="16" x2="7" y1="20" y2="7">
      <stop offset="0" stop-color="#bf4231"/>
      <stop offset="1" stop-color="#f58273"/>
    </linearGradient>
    <linearGradient id="b" gradientUnits="userSpaceOnUse" x1="39" x2="30" y1="20" y2="7">
      <stop offset="0" stop-color="#ffa92d"/>
      <stop offset="1" stop-color="#ffc169"/>
    </linearGradient>
    <linearGradient id="c" gradientUnits="userSpaceOnUse" x1="17" x2="10" y1="40.124" y2="28">
      <stop offset="0" stop-color="#3bb566"/>
      <stop offset="1" stop-color="#7ceca4"/>
    </linearGradient>
    <linearGradient id="d" gradientUnits="userSpaceOnUse" x1="38" x2="30" y1="42" y2="29">
      <stop offset="0" stop-color="#3b85b5"/>
      <stop offset="1" stop-color="#7cbcec"/>
    </linearGradient>
  </defs>
  <g>
    <path d="m12.999074 4.0000048c-.242518 0-.484965.092118-.670794.2779369l-8.0495305 8.0509083c-.3716597.371638-.3716597.969871 0 1.341509l8.0495305 8.050908c.371659.371638.971781.371638 1.34344 0l8.04953-8.050908c.371661-.371638.371661-.969871 0-1.341509l-8.04953-8.0509083c-.185829-.1858189-.430129-.2779369-.672646-.2779369z" fill="url(#a)"/>
    <path d="m34.999074 4.0000048c-.242518 0-.484965.092118-.670794.2779369l-8.049531 8.0509083c-.371659.371638-.371659.969871 0 1.341509l8.049531 8.050908c.371659.371638.971781.371638 1.34344 0l8.04953-8.050908c.371661-.371638.371661-.969871 0-1.341509l-8.04953-8.0509083c-.185829-.1858189-.430129-.2779369-.672646-.2779369z" fill="url(#b)"/>
    <path d="m12.999074 26.000005c-.242518 0-.484965.09212-.670794.277937l-8.0495305 8.050908c-.3716597.371638-.3716597.969871 0 1.341509l8.0495305 8.050908c.371659.371638.971781.371638 1.34344 0l8.04953-8.050908c.371661-.371638.371661-.969871 0-1.341509l-8.04953-8.050908c-.185829-.185819-.430129-.277937-.672646-.277937z" fill="url(#c)"/>
    <path d="m34.999074 26.000005c-.242518 0-.484965.09212-.670794.277937l-8.049531 8.050908c-.371659.371638-.371659.969871 0 1.341509l8.049531 8.050908c.371659.371638.971781.371638 1.34344 0l8.04953-8.050908c.371661-.371638.371661-.969871 0-1.341509l-8.04953-8.050908c-.185829-.185819-.430129-.277937-.672646-.277937z" fill="url(#d)"/>
    <path d="m4.1660156 12.5c-.2334979.367121-.2077215.848938.1132813 1.169922l8.0488281 8.050781c.371659.371638.972091.371638 1.34375 0l8.048828-8.050781c.321004-.320984.34678-.802801.113281-1.169922-.036665.057429-.063024.119668-.113281.169922l-8.048828 8.050781c-.371659.371638-.972091.371638-1.34375 0l-8.0488281-8.050781c-.0502566-.050254-.0766163-.112493-.1132813-.169922zm22.0000004 0c-.233498.367121-.207721.848938.113281 1.169922l8.048828 8.050781c.371659.371638.972091.371638 1.34375 0l8.048828-8.050781c.321004-.320984.34678-.802801.113281-1.169922-.036665.057429-.063024.119668-.113281.169922l-8.048828 8.050781c-.371659.371638-.972091.371638-1.34375 0l-8.048828-8.050781c-.050257-.050254-.076616-.112493-.113281-.169922zm-22.0000004 22c-.2334979.367121-.2077215.848938.1132813 1.169922l8.0488281 8.050781c.371659.371638.972091.371638 1.34375 0l8.048828-8.050781c.321004-.320984.34678-.802801.113281-1.169922-.036665.057429-.063024.119668-.113281.169922l-8.048828 8.050781c-.371659.371638-.972091.371638-1.34375 0l-8.0488281-8.050781c-.0502566-.050254-.0766163-.112493-.1132813-.169922zm22.0000004 0c-.233498.367121-.207721.848938.113281 1.169922l8.048828 8.050781c.371659.371638.972091.371638 1.34375 0l8.048828-8.050781c.321004-.320984.34678-.802801.113281-1.169922-.036665.057429-.063024.119668-.113281.169922l-8.048828 8.050781c-.371659.371638-.972091.371638-1.34375 0l-8.048828-8.050781c-.050257-.050254-.076616-.112493-.113281-.169922z" opacity=".15"/>
  </g>
</svg>
