<svg xmlns="http://www.w3.org/2000/svg" width="100" height="100"><title>LibreCAD Icon</title><path fill="#8ed900" d="M0 0h12.138v12.14H0z"/><path fill="#8ed900" d="M0 87.862h12.138v12.14H0z"/><path fill="#8ed900" d="M87.86 0H100v12.14H87.86z"/><path fill="#8ed900" d="M87.86 87.862H100v12.14H87.86z"/><path d="M50 .032C22.386.032 0 22.386 0 50c0 27.615 22.386 50 50 50s50-22.385 50-50C100 22.386 77.614.032 50 .032zm0 12c20.987 0 38 16.982 38 37.968 0 20.987-17.013 38.032-38 38.032-20.986 0-38-17.045-38-38.032 0-20.986 17.014-37.968 38-37.968z" fill="#8ed900"/><path fill="#4d4d4d" d="M100 56H24v6H0V38h24v6h76z"/></svg>