<svg xmlns="http://www.w3.org/2000/svg" height="800" width="1200" viewBox="-8.9295 -16 77.389 96"><path fill="#0078D7" d="M18.62 38c0 1.54.23 2.94.7 4.2.5 1.24 1.15 2.35 1.98 3.32.83.97 1.8 1.8 2.94 2.5 1.1.7 2.3 1.28 3.58 1.73 1.27.46 2.6.8 3.95 1.02 1.37.22 2.7.33 4.05.33 1.7 0 3.28-.13 4.78-.4 1.5-.28 2.96-.65 4.4-1.12 1.44-.47 2.83-1.03 4.22-1.67 1.4-.64 2.82-1.34 4.28-2.12v13.56c-1.63.8-3.23 1.47-4.83 2.05-1.6.56-3.2 1.05-4.83 1.44-1.63.4-3.28.7-4.97.88-1.69.18-3.42.28-5.22.28-2.4 0-4.72-.28-6.95-.83-2.23-.55-4.32-1.34-6.28-2.38-1.96-1.04-3.75-2.3-5.38-3.78-1.64-1.48-3.03-3.15-4.2-5-1.17-1.85-2.07-3.88-2.72-6.06-.63-2.18-.95-4.5-.95-6.96 0-2.63.36-5.13 1.08-7.52.73-2.4 1.76-4.58 3.12-6.58 1.35-2 3-3.78 4.95-5.33 1.95-1.55 4.14-2.82 6.58-3.8-1.33 1.33-2.37 2.9-3.1 4.73-.75 1.82-1.22 3.65-1.43 5.48h22.78c0-2.3-.23-4.3-.7-6.02-.47-1.72-1.22-3.15-2.27-4.28-1.04-1.14-2.38-2-4.03-2.56-1.65-.57-3.64-.86-5.97-.86-2.75 0-5.5.4-8.25 1.23-2.75.8-5.36 1.95-7.84 3.4-2.48 1.47-4.76 3.2-6.84 5.18-2.08 2-3.83 4.15-5.25 6.48.3-2.7.9-5.3 1.73-7.77.83-2.47 1.93-4.77 3.25-6.9 1.32-2.1 2.87-4.02 4.64-5.74 1.77-1.72 3.73-3.2 5.9-4.4 2.17-1.2 4.47-2.17 6.97-2.82C24.99.34 27.65 0 30.45 0c1.64 0 3.27.15 4.9.44 1.63.3 3.22.7 4.77 1.22 3.08 1.06 5.83 2.54 8.25 4.42 2.42 1.9 4.45 4.06 6.1 6.53 1.65 2.47 2.9 5.2 3.76 8.17.86 2.97 1.3 6.06 1.3 9.27V38z"/></svg>