<svg xmlns="http://www.w3.org/2000/svg" width="546" height="651"><path d="m1.58 159 272 82.6v408l-272-120z" fill="#5b422d"/><path d="M1.5 198l17 7.5V180l17 7.5V213l34 15-.007 25.5 17 7.5-.007-76.5 17 7.48-.03 51 17 7.5.003-25.5 17 7.5.012 51 17 7.5.07-25.5 16.9 7.48v25.5l17 7.5v-25.5l17 7.52-.01-25.5 17 7.5-.008 25.5 34 15-.01-25.5 17 7.5v-51l-272-120z" fill="#64a43a" stroke="#64a43a"/><path d="M1.7 121l272 120 271-120-272-120z" fill="#5a9a30" stroke="#5a9a30"/><path d="m545 172-272 69.2v408l272-120z" fill="#4f3624" stroke="#4f3624"/><path d="M545 122l.154 50.9-17 7.5.073 25.5-34 15-.073-25.5-16.9 7.47.003 25.5-17 7.5-.003 25.5-17 7.5-.003-25.5-17 7.5-.2 25.6-16.8 7.42.003-51-17 7.54.008 25.5-16.3 7.2-.655-50.7-17 7.5-.007 76.5-17 7.5v-25.5l-34 15v-25.5l-17 7.5v25.5l-17 7.5-.004-76.5z" fill="#3b6121" stroke="#3b6121"/></svg>