<?xml version="1.0" encoding="UTF-8" standalone="no"?>
<!-- Generator: Adobe Illustrator 13.0.0, SVG Export Plug-In . SVG Version: 6.00 Build 14948)  -->

<svg
   xmlns:dc="http://purl.org/dc/elements/1.1/"
   xmlns:cc="http://creativecommons.org/ns#"
   xmlns:rdf="http://www.w3.org/1999/02/22-rdf-syntax-ns#"
   xmlns:svg="http://www.w3.org/2000/svg"
   xmlns="http://www.w3.org/2000/svg"
   xmlns:sodipodi="http://sodipodi.sourceforge.net/DTD/sodipodi-0.dtd"
   xmlns:inkscape="http://www.inkscape.org/namespaces/inkscape"
   version="1.1"
   id="Layer_1"
   x="0px"
   y="0px"
   width="250"
   height="250"
   viewBox="0 0 250 250"
   enable-background="new 0 0 187.086 51.168"
   xml:space="preserve"
   inkscape:version="0.91 r13725"
   sodipodi:docname="NetBeans.svg"><metadata
     id="metadata73"><rdf:RDF><cc:Work
         rdf:about=""><dc:format>image/svg+xml</dc:format><dc:type
           rdf:resource="http://purl.org/dc/dcmitype/StillImage" /><dc:title></dc:title></cc:Work></rdf:RDF></metadata><defs
     id="defs71" /><sodipodi:namedview
     pagecolor="#ffffff"
     bordercolor="#666666"
     borderopacity="1"
     objecttolerance="10"
     gridtolerance="10"
     guidetolerance="10"
     inkscape:pageopacity="0"
     inkscape:pageshadow="2"
     inkscape:window-width="1615"
     inkscape:window-height="1026"
     id="namedview69"
     showgrid="false"
     inkscape:zoom="1.7585496"
     inkscape:cx="93.542999"
     inkscape:cy="25.584"
     inkscape:window-x="65"
     inkscape:window-y="24"
     inkscape:window-maximized="1"
     inkscape:current-layer="Layer_1" /><path
     d="m 26.11746,61.089192 c 7.308585,1.810588 36.36168,10.189819 53.810193,15.28005 17.448512,5.09023 30.512857,8.379231 40.657677,11.088094 10.2281,2.793077 9.45414,10.433102 1.45976,9.77343 C 114.05072,96.49156 104.59658,92.383819 95.142442,88.851535 85.683408,85.403465 55.944521,77.103769 40.646456,72.177287 25.436566,67.330339 21.738187,67.330339 19.587739,64.537262 17.432392,61.833077 18.808874,59.283283 26.11746,61.089192 l 0,0 z"
     id="path3"
     inkscape:connector-curvature="0"
     style="clip-rule:evenodd;fill:#a12225;fill-rule:evenodd" /><path
     d="m 135.1927,91.649291 c 6.52973,-0.659671 7.22041,5.586154 5.76066,9.034219 -1.45976,3.45276 -8.68017,4.84695 -10.13993,1.39888 -2.23862,-4.846945 -2.23862,-9.693893 4.37927,-10.433099 l 0,0 z"
     id="path5"
     inkscape:connector-curvature="0"
     style="clip-rule:evenodd;fill:#a12225;fill-rule:evenodd" /><path
     d="m 220.89224,41.621867 c -4.296,3.532283 -17.44852,11.172307 -26.81938,17.413454 -9.45413,6.241148 -26.90264,17.333921 -32.06079,20.126998 -5.06996,2.793076 -11.60458,6.241146 -15.98875,9.693895 -4.29599,3.532283 -2.83624,9.778112 3.69348,7.640025 6.53463,-2.049193 13.06435,-5.501941 17.45342,-9.693896 4.29599,-4.191954 8.68016,-6.980353 13.06433,-9.693895 4.38418,-2.793077 37.82144,-26.447679 44.35607,-30.639634 6.52971,-6.89614 0.68579,-8.295017 -3.69838,-4.846947 l 0,0 z"
     id="path7"
     inkscape:connector-curvature="0"
     style="clip-rule:evenodd;fill:#a12225;fill-rule:evenodd" /><path
     d="m 237.65495,29.8741 c 3.61021,0 5.06996,7.640025 1.45976,9.693895 -3.6102,2.049193 -8.76834,2.049193 -8.76834,-4.846947 0,-6.980354 3.69838,-4.846948 7.30858,-4.846948 l 0,0 z"
     id="path9"
     inkscape:connector-curvature="0"
     style="clip-rule:evenodd;fill:#a12225;fill-rule:evenodd" /><path
     d="m 235.50451,44.414943 c 2.83623,0 4.296,5.586155 3.6102,9.773431 -0.77397,4.107741 0.6907,31.215091 1.45976,40.908986 0.69069,9.77343 0.69069,13.96538 -0.77396,17.41813 -1.45977,3.44808 0,9.03423 0,18.07313 0,9.02955 -1.45977,20.78199 -2.14556,25.70847 -0.77396,4.85163 -1.46465,8.29502 -4.38417,7.64003 -2.92441,-0.73921 -2.92441,-4.18728 -2.92441,-9.76876 0,-5.51129 0,-34.75205 0.77396,-41.64818 0.6907,-6.98504 0.6907,-9.77812 0.6907,-15.280056 0,-5.586155 0,-38.200124 0,-43.7816 0,-5.581475 0.77396,-9.043581 3.69348,-9.043581 l 0,0 z"
     id="path11"
     inkscape:connector-curvature="0"
     style="clip-rule:evenodd;fill:#a12225;fill-rule:evenodd" /><path
     d="m 233.27078,169.44373 c 4.38417,-0.65966 5.84393,6.98036 3.61021,9.03891 -2.14555,2.12873 -7.22041,1.38952 -8.68017,-2.05387 -1.46466,-3.45742 0.68579,-6.24583 5.06996,-6.98504 l 0,0 z"
     id="path13"
     inkscape:connector-curvature="0"
     style="clip-rule:evenodd;fill:#a12225;fill-rule:evenodd" /><path
     d="m 10.643049,54.848045 c 3.953102,-0.575458 5.241412,6.241147 1.974102,8.706728 -3.2673099,2.545115 -7.8229294,0.659671 -7.1371372,-3.120574 0.6074159,-3.696032 1.293208,-4.926482 5.1630352,-5.586154 l 0,0 z"
     id="path15"
     inkscape:connector-curvature="0"
     style="clip-rule:evenodd;fill:#a12225;fill-rule:evenodd" /><path
     d="m 19.842461,49.266569 c 9.11124,-4.355703 28.019509,-15.607545 32.575129,-16.842675 4.555619,-1.23513 12.976168,-6.241147 16.243477,-8.706728 3.26731,-2.46558 13.666859,-8.131269 15.645859,-9.36172 1.974101,-1.23045 11.085341,0 3.267309,5.010696 -7.81803,5.010696 -18.90827,11.172308 -26.731198,15.528012 -7.82293,4.435237 -29.998509,15.607545 -34.55413,17.497668 -4.555619,1.890122 -15.645858,1.225772 -6.446446,-3.125253 l 0,0 z"
     id="path17"
     inkscape:connector-curvature="0"
     style="clip-rule:evenodd;fill:#a12225;fill-rule:evenodd" /><path
     d="m 97.371267,8.1096209 c 1.288309,-0.575458 5.241413,2.5451151 3.267313,5.0106961 -1.979004,2.460902 -4.555623,4.351024 -7.220415,0 -2.576619,-4.355703 2.664792,-4.355703 3.953102,-5.0106961 l 0,0 z"
     id="path19"
     inkscape:connector-curvature="0"
     style="clip-rule:evenodd;fill:#a12225;fill-rule:evenodd" /><path
     d="m 110.44051,8.764614 c 8.42054,0 29.30781,3.120574 35.84244,5.010696 6.44644,1.805909 19.51078,3.696031 22.0923,4.355703 2.66479,0.575458 11.77113,0.575458 13.75013,1.23045 1.89083,0.575459 7.82293,3.120574 19.51079,4.355703 11.77603,1.230452 18.90827,2.465581 22.17558,3.696032 3.26731,1.314665 1.29321,8.790941 -3.9531,7.476277 -5.15814,-1.23513 -26.64792,-3.696032 -31.89423,-4.355703 -5.24142,-0.575458 -15.64097,-4.355703 -21.48979,-4.931161 -5.92721,-0.659672 -20.88727,-3.780245 -33.26582,-5.010696 -12.37855,-1.235129 -20.88727,-3.696032 -24.15458,-4.355703 -3.25752,-0.654993 -7.12245,-7.471598 1.38628,-7.471598 l 0,0 z"
     id="path21"
     inkscape:connector-curvature="0"
     style="clip-rule:evenodd;fill:#a12225;fill-rule:evenodd" /><path
     d="m 8.7522221,75.386752 c 0,-4.351025 7.1371379,-6.241147 7.8229299,-0.575458 0.602517,5.586154 1.288309,14.952553 1.890827,22.424151 0.685792,7.476275 1.376482,14.292885 1.974101,19.303575 0.690691,4.92649 3.953102,17.41346 4.55562,21.1937 0.69069,3.69135 1.288309,11.16763 1.288309,15.52334 0,4.35102 1.376483,10.59217 0.690691,13.71742 -0.690691,3.12525 -3.953102,11.17698 -5.843929,1.89012 -1.979,-9.3664 -0.690691,-21.19838 -1.979,-24.31428 -1.28831,-3.12525 -3.953103,-9.94185 -3.953103,-14.95255 0,-5.0107 -2.576619,-18.07312 -3.179136,-21.19369 C 11.33374,105.28718 8.7522221,79.737777 8.7522221,75.386752 l 0,0 z"
     id="path23"
     inkscape:connector-curvature="0"
     style="clip-rule:evenodd;fill:#a12225;fill-rule:evenodd" /><path
     d="m 23.021598,180.6909 c 0.685792,-2.54044 5.927203,-4.35103 7.82293,-1.23513 1.974101,3.12525 1.376482,8.06109 -3.179137,8.70673 -4.643793,0.58014 -5.246311,-5.00134 -4.643793,-7.4716 l 0,0 z"
     id="path25"
     inkscape:connector-curvature="0"
     style="clip-rule:evenodd;fill:#a12225;fill-rule:evenodd" /><path
     d="m 33.50932,172.55963 c 5.843928,-5.58147 22.778097,-14.29288 32.575128,-22.42415 9.797031,-8.05173 27.333717,-19.30358 30.601027,-22.42415 3.267309,-3.12058 11.776035,-0.57546 4.555615,5.00601 -7.137133,5.59084 -24.066403,17.41814 -31.286815,22.99962 -7.137137,5.67505 -26.643026,18.07313 -30.601027,21.85804 -3.869827,3.69136 -11.687857,0.57546 -5.843928,-5.01537 l 0,0 z"
     id="path27"
     inkscape:connector-curvature="0"
     style="clip-rule:evenodd;fill:#a12225;fill-rule:evenodd" /><path
     d="m 109.74982,117.11448 c 2.57662,0.65499 2.57662,5.66569 0,6.90082 -2.57663,1.23045 -7.13714,0.57545 -6.52972,-3.12058 0.68579,-3.78024 3.95309,-4.3557 6.52972,-3.78024 l 0,0 z"
     id="path29"
     inkscape:connector-curvature="0"
     style="clip-rule:evenodd;fill:#a12225;fill-rule:evenodd" /><path
     d="m 42.620558,186.94141 c 9.111239,2.45622 29.312718,14.94787 35.842439,17.40877 6.529721,2.46558 18.90827,8.70673 24.757103,11.83198 5.84392,3.12525 20.20147,9.3664 24.15458,11.16763 3.86982,1.89013 7.13713,2.54979 9.11124,4.43992 1.97899,1.81058 -0.6858,8.70673 -5.84394,6.15693 -5.24141,-2.46558 -25.44289,-12.39808 -28.7102,-14.29288 -3.267305,-1.89013 -15.645854,-8.13127 -19.598956,-10.60153 -3.869827,-2.45622 -9.111238,-3.1159 -14.269376,-5.58147 -5.241411,-2.46558 -23.463889,-11.83198 -29.395992,-14.94788 -5.848827,-3.12057 -5.158136,-8.13127 3.953102,-5.58147 l 0,0 z"
     id="path31"
     inkscape:connector-curvature="0"
     style="clip-rule:evenodd;fill:#a12225;fill-rule:evenodd" /><path
     d="m 132.52791,110.95287 c -0.60251,6.16161 0.69069,17.98891 1.37649,21.11416 0.60251,3.12058 3.17913,16.17832 2.57662,25.54473 -0.68579,9.3664 0,21.19838 1.2932,27.43953 1.28831,6.24114 1.9741,22.42414 1.9741,26.77517 0,4.36038 1.28832,9.94185 1.97411,11.17698 0.60251,1.31467 4.55562,6.90082 5.15813,-1.23513 0.6858,-8.05173 0,-24.23473 0.6858,-29.24075 0.60251,-5.00602 -0.6858,-16.84268 -1.9741,-31.79055 -1.29322,-14.94788 -1.97901,-27.35999 -1.97901,-31.13555 0,-3.69604 1.28832,-13.06244 -1.28831,-16.83801 -1.9741,-6.24582 -9.10634,-8.05173 -9.79703,-1.81058 l 0,0 z"
     id="path33"
     inkscape:connector-curvature="0"
     style="clip-rule:evenodd;fill:#a12225;fill-rule:evenodd" /><path
     d="m 144.90646,234.25997 c 1.979,-0.65968 8.50872,4.35103 5.93211,9.9325 -2.6648,5.59083 -6.53463,3.12525 -9.11124,-1.22578 -2.6648,-4.36038 1.28831,-8.14062 3.17913,-8.70672 l 0,0 z"
     id="path35"
     inkscape:connector-curvature="0"
     style="clip-rule:evenodd;fill:#a12225;fill-rule:evenodd" /><path
     d="m 158.66149,228.00946 c 8.42545,-9.35704 10.40445,-6.8166 14.95517,-10.59217 4.55562,-3.70071 22.7781,-17.41813 29.31272,-22.99961 6.52972,-5.67504 11.77603,-8.79094 15.64095,-11.83198 3.95801,-3.12525 9.79704,1.47842 3.95801,4.93584 -5.84393,3.44339 -18.91317,15.68241 -24.15458,22.42415 -5.15813,6.73239 -9.79703,5.00602 -15.64586,10.59218 -5.84393,5.59083 -9.11124,9.94186 -12.37365,11.25652 -3.26731,1.23512 -5.84393,3.03168 -8.42545,4.92647 -2.66479,1.88545 -11.78092,0.655 -3.26731,-8.7114 l 0,0 z"
     id="path37"
     inkscape:connector-curvature="0"
     style="clip-rule:evenodd;fill:#a12225;fill-rule:evenodd" /><path
     d="m 121.44257,121.47019 c 3.958,1.31466 20.28476,6.90081 31.28682,11.90683 11.09024,4.93584 37.82144,15.52333 43.06775,18.64858 5.24631,3.12526 26.04541,10.60153 28.7102,12.48229 2.57662,1.81059 3.17913,11.17699 -2.66479,8.70673 -5.84393,-2.54043 -22.17559,-11.24716 -32.57513,-15.60754 -10.39955,-4.35102 -26.7361,-11.82262 -34.55413,-13.71742 -7.82293,-1.81059 -22.77809,-10.51732 -26.7312,-13.06244 -3.86983,-2.46557 -8.42545,-2.46557 -10.40444,-5.58615 -1.97901,-3.11589 -0.005,-5.00601 3.86492,-3.77088 l 0,0 z"
     id="path39"
     inkscape:connector-curvature="0"
     style="clip-rule:evenodd;fill:#a12225;fill-rule:evenodd" /><path
     d="m 101.93178,24.37216 c 1.28832,7.476276 2.57662,15.528011 2.57662,21.769158 0,6.241146 1.28831,16.183004 1.9741,19.303577 0.69069,3.120573 1.97901,13.717424 1.29322,15.607546 -0.60253,1.80591 0,16.758462 0,20.534029 0,3.69603 1.2883,8.70673 -2.58152,8.70673 -3.95311,0 -4.55562,-3.12058 -4.55562,-9.93718 0,-6.90082 -2.664796,-21.853373 -2.664796,-28.09452 0,-6.161612 -1.288309,-19.303578 -1.288309,-28.010305 0,-8.706728 -1.890827,-18.073126 -2.581518,-20.538706 -0.685792,-2.460903 6.534623,-6.811927 7.827823,0.659671 l 0,0 z"
     id="path41"
     inkscape:connector-curvature="0"
     style="clip-rule:evenodd;fill:#a12225;fill-rule:evenodd" /></svg>