<?xml version="1.0" encoding="utf-8"?>
<!-- Svg Vector Icons : http://www.onlinewebfonts.com/icon -->
<!DOCTYPE svg PUBLIC "-//W3C//DTD SVG 1.1//EN" "http://www.w3.org/Graphics/SVG/1.1/DTD/svg11.dtd">
<svg version="1.1" xmlns="http://www.w3.org/2000/svg" xmlns:xlink="http://www.w3.org/1999/xlink" x="0px" y="0px" viewBox="0 0 1000 1000" enable-background="new 0 0 1000 1000" xml:space="preserve">
<metadata> Svg Vector Icons : http://www.onlinewebfonts.com/icon </metadata>
<g><path d="M275.3,12c-21.1,0-38.1,17-38.1,38.1v73.9c0,21.1,17,38.2,38.1,38.2c21.1,0,38.1-17,38.1-38.2V50.2C313.5,29.1,296.5,12,275.3,12z M425.6,12c-21.1,0-38.1,17-38.1,38.1v73.9c0,21.1,17,38.2,38.1,38.2c21.1,0,38.1-17,38.1-38.2V50.2C463.8,29.1,446.8,12,425.6,12z M575.9,12c-21.1,0-38.2,17-38.2,38.1v73.9c0,21.1,17,38.2,38.2,38.2s38.2-17,38.2-38.2V50.2C614.1,29.1,597,12,575.9,12z M725.6,12c-20.8,0-37.6,17-37.6,38.1v73.9c0,21.1,16.8,38.2,37.6,38.2s37.6-17,37.6-38.2V50.2C763.2,29.1,746.4,12,725.6,12z M272.2,198.5c-41.5,0-74.9,33.4-74.9,74.9v452.8c0,41.5,33.4,74.9,74.9,74.9h453.6c41.5,0,74.9-33.4,74.9-74.9V273.4c0-41.5-33.4-74.9-74.9-74.9H272.2L272.2,198.5z M48.5,236.5c-21.1,0-38.1,16.8-38.1,37.6c0,20.8,17,37.6,38.1,37.6h73.9c21.1,0,38.1-16.8,38.1-37.6c0-20.8-17-37.6-38.1-37.6H48.5z M878,236.5c-21.1,0-38.2,16.8-38.2,37.6c0,20.8,17,37.6,38.2,37.6h73.9c21.1,0,38.2-16.8,38.2-37.6c0-20.8-17-37.6-38.2-37.6H878z M878,385.6c-21.1,0-38.2,17-38.2,38.1c0,21.1,17,38.2,38.2,38.2h73.9c21.1,0,38.2-17,38.2-38.2c0-21.1-17-38.1-38.2-38.1H878z M48.1,386.6c-21.1,0-38.1,17-38.1,38.1c0,21.1,17,38.1,38.1,38.1H122c21.1,0,38.1-17,38.1-38.1c0-21.1-17-38.1-38.1-38.1H48.1z M878,535.9c-21.1,0-38.2,17-38.2,38.1s17,38.2,38.2,38.2h73.9c21.1,0,38.2-17,38.2-38.2s-17-38.1-38.2-38.1H878z M48.1,537.7c-21.1,0-38.1,17-38.1,38.2S27,614,48.1,614H122c21.1,0,38.1-17,38.1-38.1s-17-38.2-38.1-38.2H48.1z M48.5,686.2c-21.1,0-38.1,17-38.1,38.2s17,38.1,38.1,38.1h73.9c21.1,0,38.1-17,38.1-38.1s-17-38.2-38.1-38.2H48.5z M878,686.2c-21.1,0-38.2,17-38.2,38.2s17,38.1,38.2,38.1h73.9c21.1,0,38.2-17,38.2-38.1s-17-38.2-38.2-38.2H878z M273,837.8c-20.8,0-37.6,17-37.6,38.1v73.9c0,21.1,16.8,38.1,37.6,38.1s37.6-17,37.6-38.1v-73.9C310.6,854.8,293.8,837.8,273,837.8z M423.3,837.8c-21.1,0-38.2,17-38.2,38.1v73.9c0,21.1,17,38.1,38.2,38.1s38.1-17,38.1-38.1v-73.9C461.4,854.8,444.4,837.8,423.3,837.8z M574.1,837.8c-20.8,0-37.6,17-37.6,38.1v73.9c0,21.1,16.8,38.1,37.6,38.1c20.8,0,37.6-17,37.6-38.1v-73.9C611.7,854.8,594.9,837.8,574.1,837.8z M723.9,837.8c-20.8,0-37.6,17-37.6,38.1v73.9c0,21.1,16.8,38.1,37.6,38.1s37.6-17,37.6-38.1v-73.9C761.5,854.8,744.7,837.8,723.9,837.8z"/></g>
</svg>