<?xml version="1.0" encoding="iso-8859-1"?>
<!-- Generator: Adobe Illustrator 19.0.0, SVG Export Plug-In . SVG Version: 6.00 Build 0)  -->
<svg version="1.1" id="Capa_1" xmlns="http://www.w3.org/2000/svg" xmlns:xlink="http://www.w3.org/1999/xlink" x="0px" y="0px"
	 viewBox="0 0 512 512" style="enable-background:new 0 0 512 512;" xml:space="preserve">
<path style="fill:#A1A7AF;" d="M420,46H92c-24.262,0-44,19.738-44,44v312c0,6.627,5.373,12,12,12s12-5.373,12-12V90
	c0-11.028,8.972-20,20-20h328c11.028,0,20,8.972,20,20v312c0,6.627,5.373,12,12,12s12-5.373,12-12V90C464,65.738,444.262,46,420,46z
	"/>
<g>
	<path style="fill:#55606E;" d="M248,258c0,4.418,3.582,8,8,8s8-3.582,8-8V70h-16V258z"/>
	<path style="fill:#55606E;" d="M370.692,70h-17.653l80.854,173.392c1.183,2.539,3.529,4.162,6.107,4.536v-29.296L370.692,70z"/>
	<path style="fill:#55606E;" d="M444.523,247.262c4.004-1.867,5.737-6.627,3.869-10.631L440,218.632v29.296
		c0.379,0.055,0.762,0.085,1.147,0.085C442.279,248.013,443.43,247.771,444.523,247.262z"/>
</g>
<path style="fill:#FF8C78;" d="M256,258c-26.468,0-48,21.533-48,48s21.532,48,48,48s48-21.533,48-48S282.468,258,256,258z"/>
<path style="fill:#DB6B5E;" d="M272,346c-26.468,0-48-21.533-48-48c0-15.56,7.448-29.409,18.96-38.185
	C222.811,265.512,208,284.053,208,306c0,26.467,21.532,48,48,48c10.907,0,20.971-3.663,29.04-9.815
	C280.891,345.358,276.52,346,272,346z"/>
<path style="fill:#55606E;" d="M144,258c0,4.418,3.582,8,8,8s8-3.582,8-8V70h-16V258z"/>
<path style="fill:#FF8C78;" d="M152,258c-26.468,0-48,21.533-48,48s21.532,48,48,48s48-21.533,48-48S178.468,258,152,258z"/>
<path style="fill:#DB6B5E;" d="M168,346c-26.468,0-48-21.533-48-48c0-15.56,7.448-29.409,18.96-38.185
	C118.811,265.512,104,284.053,104,306c0,26.467,21.532,48,48,48c10.907,0,20.971-3.663,29.04-9.815
	C176.891,345.358,172.52,346,168,346z"/>
<path style="fill:#FF8C78;" d="M504.932,263.229c-5.419-11.62-15.038-20.435-27.086-24.82c-12.05-4.386-25.084-3.816-36.703,1.603
	c-23.987,11.185-34.402,39.8-23.217,63.788c8.136,17.446,25.487,27.713,43.576,27.712c6.782,0,13.671-1.444,20.212-4.495
	C505.701,315.832,516.116,287.216,504.932,263.229z"/>
<path style="fill:#DB6B5E;" d="M480.071,322c-18.089,0.001-35.44-10.266-43.576-27.712c-9.41-20.181-3.529-43.634,12.857-57.231
	c-2.791,0.732-5.539,1.709-8.209,2.954c-23.987,11.185-34.402,39.8-23.217,63.788c8.136,17.446,25.487,27.713,43.576,27.712
	c6.782,0,13.671-1.444,20.212-4.495c3.814-1.779,7.282-4.001,10.378-6.573C488.109,321.482,484.072,322,480.071,322z"/>
<path style="fill:#3C9FE8;" d="M472,394H40c-22.056,0-40,17.944-40,40v24c0,4.418,3.582,8,8,8h496c4.418,0,8-3.582,8-8v-24
	C512,411.944,494.056,394,472,394z"/>
<path style="fill:#427FC9;" d="M0,442.333V458c0,4.418,3.582,8,8,8h496c4.418,0,8-3.582,8-8v-15.667H0z"/>
<g>
</g>
<g>
</g>
<g>
</g>
<g>
</g>
<g>
</g>
<g>
</g>
<g>
</g>
<g>
</g>
<g>
</g>
<g>
</g>
<g>
</g>
<g>
</g>
<g>
</g>
<g>
</g>
<g>
</g>
</svg>
