<svg width="496.8" height="496.8" xmlns="http://www.w3.org/2000/svg">

 <g>
  <title>Layer 1</title>
  <path id="svg_1" fill="#6ec6f0" d="m152,484c0,6.4 -5.6,12 -12,12l0,0c-6.4,0 -12,-5.6 -12,-12l0,-472c0,-6.4 5.6,-12 12,-12l0,0c6.4,0 12,5.6 12,12l0,472z"/>
  <path id="svg_3" fill="#6ec6f0" d="m208,484c0,6.4 -5.6,12 -12,12l0,0c-6.4,0 -12,-5.6 -12,-12l0,-472c0,-6.4 5.6,-12 12,-12l0,0c6.4,0 12,5.6 12,12l0,472z"/>
  <path id="svg_5" fill="#6ec6f0" d="m312,484c0,6.4 -5.6,12 -12,12l0,0c-6.4,0 -12,-5.6 -12,-12l0,-472c0,-6.4 5.6,-12 12,-12l0,0c6.4,0 12,5.6 12,12l0,472z"/>
  <path id="svg_7" fill="#6ec6f0" d="m368,484c0,6.4 -5.6,12 -12,12l0,0c-6.4,0 -12,-5.6 -12,-12l0,-472c0,-6.4 5.6,-12 12,-12l0,0c6.4,0 12,5.6 12,12l0,472z"/>
  <path id="svg_9" fill="#6ec6f0" d="m260,484c0,6.4 -5.6,12 -12,12l0,0c-6.4,0 -12,-5.6 -12,-12l0,-472c0,-6.4 5.6,-12 12,-12l0,0c6.4,0 12,5.6 12,12l0,472z"/>
  <path id="svg_11" fill="#6ec6f0" d="m12.8,152c-7.2,0 -12.8,-4.8 -12.8,-12l0,0c0,-7.2 5.6,-12 12.8,-12l471.2,0c7.2,0 12.8,4.8 12.8,12l0,0c0,7.2 -5.6,12 -12.8,12l-471.2,0z"/>
  <path id="svg_13" fill="#6ec6f0" d="m496,196c0,6.4 -5.6,12 -12,12l-472,0c-6.4,0 -12,-5.6 -12,-12l0,0c0,-6.4 5.6,-12 12,-12l472,0c6.4,0 12,5.6 12,12l0,0z"/>
  <path id="svg_15" fill="#6ec6f0" d="m496,300c0,6.4 -5.6,12 -12,12l-472,0c-6.4,0 -12,-5.6 -12,-12l0,0c0,-6.4 5.6,-12 12,-12l472,0c6.4,0 12,5.6 12,12l0,0z"/>
  <path id="svg_17" fill="#6ec6f0" d="m496,251c0,6.4 -5.6,12 -12,12l-472,0c-6.4,0 -12,-5.6 -12,-12l0,0c0,-6.4 5.6,-12 12,-12l472,0c6.4,0 12,5.6 12,12l0,0z"/>
  <path id="svg_19" fill="#6ec6f0" d="m12.8,368c-7.2,0 -12.8,-4.8 -12.8,-12l0,0c0,-7.2 5.6,-12 12.8,-12l471.2,0c7.2,0 12.8,4.8 12.8,12l0,0c0,7.2 -5.6,12 -12.8,12l-471.2,0z"/>
  <path id="svg_21" fill="#363F3E" d="m408,381.6c0,14.4 -12,26.4 -26.4,26.4l-259.2,0c-14.4,0 -26.4,-12 -26.4,-26.4l0,-259.2c0,-14.4 12,-26.4 26.4,-26.4l259.2,0c14.4,0 26.4,12 26.4,26.4l0,259.2z"/>
  <path id="svg_22" d="m96,122.4c0,-14.4 12,-26.4 26.4,-26.4l259.2,0c14.4,0 26.4,12 26.4,26.4l0,259.2c0,14.4 -12,26.4 -26.4,26.4"/>
  <path id="svg_23" fill="#495150" d="m352,335.2c0,9.6 -7.2,16.8 -16.8,16.8l-166.4,0c-9.6,0 -16.8,-7.2 -16.8,-16.8l0,-166.4c0,-9.6 7.2,-16.8 16.8,-16.8l166.4,0c9.6,0 16.8,7.2 16.8,16.8l0,166.4z"/>
  <g id="svg_29"/>
  <g id="svg_30"/>
  <g id="svg_31"/>
  <g id="svg_32"/>
  <g id="svg_33"/>
  <g id="svg_34"/>
  <g id="svg_35"/>
  <g id="svg_36"/>
  <g id="svg_37"/>
  <g id="svg_38"/>
  <g id="svg_39"/>
  <g id="svg_40"/>
  <g id="svg_41"/>
  <g id="svg_42"/>
  <g id="svg_43"/>
 </g>
</svg>