<?xml version="1.0" encoding="utf-8"?>
<!-- Generator: Adobe Illustrator 15.0.0, SVG Export Plug-In . SVG Version: 6.00 Build 0)  -->
<!DOCTYPE svg PUBLIC "-//W3C//DTD SVG 1.1//EN" "http://www.w3.org/Graphics/SVG/1.1/DTD/svg11.dtd">
<svg version="1.1" id="Layer_1" xmlns="http://www.w3.org/2000/svg" xmlns:xlink="http://www.w3.org/1999/xlink" x="0px" y="0px"
	 width="512px" height="512px" viewBox="0 0 512 512" enable-background="new 0 0 512 512" xml:space="preserve">
<g>
	<g>
		<g>
			<linearGradient id="SVGID_1_" gradientUnits="userSpaceOnUse" x1="88.0625" y1="88.0625" x2="423.9382" y2="423.9382">
				<stop  offset="0" style="stop-color:#777777"/>
				<stop  offset="1" style="stop-color:#100F0F"/>
			</linearGradient>
			<circle fill="url(#SVGID_1_)" cx="256" cy="256" r="237.5"/>
		</g>
	</g>
	<g>
		<g>
				<linearGradient id="SVGID_2_" gradientUnits="userSpaceOnUse" x1="256.0005" y1="398" x2="256.0005" y2="114.0005">
					<stop  offset="0" style="stop-color:#FF7B03"/>
					<stop  offset="1" style="stop-color:#FFC043"/>
				</linearGradient>
				<path fill="url(#SVGID_2_)" d="M317.648,191.107c-11.07-14.123-31.302-23.284-48.098-23.284s-37.79,5.725-37.79,27.102
					c0,17.94,16.032,23.666,41.608,31.683c36.645,11.833,83.978,27.483,83.978,81.308c0,62.219-50.005,90.085-103.446,90.085
					c-38.554,0-77.488-14.125-101.155-38.936l42.753-43.516c12.978,16.414,37.026,28.629,58.402,28.629
					c19.85,0,37.408-7.634,37.408-29.394c0-20.611-20.612-27.102-56.111-38.554c-34.355-11.068-69.092-28.629-69.092-77.488
					c0-59.931,54.203-84.742,104.591-84.742c30.538,0,64.892,11.452,88.559,33.21L317.648,191.107z"/>
		</g>
	</g>
</g>
</svg>
