<?xml version="1.0" encoding="UTF-8" standalone="no"?>
<svg
   xmlns:dc="http://purl.org/dc/elements/1.1/"
   xmlns:cc="http://creativecommons.org/ns#"
   xmlns:rdf="http://www.w3.org/1999/02/22-rdf-syntax-ns#"
   xmlns:svg="http://www.w3.org/2000/svg"
   xmlns="http://www.w3.org/2000/svg"
   xmlns:sodipodi="http://sodipodi.sourceforge.net/DTD/sodipodi-0.dtd"
   xmlns:inkscape="http://www.inkscape.org/namespaces/inkscape"
   version="1.0"
   width="512.000000pt"
   height="512.000000pt"
   viewBox="0 0 512.000000 512.000000"
   preserveAspectRatio="xMidYMid meet"
   id="svg4186"
   inkscape:version="0.91 r13725"
   sodipodi:docname="xmind.svg">
  <defs
     id="defs4196" />
  <sodipodi:namedview
     pagecolor="#ffffff"
     bordercolor="#666666"
     borderopacity="1"
     objecttolerance="10"
     gridtolerance="10"
     guidetolerance="10"
     inkscape:pageopacity="0"
     inkscape:pageshadow="2"
     inkscape:window-width="1615"
     inkscape:window-height="1026"
     id="namedview4194"
     showgrid="false"
     inkscape:zoom="1.3390625"
     inkscape:cx="320"
     inkscape:cy="320"
     inkscape:window-x="65"
     inkscape:window-y="24"
     inkscape:window-maximized="1"
     inkscape:current-layer="svg4186" />
  <metadata
     id="metadata4188">
Created by potrace 1.13, written by Peter Selinger 2001-2015
<rdf:RDF>
  <cc:Work
     rdf:about="">
    <dc:format>image/svg+xml</dc:format>
    <dc:type
       rdf:resource="http://purl.org/dc/dcmitype/StillImage" />
  </cc:Work>
</rdf:RDF>
</metadata>
  <g
     transform="translate(0.000000,512.000000) scale(0.100000,-0.100000)"
     fill="#000000"
     stroke="none"
     id="g4190"
     style="fill:#d22b22;fill-opacity:1">
    <path
       d="M2165 4681 c-1103 -195 -1924 -345 -1942 -354 -70 -37 -133 -137 -133 -213 0 -48 670 -3836 686 -3881 29 -79 135 -153 220 -153 48 0 3836 670 3881 686 79 29 153 135 153 220 0 48 -670 3836 -686 3881 -19 52 -97 125 -152 141 -21 7 -57 12 -78 11 -22 0 -899 -153 -1949 -338z m-227 -992 c11 -11 41 -78 66 -148 74 -202 159 -330 290 -435 133 -107 280 -153 455 -143 195 12 330 68 376 157 28 56 27 97 -6 231 -36 141 -35 153 15 177 15 8 127 31 249 52 122 21 289 50 371 64 171 30 244 32 287 10 39 -20 54 -57 69 -169 22 -174 -21 -307 -131 -409 -86 -80 -193 -127 -459 -201 -124 -34 -153 -80 -80 -129 22 -14 106 -56 187 -92 329 -147 502 -249 638 -376 143 -133 225 -266 266 -428 25 -97 20 -126 -24 -145 -43 -18 -873 -167 -962 -172 -96 -7 -105 2 -160 155 -55 155 -117 255 -220 357 -119 117 -263 196 -453 247 -111 29 -315 36 -416 14 -162 -36 -277 -122 -337 -250 -33 -71 -58 -177 -59 -251 -2 -122 -24 -165 -98 -184 -69 -19 -769 -141 -805 -141 -49 0 -63 18 -70 92 -18 171 53 341 199 478 123 116 275 202 568 324 259 108 299 134 278 180 -16 37 -77 67 -287 146 -445 167 -653 316 -766 545 -37 76 -69 177 -69 218 0 29 46 63 108 80 31 9 239 48 462 87 223 39 412 72 420 74 44 10 81 5 98 -15z"
       id="path4192"
       style="fill:#d22b22;fill-opacity:1" />
  </g>
</svg>
