<?xml version="1.0" encoding="UTF-8" standalone="no"?>
<svg
   xmlns:dc="http://purl.org/dc/elements/1.1/"
   xmlns:cc="http://creativecommons.org/ns#"
   xmlns:rdf="http://www.w3.org/1999/02/22-rdf-syntax-ns#"
   xmlns:svg="http://www.w3.org/2000/svg"
   xmlns="http://www.w3.org/2000/svg"
   xmlns:sodipodi="http://sodipodi.sourceforge.net/DTD/sodipodi-0.dtd"
   xmlns:inkscape="http://www.inkscape.org/namespaces/inkscape"
   version="1.1"
   width="131"
   height="120"
   id="svg3406"
   inkscape:version="0.91 r13725"
   sodipodi:docname="atom.svg"
   viewBox="0 0 131 120">
  <metadata
     id="metadata3420">
    <rdf:RDF>
      <cc:Work
         rdf:about="">
        <dc:format>image/svg+xml</dc:format>
        <dc:type
           rdf:resource="http://purl.org/dc/dcmitype/StillImage" />
      </cc:Work>
    </rdf:RDF>
  </metadata>
  <defs
     id="defs3418" />
  <sodipodi:namedview
     pagecolor="#ffffff"
     bordercolor="#666666"
     borderopacity="1"
     objecttolerance="10"
     gridtolerance="10"
     guidetolerance="10"
     inkscape:pageopacity="0"
     inkscape:pageshadow="2"
     inkscape:window-width="2495"
     inkscape:window-height="1416"
     id="namedview3416"
     showgrid="false"
     inkscape:zoom="3.7682899"
     inkscape:cx="3.7438609"
     inkscape:cy="36.250487"
     inkscape:window-x="65"
     inkscape:window-y="24"
     inkscape:window-maximized="1"
     inkscape:current-layer="svg3406" />
  <circle
     style="fill:#ccffaa;stroke:#000000;stroke-width:0.92619449;stroke-opacity:0"
     id="path4222"
     cx="65.943413"
     cy="60.056587"
     r="59.480316" />
  <path
     d="M 94.233386,37.218033 C 95.810099,29.19318 94.928357,23.102866 91.201505,20.682619 89.95922,19.875869 88.469842,19.52284 86.793616,19.586477 77.742,19.930115 63.136866,32.393199 51.203994,50.76821 37.06133,72.546003 32.035411,94.371665 39.986033,99.534856 c 3.774045,2.450894 9.787955,0.713504 16.582058,-4.128022"
     style="fill:none;stroke:#66595c;stroke-width:3.73154616;stroke-linecap:round"
     id="path3408"
     inkscape:connector-curvature="0" />
  <path
     d="m 101.48658,72.830979 c 6.71258,-2.604015 10.84017,-6.168256 11.05471,-10.261753 C 113.03744,53.102188 92.434788,44.337617 66.503333,42.978608 64.072259,42.851201 61.681737,42.784161 59.343428,42.79203 36.739785,42.8681 19.095885,49.068746 18.646252,57.648249 c -0.21411,4.085465 3.508014,8.046992 9.888597,11.334572"
     style="fill:none;stroke:#66595c;stroke-width:3.73154616;stroke-linecap:round"
     id="path3410"
     inkscape:connector-curvature="0" />
  <path
     d="M 59.180174,23.108124 C 54.58748,19.29755 50.280101,17.25125 46.819426,17.510805 c -0.921401,0.0691 -1.773553,0.29618 -2.565438,0.699665 -8.446768,4.303843 -5.748349,26.562731 6.040441,49.699532 11.788789,23.136804 28.192352,38.400858 36.63912,34.097008 8.123128,-4.138946 5.930666,-24.880278 -4.734399,-47.04081"
     style="fill:none;stroke:#66595c;stroke-width:3.73154616;stroke-linecap:round"
     id="path3412"
     inkscape:connector-curvature="0" />
  <path
     d="m 71.494277,60.773591 a 5.5973195,5.5973195 0 0 1 -11.194639,0 5.5973195,5.5973195 0 1 1 11.194639,0 z"
     style="fill:#66595c"
     id="path3414"
     inkscape:connector-curvature="0" />
</svg>
