<?xml version="1.0" encoding="iso-8859-1"?>
<!-- Generator: Adobe Illustrator 19.0.0, SVG Export Plug-In . SVG Version: 6.00 Build 0)  -->
<svg version="1.1" id="Layer_1" xmlns="http://www.w3.org/2000/svg" xmlns:xlink="http://www.w3.org/1999/xlink" x="0px" y="0px"
	 viewBox="0 0 508 508" style="enable-background:new 0 0 508 508;" xml:space="preserve">
<circle style="fill:#FD8469;" cx="254" cy="254" r="254"/>
<g>
	<path style="fill:#324A5E;" d="M254.8,253.6l-85.6,13.2c-2,0.4-4.4-0.4-5.6-2l-54.4-67.6c-1.2-1.6-1.6-4-0.8-6l31.2-80.8
		c0.8-2,2.4-3.6,4.8-3.6L230,93.2c2-0.4,4.4,0.4,5.6,2l54.4,68c1.2,1.6,1.6,4,0.8,6L259.6,250C258.8,251.6,256.8,253.2,254.8,253.6z
		 M170.8,254.4l78.8-12.4l28.8-74.4l-50-62L149.6,118l-28.8,74.4L170.8,254.4z"/>
	<path style="fill:#324A5E;" d="M277.6,401.6L192,414.8c-2,0.4-4.4-0.4-5.6-2l-54-67.6c-1.2-1.6-1.6-4-0.8-6l31.2-80.8
		c0.8-2,2.4-3.6,4.8-3.6l85.6-13.2c2-0.4,4.4,0.4,5.6,2l54.4,67.6c1.2,1.6,1.6,4,0.8,6L282.4,398C281.6,400,280,401.6,277.6,401.6z
		 M193.6,402.8l78.8-12.4l28.8-74.4l-50-62l-78.8,12.4l-28.8,74.4L193.6,402.8z"/>
	<path style="fill:#324A5E;" d="M394.8,307.6l-85.6,13.2c-2,0.4-4.4-0.4-5.6-2l-54.4-67.6c-1.2-1.6-1.6-4-0.8-6l31.2-80.8
		c0.8-2,2.4-3.6,4.8-3.6l85.6-13.2c2-0.4,4.4,0.4,5.6,2l54.4,67.6c1.2,1.6,1.6,4,0.8,6L399.6,304C398.8,306,396.8,307.2,394.8,307.6
		z M310.8,308.8l78.8-12.4l28.8-74.4l-50-62l-78.8,12.4l-28.8,74.4L310.8,308.8z"/>
</g>
<g>
	<circle style="fill:#FFFFFF;" cx="285.2" cy="166.8" r="27.6"/>
	<circle style="fill:#FFFFFF;" cx="370.8" cy="153.6" r="27.6"/>
	<circle style="fill:#FFFFFF;" cx="425.2" cy="220.8" r="27.6"/>
	<circle style="fill:#FFFFFF;" cx="393.6" cy="300.4" r="27.6"/>
	<circle style="fill:#FFFFFF;" cx="308" cy="315.2" r="27.6"/>
	<circle style="fill:#FFFFFF;" cx="254" cy="247.6" r="27.6"/>
	<circle style="fill:#FFFFFF;" cx="168.4" cy="260.8" r="27.6"/>
	<circle style="fill:#FFFFFF;" cx="114" cy="193.2" r="27.6"/>
	<circle style="fill:#FFFFFF;" cx="146" cy="115.6" r="27.6"/>
	<circle style="fill:#FFFFFF;" cx="233.6" cy="98.8" r="27.6"/>
	<circle style="fill:#FFFFFF;" cx="136.8" cy="341.6" r="27.6"/>
	<circle style="fill:#FFFFFF;" cx="191.2" cy="409.2" r="27.6"/>
	<circle style="fill:#FFFFFF;" cx="276.4" cy="392.8" r="27.6"/>
</g>
<g>
</g>
<g>
</g>
<g>
</g>
<g>
</g>
<g>
</g>
<g>
</g>
<g>
</g>
<g>
</g>
<g>
</g>
<g>
</g>
<g>
</g>
<g>
</g>
<g>
</g>
<g>
</g>
<g>
</g>
</svg>
