<svg xmlns="http://www.w3.org/2000/svg" viewBox="0 0 48 48"><defs><linearGradient gradientUnits="userSpaceOnUse" y2="15.827" x2="10.467" y1="42.526" x1="10.795" id="0"><stop stop-color="#197cf1"/><stop offset="1" stop-color="#20bcfa"/></linearGradient><linearGradient id="1" gradientUnits="userSpaceOnUse" y1="42.475" x2="0" y2="28.899"><stop stop-color="#c52828"/><stop offset="1" stop-color="#ff5454"/></linearGradient></defs><g transform="matrix(1.02121 0 0 1.02121-.04-.366)"><path d="m-1.346 15.458h22.808c.896 0 1.618.747 1.618 1.674v23.597c0 .927-.722 1.674-1.618 1.674h-22.808c-.896 0-1.618-.747-1.618-1.674v-23.597c0-.927.722-1.674 1.618-1.674" fill="url(#0)" fill-rule="evenodd" transform="matrix(1.77356 0 0 1.71426 6.108-25.986)" enable-background="new"/><path d="m11.406 6.469l.35-.371h2.096l.759.672-.046 1.046.64.588-.532.381.119 1.375-1.9 2.303v2.163l1.018.493v1.942l.987 1.669.787.119.101-.574-.931-1.445-.185-1.407h.553l.234 1.449 1.358 1.981-.364.633.871 1.326 2.149.532v-.35l.857.122-.077.616c.756.122.525.073 1.715.402l1.47 1.676 1.876.143.182 1.533-1.288.903-.063 1.361-.178.84 1.855 2.324.143.798c0 0 .675.182.749.182.08 0 1.515 1.092 1.515 1.092v4.192l.511.15-.357 1.925.861 1.137-.154 1.925 1.13 1.991 1.456 1.267 1.456.032.147-.469-1.071-.906c.08-.553.025-.343.259-1.01l.042-.549-.731-.025-.374-.455.605-.584.084-.434-.675-.189.038-.413.959-.143 1.459-.696c.654-1.2.976-1.522 2.023-2.859l-.35-1.529.469-.815 1.407.035.945-.738.308-2.961 1.05-1.344.189-.85-.962-.311-.63-1.036-2.166-.024-1.715-.654-.08-1.228-.574-.997-1.54-.021-.899-1.41-.798-.378-.042.42-1.445.091-.532-.735-1.515-.308-1.246 1.431-1.956-.329-.143-2.208-1.431-.245.574-1.088-.164-.612-1.872 1.256-1.179-.143-.43-.931c.322-1.172.129-.71.917-2.156l1.498-.763h2.898l-.007.882 1.043.49-.084-1.508c.798-.801.556-.626 2.264-1.75l.098-.696 1.515-1.575 1.61-.885-.143-.115 1.085-1.025.402.105.185.231.413-.462.094-.049c-.546-.073-.35-.024-.903-.213v-.444l.241-.199h.539l.248.108.21.427.259-.038v-.024l.077.021.749-.119.105-.367.42.105v.395l-.395.276.059.441 1.368.42c0 0 .003.007.003.014l.311-.024.021-.588-1.081-.493-.063-.29.896-.308.038-.85-.934-.574-.063-1.445-1.295.63h-.469l.126-1.102-1.743-.416-.728.546v1.676l-1.302.406-.525 1.092-.563.087v-1.389l-1.221-.175-.612-.395-.248-.899 2.191-1.284 1.071-.325.105.717.602-.028.049-.364.623-.087.007-.122-.262-.112-.063-.381.766-.066.462-.483.035-.035v.004l.143-.147 1.613-.203.71.605-1.876.997 2.383.56.304-.798h1.046l.364-.693-.731-.182v-.875l-2.306-1.022-1.592.182-.903.469.07 1.144-.941-.143-.143-.63.889-.815-1.624-.084-.469.136-.21.553.616.105-.126.612-1.036.063-.164.402-1.519.042c0 0-.035-.857-.094-.857-.063 0 1.183-.017 1.183-.017l.899-.878-.49-.248-.654.637-1.085-.059-.647-.899h-1.389l-1.452 1.085h1.33l.122.388-.35.325 1.47.042.227.532-1.655-.066-.08-.409-1.039-.227-.553-.301-2.45.024-.752.731-.514-.042-.57-.332-1.694-.504h-3.101l-1.795 1.221-1.204.185-.553.43.857.126v.343h-1.83l-.717.511.917.777 2.509.021m15.468 6.117h-.78l.122-.532.367-.039.084-.182.56-.077v.476h.003l-.357.353m.543-1.316l-.367.238-.462.08c0 0 0-.728 0-.805h.829v.486m.696-.563l.378.231-.304.248-.29-.248.217-.231m-.497.609h.059l.938.273v.479h-.787l-.21-.308c0 0 0-.444 0-.444m-.609-1.316l.507.462-.507.122v-.584m-2.149.077l.707-.29h.969v.29h.21v.507h-1.477l-.546-.15.136-.357m-.133 1.316l.56-.609h.812l-1.039 1.452-.434-.231.101-.612m-.752-3.458l.577.133-.199.784-.623.203-.392-.815.637-.304m-2.905-3.703v-.045h.535l.049-.185h.878v.385l-.259.332h-1.204v-.486zm.85 1.193c0 0 .539-.094.581-.094.042 0 0 .539 0 .539l-1.207.077-.227-.273.854-.248" fill="#fff" fill-opacity=".851"/><g transform="matrix(1.57267 0 0 1.57267-14.14-21.14)"><circle cy="35.858" cx="16.614" r="7.601" fill="url(#1)"/><path d="m16.498 31.388c-1.809 0-3.275 1.466-3.275 3.275 0 .138.011.273.028.407.28 2.558 3.035 5.507 3.035 5.507.049.055.096.089.142.113h.002l.092.029.092-.029h.002c.046-.025.093-.06.142-.113 0 0 2.715-2.954 2.988-5.513.016-.132.027-.266.027-.402 0-1.808-1.466-3.275-3.275-3.275m0 5.382c-1.161 0-2.107-.945-2.107-2.107 0-1.161.945-2.107 2.107-2.107 1.161 0 2.106.945 2.106 2.107 0 1.161-.945 2.107-2.106 2.107" fill="#fafafa" fill-opacity=".903" stroke-width="1.317"/></g></g></svg>