<svg xmlns="http://www.w3.org/2000/svg" viewBox="0 0 48 48"><defs><linearGradient id="0" x1="27.456" y1="47.39" x2="26.442" y2="1.017" gradientUnits="userSpaceOnUse"><stop stop-color="#e1e1e1"/><stop stop-color="#f4f4ff" offset="1"/></linearGradient><linearGradient id="1" x1="24.14" y1="40.683" x2="23.86" y2="6.31" gradientUnits="userSpaceOnUse"><stop stop-color="#c52828"/><stop stop-color="#ff5454" offset="1"/></linearGradient></defs><path d="m2.98-.002h42.04c1.652 0 2.982 1.33 2.982 2.982v42.04c0 1.652-1.33 2.982-2.982 2.982h-42.04c-1.652 0-2.982-1.33-2.982-2.982v-42.04c0-1.652 1.33-2.982 2.982-2.982" fill="url(#0)" fill-rule="evenodd"/><path d="m24.17 7c-1.71 0-2.999.745-3 1.732v1.254c-.026.001-.053.009-.078.021l-1.938 1c-.083.043-.152.102-.209.168-.491-.202-1.096-.322-1.773-.322-1.709 0-2.998.743-2.998 1.73v1.068c-.108.003-.216.023-.316.078l-3.701 2.01c-.128.069-.214.177-.277.297-.018.027-.029.053-.043.082-.012.034-.02.067-.027.102-.02.066-.053.128-.053.199v16.293c0 .255.138.491.361.617l13.459 7.576c.009.005.02.003.029.008.091.046.189.072.289.076.001 0 .019.008.029.008.089 0 .171-.038.254-.07.03-.012.065-.007.094-.023l.004-.002c.002-.0001.004-.0001.006-.002.002-.0001.002-.003.004-.004l13.58-7.625c.224-.125.361-.362.361-.617l.014-16.205c0-.251-.132-.485-.35-.611-.023-.014-.052-.011-.076-.021-.032-.025-.055-.056-.092-.076l-3.703-2.01c-.016-.009-.033-.008-.049-.016v-1.143c0-.988-1.289-1.732-2.998-1.732-.726 0-1.367.139-1.875.369-.035-.028-.064-.062-.105-.084l-1.762-.91c-.02-.001-.042-.009-.063-.018v-1.465c0-.988-1.289-1.732-2.998-1.732m-1.938 3.063c.517.248 1.181.398 1.938.398.756 0 1.419-.151 1.936-.398v1.963c0 .205-.731.67-1.936.67-1.205 0-1.938-.465-1.938-.67v-1.963m-1.063 1.498v.465c0 .987 1.29 1.73 3 1.73 1.711 0 2.999-.743 2.998-1.73v-.25l.861.445c-.037.113-.057.23-.057.352v3.293c0 .987 1.29 1.73 3 1.73 1.71 0 2.999-.743 2.998-1.73v-.551l2.1 1.143-12.143 6.799-12.04-6.842 2.291-1.246v.709c0 .987 1.289 1.732 2.998 1.732 1.709 0 2.998-.745 2.998-1.732v-3.293c0-.159-.044-.309-.107-.453l1.107-.57m7.865 2.342c.516.248 1.181.4 1.938.4.756 0 1.419-.153 1.936-.4v1.963c0 .194-.678.668-1.936.668-1.205 0-1.938-.463-1.938-.668v-1.963m-13.801.012c.517.248 1.181.4 1.938.4.755 0 1.419-.151 1.936-.398v1.961c0 .194-.678.67-1.936.67-1.258 0-1.938-.476-1.938-.67v-1.963m8.891.721c-1.709 0-3 .745-3 1.732v3.293c0 .987 1.291 1.732 3 1.732 1.709 0 2.996-.745 2.996-1.732v-3.293c0-.987-1.287-1.732-2.996-1.732m-1.938 3.062c.517.248 1.181.4 1.938.4.755 0 1.418-.151 1.934-.398v1.961c0 .194-.676.67-1.934.67-1.205 0-1.938-.465-1.938-.67v-1.963" fill="url(#1)"/></svg>
