<?xml version="1.0" encoding="iso-8859-1"?>
<!-- Generator: Adobe Illustrator 19.0.0, SVG Export Plug-In . SVG Version: 6.00 Build 0)  -->
<svg version="1.1" id="Layer_1" xmlns="http://www.w3.org/2000/svg" xmlns:xlink="http://www.w3.org/1999/xlink" x="0px" y="0px"
	 viewBox="0 0 490 490" style="enable-background:new 0 0 490 490;" xml:space="preserve">
<g>
	<g>
		<g id="XMLID_81_">
			<g>
				<polygon style="fill:#AFB6BB;" points="480,297.5 415,362.5 415,297.5 				"/>
				<polygon style="fill:#FFFFFF;" points="480,52.5 480,297.5 415,297.5 415,362.5 10,362.5 10,52.5 				"/>
			</g>
			<path style="fill:#231F20;" d="M490,52.5c0-5.522-4.477-10-10-10H10c-5.523,0-10,4.478-10,10v310c0,5.522,4.477,10,10,10h405l0,0
				c2.602-0.001,5.159-1.016,7.071-2.929l65-65c1.912-1.913,2.904-4.47,2.905-7.071H490V52.5z M415,287.5c-5.523,0-10,4.478-10,10
				v55H20v-290h450v225H415z M425,338.357V307.5h30.858L425,338.357z"/>
		</g>
	</g>
	<g>
		<g id="XMLID_82_">
			<g>
				<rect x="60" y="97.5" style="fill:#AFB6BB;" width="120" height="60"/>
				<rect x="250" y="102.5" style="fill:#AFB6BB;" width="100" height="50"/>
				<rect x="250" y="182.5" style="fill:#AFB6BB;" width="100" height="50"/>
				<rect x="250" y="262.5" style="fill:#AFB6BB;" width="100" height="50"/>
			</g>
			<path style="fill:#231F20;" d="M250,162.5h100c5.523,0,10-4.478,10-10v-50c0-5.522-4.477-10-10-10H250c-5.523,0-10,4.478-10,10
				v15h-25c-5.523,0-10,4.478-10,10v75h-80v-35h55c5.523,0,10-4.478,10-10v-60c0-5.522-4.477-10-10-10H60c-5.523,0-10,4.478-10,10
				v60c0,5.522,4.477,10,10,10h45v45c0,5.522,4.477,10,10,10h90v70c0,5.522,4.477,10,10,10h25v10c0,5.522,4.477,10,10,10h100
				c5.523,0,10-4.478,10-10v-50c0-5.522-4.477-10-10-10H250c-5.523,0-10,4.478-10,10v20h-15v-60h15v10c0,5.522,4.477,10,10,10h100
				c5.523,0,10-4.478,10-10v-50c0-5.522-4.477-10-10-10H250c-5.523,0-10,4.478-10,10v20h-15v-65h15v15
				C240,158.022,244.477,162.5,250,162.5z M260,112.5h80v30h-80V112.5z M70,107.5h100v40H70V107.5z M260,272.5h80v30h-80V272.5z
				 M260,192.5h80v30h-80V192.5z"/>
		</g>
	</g>
	<g>
		<rect x="50" y="247.5" style="fill:#231F20;" width="75" height="20"/>
	</g>
	<g>
		<rect x="50" y="277.5" style="fill:#231F20;" width="75" height="20"/>
	</g>
	<g>
		<rect x="50" y="307.5" style="fill:#231F20;" width="130" height="20"/>
	</g>
	<g>
		<rect x="135" y="247.5" style="fill:#231F20;" width="20" height="20"/>
	</g>
	<g>
		<rect x="380" y="92.5" style="fill:#231F20;" width="25" height="20"/>
	</g>
	<g>
		<rect x="420" y="92.5" style="fill:#231F20;" width="25" height="20"/>
	</g>
	<g>
		<rect x="380" y="122.5" style="fill:#231F20;" width="25" height="20"/>
	</g>
	<g>
		<rect x="420" y="122.5" style="fill:#231F20;" width="25" height="20"/>
	</g>
	<g>
		<rect x="380" y="152.5" style="fill:#231F20;" width="25" height="20"/>
	</g>
	<g>
		<rect x="420" y="152.5" style="fill:#231F20;" width="25" height="20"/>
	</g>
	<g>
		<rect x="380" y="182.5" style="fill:#231F20;" width="25" height="20"/>
	</g>
	<g>
		<rect x="420" y="182.5" style="fill:#231F20;" width="25" height="20"/>
	</g>
	<g>
		<g id="XMLID_83_">
			<g>
				<polygon style="fill:#E7ECED;" points="480,417.5 420,437.5 420,397.5 				"/>
				<rect x="10" y="397.5" style="fill:#AFB6BB;" width="60" height="40"/>
				<rect x="70" y="397.5" style="fill:#FFD248;" width="350" height="40"/>
			</g>
			<path style="fill:#231F20;" d="M483.162,408.013l-60-20c-1.033-0.344-2.1-0.498-3.162-0.498V387.5H10c-5.523,0-10,4.478-10,10v40
				c0,5.522,4.477,10,10,10h410l0,0h0.001c1.061,0,2.129-0.169,3.161-0.513l60-20c4.083-1.361,6.838-5.183,6.838-9.487
				C490,413.196,487.246,409.374,483.162,408.013z M60,427.5H20v-20h40V427.5z M410,407.5v20H80v-20H410z M430,423.626v-12.252
				l18.377,6.126L430,423.626z"/>
		</g>
	</g>
</g>
<g>
</g>
<g>
</g>
<g>
</g>
<g>
</g>
<g>
</g>
<g>
</g>
<g>
</g>
<g>
</g>
<g>
</g>
<g>
</g>
<g>
</g>
<g>
</g>
<g>
</g>
<g>
</g>
<g>
</g>
</svg>
