<?xml version="1.0" encoding="iso-8859-1"?>
<!-- Generator: Adobe Illustrator 19.0.0, SVG Export Plug-In . SVG Version: 6.00 Build 0)  -->
<svg version="1.1" id="Layer_1" xmlns="http://www.w3.org/2000/svg" xmlns:xlink="http://www.w3.org/1999/xlink" x="0px" y="0px"
	 viewBox="0 0 320 320" style="enable-background:new 0 0 320 320;" xml:space="preserve">
<g>
	<path style="fill:#0071CE;" d="M246,277.5c0,13.75-11.25,25-25,25H25c-13.75,0-25-11.25-25-25v-235c0-13.75,11.25-25,25-25h196
		c13.75,0,25,11.25,25,25V277.5z"/>
	<path style="fill:#5E96DC;" d="M320,277.5c0,13.75-11.25,25-25,25H99c-13.75,0-25-11.25-25-25v-235c0-13.75,11.25-25,25-25h196
		c13.75,0,25,11.25,25,25V277.5z"/>
	<rect x="96.047" y="41.5" style="fill:#005FAD;" width="201.906" height="182"/>
	<g>
		<path style="fill:#A4A9AD;" d="M244.5,70.401c-4.971,0-9,4.029-9,9s4.029,9,9,9h53.453v-18H244.5z"/>
		<rect x="197" y="62.5" style="fill:#1E252B;" width="28.5" height="50.666"/>
		<rect x="225.5" y="62.5" style="fill:#333E48;" width="38" height="50.666"/>
		<path style="fill:#A4A9AD;" d="M206.75,70.401H96.047v18H206.75c4.971,0,9-4.029,9-9C215.75,74.431,211.721,70.401,206.75,70.401z
			"/>
		<path style="fill:#A4A9AD;" d="M219.896,113.166V133.5c0,5.718,4.636,10.354,10.354,10.354s10.354-4.636,10.354-10.354v-20.334
			H219.896z"/>
	</g>
	<polygon style="fill:#FFFFFF;" points="248.068,193.083 248.068,162.666 212.432,162.666 212.432,193.083 199.833,193.083 
		199.833,223.5 260.667,223.5 260.667,193.083 	"/>
	<rect x="96.047" y="249.393" style="fill:#333E48;" width="94.953" height="27.328"/>
	<circle style="fill:#BF534F;" cx="240.511" cy="263.057" r="13.664"/>
	<circle style="fill:#FFC843;" cx="284.289" cy="263.057" r="13.664"/>
</g>
<g>
</g>
<g>
</g>
<g>
</g>
<g>
</g>
<g>
</g>
<g>
</g>
<g>
</g>
<g>
</g>
<g>
</g>
<g>
</g>
<g>
</g>
<g>
</g>
<g>
</g>
<g>
</g>
<g>
</g>
</svg>
