<?xml version="1.0" encoding="UTF-8" standalone="no"?>
<svg xmlns="http://www.w3.org/2000/svg" xmlns:xlink="http://www.w3.org/1999/xlink" width="128" height="128">
  <defs>
    <linearGradient id="o" x2="1" y2="1">
      <stop offset="0" stop-color="#111"/>
      <stop offset="1" stop-color="#555"/>
    </linearGradient>
    <linearGradient id="n" x1="55.95" x2="55.95" y1="81" y2="80" gradientTransform="matrix(1.088 0 0 1 3.364 16)" gradientUnits="userSpaceOnUse">
      <stop offset="0" stop-color="#FFF"/>
      <stop offset="1" stop-color="#EEE"/>
    </linearGradient>
    <linearGradient id="b" x1="44" x2="44" y1="44" y2="40" gradientUnits="userSpaceOnUse">
      <stop offset=".5" stop-color="#FFF"/>
      <stop offset="1" stop-color="#EEEEEC"/>
    </linearGradient>
    <linearGradient id="a" x1="24" x2="24" y1="40" y2="20" gradientUnits="userSpaceOnUse">
      <stop offset=".5" stop-color="#FFF"/>
      <stop offset="1" stop-color="#EEEEEC"/>
    </linearGradient>
    <linearGradient id="h" x1="9" x2="106.56" y1="24.32" y2="53.66" gradientUnits="userSpaceOnUse">
      <stop offset="0" stop-color="#555753"/>
      <stop offset=".63" stop-color="#2E2E2E"/>
      <stop offset="1" stop-color="#2E2E2E"/>
    </linearGradient>
    <linearGradient id="g" x1="56" x2="56" y1="81" y2="7" gradientTransform="matrix(1.082 0 0 1.014 3.43 7.905)" gradientUnits="userSpaceOnUse">
      <stop offset="0" stop-color="#BBB"/>
      <stop offset=".59" stop-color="#9F9F9F"/>
      <stop offset="1" stop-color="#888"/>
    </linearGradient>
    <linearGradient xlink:href="#a" id="i" x1="24" x2="24" y1="40" y2="20" gradientTransform="translate(4 16)" gradientUnits="userSpaceOnUse"/>
    <linearGradient xlink:href="#b" id="j" x1="44" x2="44" y1="44" y2="40" gradientTransform="translate(4 16)" gradientUnits="userSpaceOnUse"/>
    <linearGradient xlink:href="#a" id="l" x1="24" x2="24" y1="40" y2="20" gradientTransform="translate(4 16)" gradientUnits="userSpaceOnUse"/>
    <linearGradient xlink:href="#c" id="f" x1="8" x2="120" y1="40.67" y2="64" gradientTransform="matrix(1 0 0 1.08 0 -9.188)" gradientUnits="userSpaceOnUse"/>
    <linearGradient xlink:href="#d" id="p" x1="64" x2="64" y1="17.36" y2="65.87" gradientTransform="matrix(1 0 0 1.08 0 -9.188)" gradientUnits="userSpaceOnUse"/>
    <filter id="k" width="1.12" height="1.48" x="-.1" y="-.2">
      <feGaussianBlur stdDeviation=".4"/>
    </filter>
    <filter id="m" width="1.22" height="1.17" x="-.1" y="-.1">
      <feGaussianBlur stdDeviation=".72"/>
    </filter>
    <filter id="e">
      <feGaussianBlur stdDeviation="2.08"/>
    </filter>
    <radialGradient id="d" cx="52" cy="-31" r="136" gradientUnits="userSpaceOnUse">
      <stop offset="0" stop-color="#fff"/>
      <stop offset="1" stop-color="#fff" stop-opacity="0"/>
    </radialGradient>
    <radialGradient id="c" cx="52" cy="-31" r="136" gradientUnits="userSpaceOnUse">
      <stop offset="0" stop-color="#c6c6c6"/>
      <stop offset=".52" stop-color="#EEE"/>
      <stop offset="1" stop-color="#c6c6c6"/>
    </radialGradient>
  </defs>
  <path d="M3 0C1.4 0 0 1.4 0 3v90c0 1.6 1.4 3 3 3h106c1.6 0 3-1.4 3-3V3c0-1.6-1.4-3-3-3H3z" filter="url(#e)" opacity=".5" transform="matrix(1.036 0 0 1.135 6 7)"/>
  <path fill="url(#f)" d="M11 8c-1.6 0-3 1.5-3 3.3v97c0 2 1.4 3.4 3 3.4h106c1.6 0 3-1.5 3-3.3v-97c0-2-1.4-3.3-3-3.3H11z"/>
  <path fill="url(#g)" d="M12 15c-.5 0-1 .5-1 1v73c0 .6.5 1 1 1h104c.5 0 1-.5 1-1V16c0-.6-.5-1-1-1H12z"/>
  <path d="M12 16h104v80H12z"/>
  <path fill="url(#h)" d="M103 76c0 1.6-1.4 3-3 3H12c-1.6 0-3-1.4-3-3V12c0-1.6 1.4-3 3-3h88c1.6 0 3 1.4 3 3v64z" transform="matrix(1.085 0 0 1.114 3.234 6.97)"/>
  <path fill="#fff" d="M13 53c42-22.4 82.2-27.6 102-28.7V17H13v36z" opacity=".05"/>
  <path fill="url(#i)" d="m36 48-16 8v-4.3L30.7 46 20 40.3V36l16 8.3V48z" opacity=".9"/>
  <path fill="url(#j)" d="M56 60H40v-4h16v4z" opacity=".9"/>
  <path fill="#fff" d="M60 60H44v-4h16v4z" filter="url(#k)" opacity=".2" transform="matrix(1.125 0 0 1.5 -10.5 -29)"/>
  <path fill="url(#l)" d="m36 48-16 8v-4.3L30.7 46 20 40.3V36l16 8.3V48z" filter="url(#m)" opacity=".4"/>
  <path fill="url(#n)" d="m117.2 96.7-.6-.7H12l-.8.6c.2.2.5.4.8.4h104.5c.3 0 .5 0 .7-.3z"/>
  <g fill="url(#o)" transform="translate(8 15)">
    <circle cx="101" cy="86" r="1"/>
    <circle cx="104" cy="89" r="1"/>
    <circle cx="103" cy="92" r="1"/>
    <circle cx="97" cy="86" r="1"/>
    <circle cx="100" cy="89" r="1"/>
    <circle cx="93" cy="86" r="1"/>
    <circle cx="99" cy="92" r="1"/>
    <circle cx="96" cy="89" r="1"/>
    <circle cx="95" cy="92" r="1"/>
    <circle cx="89" cy="86" r="1"/>
    <circle cx="92" cy="89" r="1"/>
    <circle cx="85" cy="86" r="1"/>
    <circle cx="91" cy="92" r="1"/>
    <circle cx="88" cy="89" r="1"/>
    <circle cx="87" cy="92" r="1"/>
    <circle cx="81" cy="86" r="1"/>
    <circle cx="84" cy="89" r="1"/>
    <circle cx="77" cy="86" r="1"/>
    <circle cx="83" cy="92" r="1"/>
    <circle cx="80" cy="89" r="1"/>
    <circle cx="79" cy="92" r="1"/>
    <circle cx="73" cy="86" r="1"/>
    <circle cx="76" cy="89" r="1"/>
    <circle cx="69" cy="86" r="1"/>
    <circle cx="75" cy="92" r="1"/>
    <circle cx="72" cy="89" r="1"/>
    <circle cx="71" cy="92" r="1"/>
    <circle cx="65" cy="86" r="1"/>
    <circle cx="68" cy="89" r="1"/>
    <circle cx="61" cy="86" r="1"/>
    <circle cx="67" cy="92" r="1"/>
    <circle cx="64" cy="89" r="1"/>
    <circle cx="63" cy="92" r="1"/>
    <circle cx="57" cy="86" r="1"/>
    <circle cx="60" cy="89" r="1"/>
    <circle cx="53" cy="86" r="1"/>
    <circle cx="59" cy="92" r="1"/>
    <circle cx="56" cy="89" r="1"/>
    <circle cx="55" cy="92" r="1"/>
    <circle cx="49" cy="86" r="1"/>
    <circle cx="52" cy="89" r="1"/>
    <circle cx="45" cy="86" r="1"/>
    <circle cx="51" cy="92" r="1"/>
    <circle cx="48" cy="89" r="1"/>
    <circle cx="47" cy="92" r="1"/>
    <circle cx="41" cy="86" r="1"/>
    <circle cx="44" cy="89" r="1"/>
    <circle cx="37" cy="86" r="1"/>
    <circle cx="43" cy="92" r="1"/>
    <circle cx="40" cy="89" r="1"/>
    <circle cx="39" cy="92" r="1"/>
    <circle cx="33" cy="86" r="1"/>
    <circle cx="36" cy="89" r="1"/>
    <circle cx="29" cy="86" r="1"/>
    <circle cx="35" cy="92" r="1"/>
    <circle cx="32" cy="89" r="1"/>
    <circle cx="31" cy="92" r="1"/>
    <circle cx="25" cy="86" r="1"/>
    <circle cx="28" cy="89" r="1"/>
    <circle cx="21" cy="86" r="1"/>
    <circle cx="27" cy="92" r="1"/>
    <circle cx="24" cy="89" r="1"/>
    <circle cx="23" cy="92" r="1"/>
    <circle cx="17" cy="86" r="1"/>
    <circle cx="20" cy="89" r="1"/>
    <circle cx="13" cy="86" r="1"/>
    <circle cx="19" cy="92" r="1"/>
    <circle cx="16" cy="89" r="1"/>
    <circle cx="15" cy="92" r="1"/>
    <circle cx="9" cy="86" r="1"/>
    <circle cx="12" cy="89" r="1"/>
    <circle cx="11" cy="92" r="1"/>
    <circle cx="8" cy="89" r="1"/>
  </g>
  <path fill="url(#p)" d="M11 8c-1.6 0-3 1.5-3 3.3v97c0 1 .4 2 1 2.6V12.3c0-1.8 1.3-3.2 3-3.2h104c1.7 0 3 1.4 3 3.2.7 25 0 98.2 0 98.2v.3c.6-.7 1-1.6 1-2.5v-97c0-1.8-1.4-3.2-3-3.2H11z" opacity=".9"/>
</svg>