<?xml version="1.0" encoding="UTF-8" standalone="no"?>
<!-- Created with Inkscape (http://www.inkscape.org/) -->
<svg
   xmlns:svg="http://www.w3.org/2000/svg"
   xmlns="http://www.w3.org/2000/svg"
   xmlns:xlink="http://www.w3.org/1999/xlink"
   version="1.0"
   x="0.0000000"
   y="0.0000000"
   width="256.00000"
   height="256.00000"
   viewBox="0 0 256 256"
   id="svg1432"
   xml:space="preserve"><defs
   id="defs1536"><linearGradient
     id="linearGradient4785"><stop
       style="stop-color:#067a07;stop-opacity:1.0000000"
       offset="0.0000000"
       id="stop4787" /><stop
       style="stop-color:#a9eea8;stop-opacity:0.75634515"
       offset="1.0000000"
       id="stop4789" /></linearGradient><linearGradient
     x1="-202.46512"
     y1="52.046551"
     x2="-76.252312"
     y2="248.37537"
     id="linearGradient4791"
     xlink:href="#linearGradient4785"
     gradientUnits="userSpaceOnUse"
     gradientTransform="matrix(1.057310,0.000000,0.000000,1.057310,298.1635,7.020613)" /></defs>
	
<path
   d="M 107.52840,5.1703633 L 107.52840,25.641969 L 87.056800,25.641969 L 87.056800,46.113575 L 87.056800,66.585181 L 107.52840,66.585181 L 107.52840,87.056786 L 87.056800,87.056786 L 87.056800,107.52839 L 66.585194,107.52839 L 66.585194,128.00000 L 46.113588,128.00000 L 46.113588,148.47161 L 46.113588,168.94320 L 46.113588,189.41482 L 66.585194,189.41482 L 66.585194,209.88641 L 87.056800,209.88641 L 87.056800,230.35803 L 107.52840,230.35803 L 128.00000,230.35803 L 148.47161,230.35803 L 168.94320,230.35803 L 168.94320,209.88641 L 189.41483,209.88641 L 189.41483,189.41482 L 209.88643,189.41482 L 209.88643,168.94320 L 209.88643,148.47161 L 209.88643,128.00000 L 189.41483,128.00000 L 189.41483,107.52839 L 168.94320,107.52839 L 168.94320,87.056786 L 148.47161,87.056786 L 148.47161,66.585181 L 168.94320,66.585181 L 168.94320,46.113575 L 168.94320,25.641969 L 148.47161,25.641969 L 148.47161,5.1703633 L 128.00000,5.1703633 L 107.52840,5.1703633 z M 189.41483,107.52839 L 209.88643,107.52839 L 209.88643,87.056786 L 230.35802,87.056786 L 230.35802,66.585181 L 209.88643,66.585181 L 189.41483,66.585181 L 189.41483,87.056786 L 189.41483,107.52839 z M 189.41483,209.88641 L 189.41483,230.35803 L 189.41483,250.82964 L 209.88643,250.82964 L 230.35802,250.82964 L 230.35802,230.35803 L 209.88643,230.35803 L 209.88643,209.88641 L 189.41483,209.88641 z M 66.585194,209.88641 L 46.113588,209.88641 L 46.113588,230.35803 L 25.641983,230.35803 L 25.641983,250.82964 L 46.113588,250.82964 L 66.585194,250.82964 L 66.585194,230.35803 L 66.585194,209.88641 z M 66.585194,107.52839 L 66.585194,87.056786 L 66.585194,66.585181 L 46.113588,66.585181 L 25.641983,66.585181 L 25.641983,87.056786 L 46.113588,87.056786 L 46.113588,107.52839 L 66.585194,107.52839 z "
   style="opacity:1.0000000;fill:url(#linearGradient4791);fill-opacity:1.0000000;fill-rule:evenodd;stroke:#000000;stroke-width:8.4999981;stroke-linecap:square;stroke-linejoin:round;stroke-miterlimit:4.0000000;stroke-dasharray:none;stroke-opacity:1.0000000;overflow:visible"
   id="path4057" /></svg>