<?xml version="1.0" encoding="UTF-8" standalone="no"?>
<!-- Created with Inkscape (http://www.inkscape.org/) -->
<svg
   xmlns:dc="http://purl.org/dc/elements/1.1/"
   xmlns:cc="http://web.resource.org/cc/"
   xmlns:rdf="http://www.w3.org/1999/02/22-rdf-syntax-ns#"
   xmlns:svg="http://www.w3.org/2000/svg"
   xmlns="http://www.w3.org/2000/svg"
   xmlns:xlink="http://www.w3.org/1999/xlink"
   xmlns:sodipodi="http://sodipodi.sourceforge.net/DTD/sodipodi-0.dtd"
   xmlns:inkscape="http://www.inkscape.org/namespaces/inkscape"
   version="1.0"
   width="48"
   height="48"
   id="svg548"
   sodipodi:version="0.32"
   inkscape:version="0.45"
   sodipodi:docname="vlc.svg"
   inkscape:output_extension="org.inkscape.output.svg.inkscape"
   inkscape:export-xdpi="960"
   inkscape:export-ydpi="960"
   sodipodi:modified="true">
  <metadata
     id="metadata2209">
    <rdf:RDF>
      <cc:Work
         rdf:about="">
        <dc:format>image/svg+xml</dc:format>
        <dc:type
           rdf:resource="http://purl.org/dc/dcmitype/StillImage" />
      </cc:Work>
    </rdf:RDF>
  </metadata>
  <sodipodi:namedview
     inkscape:window-height="971"
     inkscape:window-width="1280"
     inkscape:pageshadow="2"
     inkscape:pageopacity="0.0"
     guidetolerance="10.0"
     gridtolerance="10.0"
     objecttolerance="10.0"
     borderopacity="1.0"
     bordercolor="#666666"
     pagecolor="#ffffff"
     id="base"
     inkscape:zoom="8.4791666"
     inkscape:cx="24"
     inkscape:cy="17.328526"
     inkscape:window-x="1281"
     inkscape:window-y="53"
     inkscape:current-layer="svg548" />
  <defs
     id="defs550">
    <linearGradient
       id="linearGradient8076">
      <stop
         style="stop-color:#cf6714;stop-opacity:1"
         offset="0"
         id="stop8078" />
      <stop
         style="stop-color:#d3790b;stop-opacity:1"
         offset="0.20227151"
         id="stop8080" />
      <stop
         style="stop-color:#f08300;stop-opacity:1"
         offset="0.51162791"
         id="stop8082" />
      <stop
         style="stop-color:#f3b230;stop-opacity:1"
         offset="0.7842077"
         id="stop8084" />
      <stop
         style="stop-color:#d24118;stop-opacity:0.92156863"
         offset="1"
         id="stop8086" />
    </linearGradient>
    <linearGradient
       id="linearGradient3183">
      <stop
         style="stop-color:#8a450c;stop-opacity:1"
         offset="0"
         id="stop5163" />
      <stop
         style="stop-color:#e8860e;stop-opacity:1"
         offset="0.20227151"
         id="stop3195" />
      <stop
         style="stop-color:#ffac24;stop-opacity:1"
         offset="0.51162791"
         id="stop3191" />
      <stop
         style="stop-color:#e8860e;stop-opacity:1"
         offset="0.75581396"
         id="stop3193" />
      <stop
         style="stop-color:#70440d;stop-opacity:0.92156863"
         offset="1"
         id="stop3187" />
    </linearGradient>
    <linearGradient
       id="linearGradient556">
      <stop
         style="stop-color:#7d7d7d;stop-opacity:1"
         offset="0"
         id="stop557" />
      <stop
         style="stop-color:#dddddd;stop-opacity:1"
         offset="0.25"
         id="stop8106" />
      <stop
         style="stop-color:#ffffff;stop-opacity:1"
         offset="0.5"
         id="stop8096" />
      <stop
         style="stop-color:#c2c2c2;stop-opacity:1"
         offset="0.75"
         id="stop8108" />
      <stop
         style="stop-color:#868686;stop-opacity:1"
         offset="1"
         id="stop558" />
    </linearGradient>
    <linearGradient
       x1="22.068424"
       y1="29.046476"
       x2="22.244799"
       y2="46.707714"
       id="linearGradient3203"
       xlink:href="#linearGradient8076"
       gradientUnits="userSpaceOnUse" />
    <linearGradient
       x1="12.348506"
       y1="19.501543"
       x2="34.751446"
       y2="19.932304"
       id="linearGradient7105"
       xlink:href="#linearGradient3183"
       gradientUnits="userSpaceOnUse" />
    <linearGradient
       x1="10.877795"
       y1="30.341204"
       x2="37.145557"
       y2="30.341204"
       id="linearGradient8094"
       xlink:href="#linearGradient556"
       gradientUnits="userSpaceOnUse" />
    <linearGradient
       x1="16.368952"
       y1="12.608516"
       x2="30.440506"
       y2="12.608516"
       id="linearGradient8104"
       xlink:href="#linearGradient556"
       gradientUnits="userSpaceOnUse" />
    <filter
       id="filter11385">
      <feGaussianBlur
         id="feGaussianBlur11387"
         stdDeviation="0.45960596"
         inkscape:collect="always" />
    </filter>
    <filter
       id="filter14015">
      <feGaussianBlur
         id="feGaussianBlur14017"
         stdDeviation="0.3381682"
         inkscape:collect="always" />
    </filter>
    <filter
       id="filter4399">
      <feGaussianBlur
         id="feGaussianBlur4401"
         stdDeviation="0.23950837"
         inkscape:collect="always" />
    </filter>
  </defs>
  <g
     style="opacity:1;display:inline"
     id="layer2">
    <path
       d="M 8.1844757,29.620827 L 3.5896823,44.123143 L 3.8768569,46.707714 L 43.363362,46.42054 L 43.219775,44.26673 L 38.19422,29.046477 L 8.1844757,29.620827 z "
       style="fill:url(#linearGradient3203);fill-opacity:1;fill-rule:evenodd;stroke:#963304;stroke-width:0.80000001;stroke-linecap:butt;stroke-linejoin:miter;stroke-miterlimit:4;stroke-dasharray:none;stroke-opacity:1"
       id="path3244" />
  </g>
  <g
     style="display:inline"
     id="layer6">
    <path
       d="M 23.117554,40.820635 C 23.117554,40.820635 13.468377,40.163656 11.03057,35.410608 C 8.5792666,30.631246 8.0408884,29.764414 8.0408884,29.764414 L 38.19422,29.046477 C 38.19422,29.046477 40.538527,33.682019 35.322474,37.518128 C 32.381935,39.680726 22.856031,40.820635 23.117554,40.820635 z "
       style="opacity:0.57320874;fill:#832e0a;fill-opacity:1;fill-rule:evenodd;stroke:#000000;stroke-width:0;stroke-linecap:butt;stroke-linejoin:miter;stroke-miterlimit:4;stroke-dasharray:none;stroke-opacity:1;display:inline;filter:url(#filter11385)"
       id="path10181"
       sodipodi:nodetypes="csccsc" />
  </g>
  <g
     style="opacity:1;display:inline"
     id="layer3"
     transform="translate(0.5896806,-0.2358722)">
    <path
       d="M 10.481872,35.938667 C 10.481872,35.938667 12.461567,41.339346 22.830379,41.10781 C 31.381763,40.912323 35.896823,38.236064 35.753236,36.800191 C 35.609649,35.364318 26.327241,2.1115422 26.327241,2.1115422 C 26.327241,2.1115422 24.840602,1.0469554 23.261141,1.0469554 C 21.681681,1.0469554 20.532983,2.0520664 20.532983,2.0520664 L 10.481872,35.938667 z "
       style="fill:url(#linearGradient7105);fill-opacity:1;fill-rule:evenodd;stroke:#ea7b11;stroke-width:0;stroke-linecap:butt;stroke-linejoin:miter;stroke-miterlimit:4;stroke-dasharray:none;stroke-opacity:1"
       id="path3247" />
    <path
       d="M 10.623798,36.035186 C 10.623798,36.035186 12.603493,36.251459 22.972305,36.302861 C 31.523689,36.34626 36.038749,36.940393 35.895162,37.259159 C 35.751575,37.577924 32.499833,41.801169 32.499833,41.801169 C 32.499833,41.801169 24.982528,45.196429 23.403067,45.196429 C 21.823607,45.196429 14.213481,42.245134 14.213481,42.245134 L 10.623798,36.035186 z "
       style="opacity:0.53582554;fill:#cb5a0b;fill-opacity:0.7492163;fill-rule:evenodd;stroke:#000000;stroke-width:0;stroke-linecap:butt;stroke-linejoin:miter;stroke-miterlimit:4;stroke-dasharray:none;stroke-opacity:1;display:inline;filter:url(#filter4399)"
       id="path8112"
       sodipodi:nodetypes="ccscscc" />
  </g>
  <g
     style="display:inline"
     id="layer7"
     transform="translate(0.5896806,-0.2358722)">
    <path
       d="M 20.750477,2.8889544 L 11.482244,35.501928 C 11.482244,35.501928 9.3177387,35.917255 11.44662,37.261963 C 13.586228,38.613446 15.419688,40.024672 16.883313,39.756048 C 18.06366,39.539415 22.158725,4.0652772 22.158725,4.0652772 L 20.750477,2.8889544 z "
       style="opacity:0.75700935;fill:#ea690e;fill-opacity:1;fill-rule:evenodd;stroke:#000000;stroke-width:0;stroke-linecap:butt;stroke-linejoin:miter;stroke-miterlimit:4;stroke-dasharray:none;stroke-opacity:1;display:inline;filter:url(#filter14015)"
       id="path11904"
       sodipodi:nodetypes="ccsscc" />
    <path
       d="M 28.384958,3.4365335 L 19.116725,36.049507 C 19.116725,36.049507 18.249517,37.408323 20.378398,38.753031 C 22.518006,40.104514 23.054169,40.572251 24.517794,40.303627 C 25.698141,40.086994 29.793206,4.6128558 29.793206,4.6128558 L 28.384958,3.4365335 z "
       transform="matrix(0.9270396,-0.3749634,0.3749634,0.9270396,-3.4656041,10.541685)"
       style="opacity:0.75700935;fill:#ea690e;fill-opacity:1;fill-rule:evenodd;stroke:#000000;stroke-width:0;stroke-linecap:butt;stroke-linejoin:miter;stroke-miterlimit:4;stroke-dasharray:none;stroke-opacity:1;display:inline;filter:url(#filter14015)"
       id="path2245" />
  </g>
  <g
     style="opacity:1;display:inline"
     id="layer4"
     transform="translate(0.5896806,-0.2358722)">
    <path
       d="M 18.759169,7.8637439 C 18.759169,7.8637439 19.92047,9.4760781 23.26114,9.5258213 C 26.099671,9.5687397 28.008232,8.2103943 28.008232,8.2103943 L 30.338974,16.393375 C 30.338974,16.393375 26.134878,18.513799 23.117554,18.421018 C 19.064425,18.296386 16.368952,16.123622 16.368952,16.123622 L 18.759169,7.8637439 z "
       style="fill:url(#linearGradient8104);fill-opacity:1;fill-rule:evenodd;stroke:#ffffff;stroke-width:0;stroke-linecap:butt;stroke-linejoin:miter;stroke-miterlimit:4;stroke-dasharray:none;stroke-opacity:1"
       id="path3250" />
    <path
       d="M 13.724904,24.867345 C 13.724904,24.867345 17.946375,27.676424 23.548315,27.773931 C 27.570681,27.845785 32.687138,25.221213 32.687138,25.221213 L 34.748125,32.70517 C 34.748125,32.70517 31.072637,36.708331 23.320616,36.676344 C 16.240231,36.646578 11.486984,31.987235 11.486984,31.987235 L 13.724904,24.867345 z "
       style="opacity:1;fill:url(#linearGradient8094);fill-opacity:1;fill-rule:evenodd;stroke:#ffffff;stroke-width:0;stroke-linecap:butt;stroke-linejoin:miter;stroke-miterlimit:4;stroke-dasharray:none;stroke-opacity:1"
       id="path3252" />
  </g>
  <g
     style="display:inline"
     id="layer8"
     transform="translate(0.5896806,-0.2358722)">
    <path
       d="M 10.571706,35.814252 L 20.389395,2.1956544 C 20.389395,2.1956544 21.682011,0.86828754 23.548316,0.90336881 C 25.493905,0.93926563 26.420061,2.1956544 26.420061,2.1956544 L 35.418284,36.305983"
       style="fill:none;fill-rule:evenodd;stroke:#882e00;stroke-width:0.80000001;stroke-linecap:square;stroke-linejoin:miter;stroke-miterlimit:4;stroke-dasharray:none;stroke-opacity:1"
       id="path3222" />
  </g>
  <path
     id="path3223"
     style="opacity:0.91135733;fill:none;fill-rule:evenodd;stroke:#ffbc30;stroke-width:1;stroke-linecap:butt;stroke-linejoin:miter;stroke-miterlimit:4;stroke-dasharray:none;stroke-opacity:1"
     d="M 4.1109736,44.320804 L 42.647183,43.740913" />
  <path
     id="path8110"
     style="opacity:0.91135733;fill:#643108;fill-opacity:1;fill-rule:nonzero;stroke:#805400;stroke-width:0;stroke-miterlimit:4;stroke-dasharray:none;stroke-opacity:1"
     d="M 26.124865,2.354143 C 26.124865,2.8447934 25.204356,3.2425441 24.068852,3.2425441 C 22.933347,3.2425441 22.012838,2.8447934 22.012838,2.354143 C 22.012838,1.8634927 22.933347,1.4657419 24.068852,1.4657419 C 25.204356,1.4657419 26.124865,1.8634927 26.124865,2.354143 L 26.124865,2.354143 z " />
</svg>
