<?xml version="1.0" encoding="UTF-8" standalone="no"?>
<!-- Created with Inkscape (http://www.inkscape.org/) -->

<svg
   xmlns:dc="http://purl.org/dc/elements/1.1/"
   xmlns:cc="http://creativecommons.org/ns#"
   xmlns:rdf="http://www.w3.org/1999/02/22-rdf-syntax-ns#"
   xmlns:svg="http://www.w3.org/2000/svg"
   xmlns="http://www.w3.org/2000/svg"
   xmlns:xlink="http://www.w3.org/1999/xlink"
   xmlns:sodipodi="http://sodipodi.sourceforge.net/DTD/sodipodi-0.dtd"
   xmlns:inkscape="http://www.inkscape.org/namespaces/inkscape"
   version="1.0"
   width="280"
   height="280"
   viewBox="0 0 280 280"
   id="svg2"
   xml:space="preserve"
   style="fill-rule:evenodd"
   inkscape:version="0.91 r13725"
   sodipodi:docname="xeyes.svg"><metadata
     id="metadata53"><rdf:RDF><cc:Work
         rdf:about=""><dc:format>image/svg+xml</dc:format><dc:type
           rdf:resource="http://purl.org/dc/dcmitype/StillImage" /></cc:Work></rdf:RDF></metadata><sodipodi:namedview
     pagecolor="#ffffff"
     bordercolor="#666666"
     borderopacity="1"
     objecttolerance="10"
     gridtolerance="10"
     guidetolerance="10"
     inkscape:pageopacity="0"
     inkscape:pageshadow="2"
     inkscape:window-width="1615"
     inkscape:window-height="1026"
     id="namedview51"
     showgrid="false"
     inkscape:zoom="0.84285714"
     inkscape:cx="140"
     inkscape:cy="140"
     inkscape:window-x="65"
     inkscape:window-y="24"
     inkscape:window-maximized="1"
     inkscape:current-layer="svg2" /><defs
     id="defs4"><linearGradient
       x1="123.511"
       y1="115.806"
       x2="112.643"
       y2="99.142799"
       id="id0"
       gradientUnits="userSpaceOnUse"><stop
         id="stop9"
         style="stop-color:#2b2828;stop-opacity:1"
         offset="0" /><stop
         id="stop11"
         style="stop-color:#4f5052;stop-opacity:1"
         offset="1" /><stop
         id="stop13"
         style="stop-color:#4f5052;stop-opacity:1"
         offset="1" /></linearGradient><linearGradient
       x1="123.919"
       y1="116.112"
       x2="113.051"
       y2="99.448799"
       id="id2"
       gradientUnits="userSpaceOnUse"><stop
         id="stop17"
         style="stop-color:#1f1a17;stop-opacity:1"
         offset="0" /><stop
         id="stop19"
         style="stop-color:#ffffff;stop-opacity:1"
         offset="0.988235" /><stop
         id="stop21"
         style="stop-color:#ffffff;stop-opacity:1"
         offset="1" /><stop
         id="stop23"
         style="stop-color:#4f5052;stop-opacity:1"
         offset="1" /></linearGradient><linearGradient
       x1="116.589"
       y1="108.927"
       x2="113.748"
       y2="103.97"
       id="id4"
       gradientUnits="userSpaceOnUse"><stop
         id="stop27"
         style="stop-color:#aaabae;stop-opacity:1"
         offset="0" /><stop
         id="stop29"
         style="stop-color:#ffffff;stop-opacity:1"
         offset="0.43921599" /><stop
         id="stop31"
         style="stop-color:#ffffff;stop-opacity:1"
         offset="1" /><stop
         id="stop33"
         style="stop-color:#ffffff;stop-opacity:1"
         offset="1" /></linearGradient><linearGradient
       x1="99.657898"
       y1="142.30701"
       x2="56.392101"
       y2="66.822098"
       id="id6"
       gradientUnits="userSpaceOnUse"><stop
         id="stop37"
         style="stop-color:#aaabae;stop-opacity:1"
         offset="0" /><stop
         id="stop39"
         style="stop-color:#ffffff;stop-opacity:1"
         offset="0.50196099" /><stop
         id="stop41"
         style="stop-color:#ffffff;stop-opacity:1"
         offset="1" /><stop
         id="stop43"
         style="stop-color:#ffffff;stop-opacity:1"
         offset="1" /></linearGradient><linearGradient
       x1="116.875"
       y1="109.283"
       x2="113.773"
       y2="103.87"
       id="id7"
       gradientUnits="userSpaceOnUse"><stop
         id="stop46"
         style="stop-color:#969594;stop-opacity:1"
         offset="0" /><stop
         id="stop48"
         style="stop-color:#ffffff;stop-opacity:1"
         offset="0.50196099" /><stop
         id="stop50"
         style="stop-color:#ffffff;stop-opacity:1"
         offset="1" /><stop
         id="stop52"
         style="stop-color:#ffffff;stop-opacity:1"
         offset="1" /></linearGradient><linearGradient
       x1="123.919"
       y1="116.112"
       x2="113.051"
       y2="99.448799"
       id="linearGradient2465"
       xlink:href="#id2"
       gradientUnits="userSpaceOnUse"
       gradientTransform="matrix(2.094143,0,0,2.2650386,-89.654494,-103.02212)" /><linearGradient
       x1="123.511"
       y1="115.806"
       x2="112.643"
       y2="99.142799"
       id="linearGradient2467"
       xlink:href="#id0"
       gradientUnits="userSpaceOnUse"
       gradientTransform="matrix(2.094143,0,0,2.2650386,-89.654494,-103.02212)" /><linearGradient
       x1="116.875"
       y1="109.283"
       x2="113.773"
       y2="103.87"
       id="linearGradient2469"
       xlink:href="#id7"
       gradientUnits="userSpaceOnUse" /><linearGradient
       x1="116.589"
       y1="108.927"
       x2="113.748"
       y2="103.97"
       id="linearGradient2471"
       xlink:href="#id4"
       gradientUnits="userSpaceOnUse"
       gradientTransform="matrix(2.094143,0,0,2.2650386,-89.654494,-103.02212)" /><linearGradient
       x1="99.657898"
       y1="142.30701"
       x2="56.392101"
       y2="66.822098"
       id="linearGradient2485"
       xlink:href="#id6"
       gradientUnits="userSpaceOnUse"
       gradientTransform="matrix(2.094143,0,0,2.2650386,-89.654494,-103.02212)" /><linearGradient
       x1="158.42844"
       y1="135.10719"
       x2="125.18853"
       y2="79.768799"
       id="linearGradient3264"
       xlink:href="#id6"
       gradientUnits="userSpaceOnUse"
       gradientTransform="matrix(2.094143,0,0,2.2650386,-89.654494,-103.02212)" /><linearGradient
       x1="99.044098"
       y1="106.1128"
       x2="94.658333"
       y2="100.0312"
       id="linearGradient3274"
       xlink:href="#id4"
       gradientUnits="userSpaceOnUse"
       gradientTransform="matrix(2.094143,0,0,2.2650386,-89.654494,-103.02212)" /><linearGradient
       x1="106.08701"
       y1="117.71789"
       x2="91.192894"
       y2="93.552132"
       id="linearGradient3282"
       xlink:href="#id0"
       gradientUnits="userSpaceOnUse"
       gradientTransform="matrix(2.094143,0,0,2.2650386,-89.654494,-103.02212)" /><linearGradient
       x1="116.875"
       y1="109.283"
       x2="113.773"
       y2="103.87"
       id="linearGradient3284"
       xlink:href="#id7"
       gradientUnits="userSpaceOnUse"
       gradientTransform="matrix(2.094143,0,0,2.2650386,-89.654494,-103.02212)" /><linearGradient
       x1="108.14464"
       y1="118.44586"
       x2="91.607681"
       y2="94.704063"
       id="linearGradient3292"
       xlink:href="#id2"
       gradientUnits="userSpaceOnUse"
       gradientTransform="matrix(2.094143,0,0,2.2650386,-89.654494,-103.02212)" /><linearGradient
       x1="100.02622"
       y1="107.02416"
       x2="94.669739"
       y2="99.578354"
       id="linearGradient3300"
       xlink:href="#id7"
       gradientUnits="userSpaceOnUse"
       gradientTransform="matrix(2.094143,0,0,2.2650386,-89.654494,-103.02212)" /></defs><path
     d="m 73.740821,52.145718 c 37.208739,0 67.383879,36.574713 67.383879,81.674802 0,45.10032 -30.17514,81.67504 -67.383879,81.67504 -37.208531,0 -67.383667,-36.57472 -67.383667,-81.67504 0,-45.100089 30.175136,-81.674802 67.383667,-81.674802 l 0,0 z"
     id="_139662656"
     style="fill:url(#linearGradient2485)"
     inkscape:connector-curvature="0" /><path
     d="m 142.17135,133.82165 -2.09414,0 0.003,0 -0.0876,-4.15385 -0.25612,-4.0988 -0.42448,-4.03382 -0.58448,-3.97333 -0.74425,-3.89815 -0.89608,-3.827 -1.04729,-3.74614 -1.19031,-3.66031 -1.33312,-3.573773 -1.46779,-3.472984 -1.60244,-3.37604 -1.7283,-3.26981 -1.85435,-3.15837 -1.97206,-3.041266 -2.08934,-2.92394 -2.19885,-2.792565 -2.30333,-2.665044 -2.41247,-2.531861 -2.50459,-2.389615 -2.60114,-2.242162 -2.69308,-2.089272 -2.77681,-1.936155 -2.85621,-1.772845 -2.935781,-1.60931 -3.01096,-1.440792 -3.077549,-1.262306 -3.144151,-1.083142 -3.202357,-0.894463 -3.260796,-0.705108 -3.310627,-0.510765 -3.364031,-0.310989 -3.4099,-0.101924 0,-2.257791 3.524236,0.110534 3.478792,0.320051 3.433347,0.528433 3.375132,0.73138 3.317118,0.929798 3.250538,1.118477 3.183935,1.306248 3.108974,1.484732 3.03376,1.662312 2.95465,1.834907 2.86687,1.997765 2.77474,2.159942 2.68281,2.312376 2.58669,2.460285 2.4778,2.60253 2.37704,2.74432 2.26419,2.880904 2.14671,3.003214 2.02901,3.129604 1.90338,3.246254 1.77771,3.358146 1.64307,3.464376 1.50882,3.569934 1.36581,3.66211 1.22298,3.75724 1.072,3.8431 0.92036,3.92395 0.7606,4.00414 0.60123,4.07026 0.43243,4.13982 0.26449,4.19576 0.0876,4.2508 0.003,0 0,0 z m -68.430954,82.80392 0,-2.25778 0,0 3.409901,-0.10184 3.364031,-0.31098 3.310626,-0.51076 3.260795,-0.70511 3.202358,-0.89447 3.144146,-1.08313 3.077561,-1.26231 3.010945,-1.4408 2.935801,-1.6093 2.85619,-1.77285 2.77683,-1.93615 2.69307,-2.08929 2.60113,-2.24214 2.50461,-2.38963 2.41245,-2.53186 2.30334,-2.66504 2.19886,-2.79257 2.08932,-2.92393 1.97206,-3.0415 1.85437,-3.15815 1.72829,-3.2698 1.60243,-3.37604 1.46779,-3.47322 1.33314,-3.57355 1.19031,-3.66029 1.04727,-3.74638 0.89609,-3.827 0.74426,-3.89814 0.58447,-3.9731 0.42448,-4.03404 0.25612,-4.09881 0.0838,-4.15386 2.09414,0 -0.0916,4.2508 -0.26449,4.19577 -0.43244,4.14003 -0.60122,4.07003 -0.76059,4.00415 -0.92037,3.92395 -1.072,3.84332 -1.22299,3.75725 -1.36579,3.66188 -1.50883,3.57016 -1.64307,3.46437 -1.77771,3.35816 -1.90337,3.24602 -2.02902,3.12984 -2.14671,3.0032 -2.26419,2.88091 -2.37705,2.7443 -2.4778,2.60253 -2.58668,2.4603 -2.68281,2.31237 -2.77473,2.15995 -2.86688,1.99777 -2.95465,1.8349 -3.03377,1.66231 -3.108965,1.48473 -3.183935,1.30625 -3.250537,1.11847 -3.317118,0.92981 -3.375131,0.73138 -3.433348,0.52844 -3.478791,0.32005 -3.524237,0.11056 0,0 0,0 z m -68.4267531,-82.80392 2.086185,0 0.00402,0 0.083763,4.15386 0.2561137,4.09881 0.424483,4.03404 0.584476,3.9731 0.744258,3.89813 0.8960834,3.827 1.047072,3.74639 1.190521,3.66029 1.33313,3.57355 1.467786,3.47322 1.602438,3.37603 1.728297,3.26981 1.854364,3.15815 1.972054,3.04149 2.089326,2.92394 2.198643,2.79256 2.303556,2.66504 2.412453,2.53187 2.504595,2.38963 2.601135,2.24214 2.693067,2.08928 2.776834,1.93616 2.856203,1.77285 2.93578,1.6093 3.010749,1.44079 3.077552,1.26231 3.144147,1.08314 3.202576,0.89447 3.260573,0.7051 3.310636,0.51077 3.364031,0.31098 3.409892,0.10183 0,2.2578 -3.524227,-0.11056 -3.478793,-0.32005 -3.433347,-0.52844 -3.374929,-0.73138 -3.317326,-0.92981 -3.250531,-1.11847 -3.183933,-1.30624 -3.108757,-1.48474 -3.033785,-1.66231 -2.954627,-1.8349 -2.866881,-1.99777 -2.77474,-2.15995 -2.682808,-2.31237 -2.586685,-2.4603 -2.47779,-2.60252 -2.377271,-2.74431 -2.263979,-2.88091 -2.146706,-3.0032 -2.029015,-3.12984 -1.903366,-3.24602 -1.777719,-3.35816 -1.643065,-3.46437 -1.508829,-3.57016 -1.3658,-3.66188 -1.2231894,-3.75725 -1.071783,-3.84332 -0.9203773,-3.92395 -0.760592,-4.00413 -0.6012288,-4.07005 -0.4324397,-4.14003 -0.26449,-4.19577 -0.091721,-4.2508 0.00402,0 0,0 z m 68.4267531,-82.803696 0,2.257792 0,0 -3.40989,0.101923 -3.364033,0.310987 -3.310635,0.510767 -3.260573,0.705109 -3.202577,0.894462 -3.144146,1.083142 -3.077552,1.262306 -3.01075,1.440791 -2.93578,1.60931 -2.856201,1.772845 -2.776834,1.936156 -2.693067,2.089272 -2.601136,2.242162 -2.504596,2.389614 -2.412453,2.531861 -2.303557,2.665045 -2.198641,2.792565 -2.089327,2.923939 -1.972054,3.041267 -1.854364,3.158371 -1.728296,3.269809 -1.602439,3.37604 -1.467785,3.472988 -1.33313,3.573773 -1.19052,3.66031 -1.047073,3.74614 -0.8960854,3.82701 -0.744257,3.89814 -0.584475,3.97333 -0.424482,4.03381 -0.2561148,4.0988 -0.087741,4.15387 -2.0861851,0 0.087742,-4.2508 0.26449,-4.19578 0.4324396,-4.1398 0.6012288,-4.07027 0.7605932,-4.00413 0.9203753,-3.92397 1.071782,-3.84308 1.2231904,-3.75724 1.3658,-3.662122 1.50883,-3.569929 1.643066,-3.464377 1.777718,-3.358146 1.903366,-3.246254 2.029015,-3.129603 2.146706,-3.003215 2.263979,-2.880901 2.377271,-2.744322 2.47779,-2.60253 2.586685,-2.460284 2.682808,-2.312378 2.774739,-2.15994 2.866882,-1.997766 2.954628,-1.834907 3.033785,-1.662312 3.108754,-1.484733 3.183936,-1.306247 3.250528,-1.118477 3.317329,-0.929798 3.374928,-0.73138 3.433348,-0.528434 3.478791,-0.32005 3.524227,-0.110534 0,0 0,0 z"
     id="_139286856"
     style="fill:#2b2828;fill-rule:nonzero"
     inkscape:connector-curvature="0" /><ellipse
     cx="118.66813"
     cy="137.414"
     rx="19.252296"
     ry="24.52561"
     id="_138036856"
     style="fill:url(#linearGradient3292);fill-opacity:1" /><path
     d="m 274.60915,140.32911 c -2.2e-4,34.60616 -29.73893,62.67179 -66.40865,62.67179 -36.67032,0 -66.40861,-28.06563 -66.40841,-62.67157 -2e-4,-34.60684 29.73809,-62.672028 66.40841,-62.672028 36.66972,0 66.40865,28.065188 66.40865,62.671808 z"
     id="_139708528"
     style="fill:url(#linearGradient3264);fill-opacity:1"
     inkscape:connector-curvature="0" /><path
     d="m 208.19969,204.13298 0,-2.26504 0,0.003 3.37198,-0.0815 3.32697,-0.24213 3.27816,-0.38982 3.22499,-0.54677 3.16759,-0.68653 3.10646,-0.8358 3.04028,-0.96786 2.97075,-1.10919 2.89683,-1.23761 2.82249,-1.36197 2.74018,-1.48699 2.65348,-1.60388 2.56281,-1.72097 2.46796,-1.82971 2.37308,-1.9391 2.26565,-2.04442 2.16221,-2.13684 2.05498,-2.23876 1.93478,-2.32324 1.81918,-2.41318 1.69899,-2.49856 1.56662,-2.5758 1.44224,-2.64896 1.3015,-2.72304 1.16874,-2.79301 1.01985,-2.85418 0.87871,-2.91171 0.7254,-2.96992 0.57191,-3.02381 0.41422,-3.06982 0.25235,-3.11579 0.0864,-3.16267 2.08158,0 -0.0864,3.28635 -0.26074,3.24851 -0.43054,3.20254 -0.59621,3.14795 -0.75808,3.09358 -0.91137,3.03584 -1.06886,2.96925 -1.20977,2.89902 -1.35848,2.82902 -1.49125,2.75543 -1.63196,2.67318 -1.75593,2.58692 -1.88451,2.5015 -2.0085,2.41204 -2.11991,2.30944 -2.23592,2.21658 -2.34732,2.10602 -2.44638,2.00116 -2.54961,1.89176 -2.64449,1.77398 -2.73515,1.65687 -2.82187,1.53139 -2.90416,1.40636 -2.98647,1.27297 -3.06036,1.13545 -3.13032,1.00318 -3.1961,0.85348 -3.25722,0.71326 -3.31503,0.55583 -3.36781,0.40749 -3.417,0.24212 -3.46161,0.0815 0,0.003 0,0 z m -67.44922,-63.80409 2.08158,0 0,0 0.0864,3.16267 0.25212,3.11579 0.41423,3.0698 0.57211,3.02361 0.72522,2.97012 0.87869,2.91172 1.01964,2.85417 1.16874,2.79281 1.30152,2.72301 1.44223,2.64897 1.56662,2.57579 1.69898,2.49881 1.81919,2.41294 1.93477,2.32324 2.05478,2.23877 2.1622,2.13685 2.26565,2.04442 2.37308,1.93909 2.46795,1.8297 2.56282,1.72098 2.65371,1.60388 2.74017,1.48699 2.8225,1.36196 2.89681,1.23763 2.97076,1.10919 3.04027,0.96785 3.10645,0.8358 3.16761,0.68654 3.22497,0.54677 3.27839,0.38982 3.32696,0.24212 3.372,0.0773 0,2.26505 -3.46163,-0.0859 -3.41701,-0.24212 -3.36801,-0.40749 -3.31503,-0.55584 -3.25722,-0.71326 -3.1961,-0.85347 -3.13033,-1.00318 -3.06037,-1.13547 -2.98646,-1.27295 -2.90416,-1.40637 -2.82185,-1.53138 -2.73536,-1.65689 -2.64448,-1.77396 -2.54962,-1.89178 -2.4464,-2.00116 -2.34731,-2.10603 -2.23592,-2.21655 -2.11969,-2.30945 -2.0085,-2.41203 -1.88451,-2.5013 -1.75595,-2.58712 -1.63196,-2.6732 -1.49124,-2.75542 -1.35847,-2.82902 -1.20979,-2.89881 -1.06864,-2.96922 -0.91137,-3.03584 -0.75786,-3.09381 -0.59641,-3.14774 -0.43057,-3.20252 -0.2605,-3.24853 -0.0864,-3.28634 0,0 0,0 z m 67.44922,-63.800258 0,2.256432 0,0.0042 -3.372,0.07724 -3.32697,0.242132 -3.27838,0.389813 -3.22498,0.546554 -3.1676,0.68676 -3.10644,0.835798 -3.04028,0.967851 -2.97076,1.109191 -2.89682,1.237391 -2.82249,1.362193 -2.74019,1.486999 -2.6537,1.603873 -2.56281,1.720977 -2.46795,1.829697 -2.37308,1.938873 -2.26565,2.044428 -2.1622,2.136836 -2.05479,2.23876 -1.93477,2.32325 -1.81918,2.41317 -1.69898,2.49856 -1.56663,2.57581 -1.44223,2.64918 -1.30152,2.72304 -1.16873,2.79278 -1.01963,2.8544 -0.87872,2.91171 -0.7252,2.96993 -0.57211,3.02381 -0.41423,3.06981 -0.25212,3.11603 -0.0864,3.16266 -2.08158,0 0.0864,-3.28635 0.2605,-3.24874 0.43056,-3.20254 0.59642,-3.14794 0.75786,-3.09359 0.91136,-3.03584 1.06865,-2.96945 1.20979,-2.89881 1.35847,-2.82903 1.49123,-2.75564 1.63196,-2.6732 1.75595,-2.58691 1.88452,-2.5015 2.00849,-2.412041 2.11971,-2.309433 2.2359,-2.216564 2.34732,-2.106035 2.44638,-2.000934 2.54963,-1.89176 2.64449,-1.773978 2.73536,-1.656876 2.82185,-1.531393 2.90416,-1.40659 2.98645,-1.272725 3.06039,-1.135463 3.13034,-1.003186 3.19607,-0.853466 3.25723,-0.713486 3.31502,-0.555614 3.36802,-0.407481 3.417,-0.242134 3.46164,-0.08585 0,0.0042 0,0 z m 67.44941,63.800038 -2.08158,0 -0.003,0 -0.0825,-3.1627 -0.25235,-3.116 -0.41421,-3.06959 -0.57192,-3.02383 -0.7254,-2.97014 -0.87871,-2.9117 -1.01964,-2.85418 -1.16874,-2.79302 -1.30172,-2.72302 -1.44223,-2.64897 -1.56642,-2.5758 -1.69919,-2.49856 -1.81898,-2.41318 -1.93477,-2.32325 -2.05499,-2.238765 -2.16219,-2.136836 -2.26566,-2.044421 -2.37308,-1.938872 -2.46795,-1.829699 -2.56302,-1.720976 -2.6535,-1.603873 -2.74018,-1.486999 -2.82247,-1.362194 -2.89685,-1.237391 -2.97075,-1.10919 -3.04028,-0.967851 -3.10645,-0.835798 -3.16759,-0.686759 -3.22499,-0.546555 -3.27816,-0.389813 -3.32697,-0.242133 -3.37198,-0.08155 0,-2.256431 3.46161,0.08155 3.41701,0.242133 3.3678,0.407481 3.31503,0.555614 3.25722,0.713487 3.1961,0.853466 3.13032,1.003186 3.06037,1.135463 2.98646,1.272725 2.90416,1.406589 2.82187,1.531393 2.73515,1.656876 2.64469,1.773978 2.54964,1.89176 2.44637,2.000935 2.34731,2.106034 2.23593,2.216568 2.11989,2.309433 2.0085,2.412035 1.88432,2.50151 1.75614,2.5869 1.63176,2.67321 1.49123,2.75541 1.35868,2.82904 1.20979,2.89901 1.06864,2.96924 0.91137,3.03583 0.75808,3.09383 0.5962,3.14795 0.43056,3.20232 0.26071,3.24873 0.0904,3.28636 -0.003,0 0,0 z"
     id="_139709320"
     style="fill:#2b2828;fill-rule:nonzero"
     inkscape:connector-curvature="0" /><ellipse
     cx="118.02146"
     cy="136.36531"
     rx="19.252296"
     ry="24.52561"
     id="_139757264"
     style="fill:url(#linearGradient3282);fill-opacity:1;fill-rule:evenodd" /><ellipse
     cx="158.47008"
     cy="141.10602"
     rx="14.436395"
     ry="16.714853"
     id="_137683904"
     style="fill:url(#linearGradient2465)" /><ellipse
     cx="157.61566"
     cy="140.41289"
     rx="14.436395"
     ry="16.714853"
     id="_139765184"
     style="fill:url(#linearGradient2467)" /><ellipse
     cx="113.76218"
     cy="131.04926"
     id="_139768800"
     style="fill:url(#linearGradient3300);fill-opacity:1"
     rx="7.0430222"
     ry="7.6177778" /><ellipse
     cx="151.85048"
     cy="138.37892"
     id="_139770000"
     style="fill:url(#linearGradient3284)"
     rx="5.2022705"
     ry="5.6268086" /><ellipse
     cx="113.49875"
     cy="130.43994"
     id="_138037624"
     style="fill:url(#linearGradient3274);fill-opacity:1"
     rx="6.3678703"
     ry="6.8875294" /><ellipse
     cx="151.5238"
     cy="138.08897"
     id="_138336520"
     style="fill:url(#linearGradient2471)"
     rx="4.6629233"
     ry="5.0434484" /></svg>