<?xml version="1.0" encoding="UTF-8" standalone="no"?>
<!-- Generator: Adobe Illustrator 19.0.0, SVG Export Plug-In . SVG Version: 6.00 Build 0)  -->

<svg
   version="1.1"
   id="Capa_1"
   x="0px"
   y="0px"
   viewBox="0 0 60 60"
   style="enable-background:new 0 0 60 60;"
   xml:space="preserve"
   sodipodi:docname="best-practices-2-should.svg"
   inkscape:version="1.1.1 (3bf5ae0d25, 2021-09-20)"
   xmlns:inkscape="http://www.inkscape.org/namespaces/inkscape"
   xmlns:sodipodi="http://sodipodi.sourceforge.net/DTD/sodipodi-0.dtd"
   xmlns="http://www.w3.org/2000/svg"
   xmlns:svg="http://www.w3.org/2000/svg"><defs
   id="defs37" /><sodipodi:namedview
   id="namedview35"
   pagecolor="#ffffff"
   bordercolor="#666666"
   borderopacity="1.0"
   inkscape:pageshadow="2"
   inkscape:pageopacity="0.0"
   inkscape:pagecheckerboard="0"
   showgrid="false"
   inkscape:zoom="9.7934289"
   inkscape:cx="13.478425"
   inkscape:cy="29.91802"
   inkscape:window-width="1840"
   inkscape:window-height="1006"
   inkscape:window-x="0"
   inkscape:window-y="0"
   inkscape:window-maximized="1"
   inkscape:current-layer="text3121" />
<path
   d="m 47.019084,26.875661 v -3.483849 h 2.65036 v -6.396295 h -2.65036 v -3.48385 c 0,-1.018077 -1.029665,-1.846397 -2.295212,-1.846397 H 12.209256 c -1.265547,0 -2.2952124,0.82832 -2.2952124,1.846397 v 13.363994 c 0,1.018077 1.0296654,1.846397 2.2952124,1.846397 h 32.514616 c 1.265547,0 2.295212,-0.82832 2.295212,-1.846397 z M 37.080234,12.73132 v 14.924689 h -7.95108 V 12.73132 Z m -9.27626,0 v 14.924689 h -7.95108 V 12.73132 Z m 20.54029,5.330245 v 4.264197 h -1.32518 v -4.264197 z m -2.65036,-4.549898 v 3.48385 6.396295 3.483849 c 0,0.430684 -0.434659,0.780348 -0.970032,0.780348 H 38.405414 V 12.73132 h 6.318458 c 0.535373,0 0.970032,0.349664 0.970032,0.780347 z M 11.239224,26.875661 V 13.511667 c 0,-0.430683 0.434659,-0.780347 0.970032,-0.780347 h 6.318458 v 14.924689 h -6.318458 c -0.535373,0 -0.970032,-0.349664 -0.970032,-0.780348 z"
   id="path2"
   style="stroke-width:0.594287" />
<g
   id="g4">
</g>
<g
   id="g6">
</g>
<g
   id="g8">
</g>
<g
   id="g10">
</g>
<g
   id="g12">
</g>
<g
   id="g14">
</g>
<g
   id="g16">
</g>
<g
   id="g18">
</g>
<g
   id="g20">
</g>
<g
   id="g22">
</g>
<g
   id="g24">
</g>
<g
   id="g26">
</g>
<g
   id="g28">
</g>
<g
   id="g30">
</g>
<g
   id="g32">
</g>
<g
   aria-label="SHOULD"
   transform="scale(0.89405502,1.1184994)"
   id="text3121"
   style="font-weight:bold;font-size:14.7101px;line-height:1.25;-inkscape-font-specification:'sans-serif, Bold';letter-spacing:0px;word-spacing:0px;stroke-width:0.367755"><path
     d="m 10.906182,36.534826 q 0,1.39746 -1.0149971,2.235935 -1.0002868,0.823766 -2.8537594,0.823766 -1.6622414,0 -2.9714403,-0.632534 v -2.074125 q 0.7502151,0.323623 1.5445605,0.603115 0.8090555,0.264781 1.603401,0.264781 0.8237656,0 1.1620979,-0.308912 0.3530424,-0.323622 0.3530424,-0.809055 0,-0.397173 -0.2794919,-0.676665 Q 8.1848133,35.68164 7.7288002,35.446279 7.2727871,35.196207 6.6843831,34.916715 6.3166305,34.740194 5.8900376,34.504832 5.4634447,34.25476 5.066272,33.901718 4.6838094,33.533966 4.4337377,33.019112 4.183666,32.504259 4.183666,31.783464 q 0,-1.41217 0.9561565,-2.191805 0.9561565,-0.794346 2.6036878,-0.794346 0.8237656,0 1.5592706,0.191232 0.7502151,0.191231 1.5592711,0.544273 L 10.141257,31.26861 Q 9.4204617,30.974408 8.8467678,30.812597 8.2730739,30.650786 7.6699598,30.650786 q -0.6325343,0 -0.9708666,0.294202 -0.3383324,0.294202 -0.3383324,0.764925 0,0.558984 0.5001435,0.882606 0.5001434,0.323622 1.4857201,0.794346 0.8090555,0.382462 1.3680393,0.794345 0.5736943,0.411883 0.8826063,0.970867 0.308912,0.558983 0.308912,1.382749 z"
     id="path843" /><path
     d="M 21.423884,39.447426 H 19.202659 V 34.916715 H 15.0397 v 4.530711 H 12.818475 V 28.944414 H 15.0397 v 4.118828 h 4.162959 v -4.118828 h 2.221225 z"
     id="path845" /><path
     d="m 33.603838,34.18121 q 0,1.632821 -0.544274,2.853759 -0.529563,1.206229 -1.632821,1.882893 -1.103258,0.676665 -2.824339,0.676665 -1.706372,0 -2.824339,-0.676665 -1.103258,-0.676664 -1.647532,-1.897603 -0.529563,-1.220938 -0.529563,-2.853759 0,-1.632821 0.529563,-2.839049 0.544274,-1.206229 1.647532,-1.868183 1.117967,-0.676665 2.839049,-0.676665 1.706371,0 2.809629,0.676665 1.103258,0.661954 1.632821,1.882893 0.544274,1.206228 0.544274,2.839049 z m -7.663962,0 q 0,1.647531 0.632534,2.603688 0.632534,0.941446 2.029994,0.941446 1.426879,0 2.044704,-0.941446 0.617824,-0.956157 0.617824,-2.603688 0,-1.662241 -0.617824,-2.603688 -0.617825,-0.941446 -2.029994,-0.941446 -1.41217,0 -2.044704,0.941446 -0.632534,0.941447 -0.632534,2.603688 z"
     id="path847" /><path
     d="m 44.327493,35.740481 q 0,1.088547 -0.485433,1.971153 -0.470723,0.867896 -1.44159,1.382749 -0.956156,0.500144 -2.427166,0.500144 -2.088834,0 -3.177382,-1.059127 -1.088547,-1.073838 -1.088547,-2.82434 V 28.944414 H 37.9286 v 6.428314 q 0,1.294489 0.529563,1.824053 0.529564,0.529563 1.573981,0.529563 1.088548,0 1.573981,-0.573694 0.500143,-0.573694 0.500143,-1.794632 v -6.413604 h 2.221225 z"
     id="path849" /><path
     d="M 46.901741,39.447426 V 28.944414 h 2.221225 v 8.664249 h 4.265929 v 1.838763 z"
     id="path851" /><path
     d="m 63.921308,34.092949 q 0,2.662529 -1.515141,4.015858 -1.50043,1.338619 -4.221798,1.338619 H 55.212928 V 28.944414 h 3.295063 q 1.647531,0 2.853759,0.588404 1.220938,0.588404 1.882893,1.735792 0.676665,1.132678 0.676665,2.824339 z m -2.309486,0.05884 q 0,-1.750502 -0.764925,-2.559558 -0.764926,-0.823765 -2.221225,-0.823765 h -1.191519 v 6.840196 h 0.956157 q 3.221512,0 3.221512,-3.456873 z"
     id="path853" /></g><path
   style="fill:#00c853;fill-opacity:1;stroke-width:0.0104151"
   d="m 11.827189,27.505027 c -0.178098,-0.07747 -0.373382,-0.233475 -0.433964,-0.346673 -0.07564,-0.141341 -0.110149,-2.345469 -0.110149,-7.036051 v -6.830236 l 0.263362,-0.247545 0.263363,-0.247545 3.310462,-0.02954 3.310463,-0.02954 v 7.457993 7.457994 l -3.139861,-0.004 c -2.437451,-0.0031 -3.2123,-0.03551 -3.463676,-0.144854 z"
   id="path5669" /><path
   style="fill:#00c853;fill-opacity:1;stroke-width:0.0104151"
   d="m 19.860255,20.1999 v -7.453978 h 3.931208 3.931207 v 7.453978 7.453978 h -3.931207 -3.931208 z"
   id="path5708" /><path
   style="fill:#00c853;fill-opacity:1;stroke-width:0.0104151"
   d="m 29.1522,20.1999 v -7.453978 h 3.931208 3.931207 V 20.1999 27.653878 H 33.083408 29.1522 Z"
   id="path5747" /><path
   style="fill:#ffffff;fill-opacity:1;stroke-width:0.0104151"
   d="m 38.444145,20.1999 v -7.453978 h 3.168667 c 3.466537,0 3.782465,0.04472 3.979632,0.56331 0.161665,0.425209 0.132963,13.510419 -0.03034,13.834099 -0.227446,0.450807 -0.604023,0.498591 -3.978095,0.504784 l -3.13986,0.0058 z"
   id="path5786" /><path
   style="fill:#ffffff;stroke-width:0.0104151"
   d="m 47.021325,20.1999 v -2.042186 h 0.612655 0.612656 V 20.1999 22.242086 H 47.63398 47.021325 Z"
   id="path5862" /></svg>
