<svg width="80" height="80" xmlns="http://www.w3.org/2000/svg">

 <g>
  <title>background</title>
  <rect fill="none" id="canvas_background" height="82" width="82" y="-1" x="-1"/>
 </g>
 <g>
  <title>Layer 1</title>
  <g id="svg_2">
   <path id="svg_3" fill="#6ec6f0" d="m71.88952,57.64793l-64,0c-3.309,0 -6,-2.691 -6,-6l0,-36c0,-3.309 2.691,-6 6,-6l64,0c3.309,0 6,2.691 6,6l0,36c0,3.309 -2.691,6 -6,6zm-64,-44c-1.103,0 -2,0.897 -2,2l0,36c0,1.103 0.897,2 2,2l64,0c1.103,0 2,-0.897 2,-2l0,-36c0,-1.103 -0.897,-2 -2,-2l-64,0z"/>
  </g>
  <g stroke="null" id="svg_4">
   <path stroke="null" id="svg_5" fill="#6ec6f0" d="m39.88227,71.57178c-1.104,0 -2,-0.78591 -2,-1.75427l0,-12.27992c0,-0.96836 0.896,-1.75427 2,-1.75427s2,0.78591 2,1.75427l0,12.27992c0,0.96836 -0.896,1.75427 -2,1.75427z"/>
  </g>
  <g id="svg_6">
   <path id="svg_7" fill="#6ec6f0" d="m51.88227,71.57178l-24,0c-1.104,0 -2,-0.896 -2,-2s0.896,-2 2,-2l24,0c1.104,0 2,0.896 2,2s-0.896,2 -2,2z"/>
  </g>
  <text stroke="#000" transform="matrix(1.2138264656620148,0,0,1.1157363676412815,-17.74557475082669,-6.5200121952859575) " xml:space="preserve" text-anchor="start" font-family="Helvetica, Arial, sans-serif" font-size="30" id="svg_14" y="46.09324" x="22.75972" stroke-width="0" fill="#000000">abc</text>
 </g>
</svg>