<svg width="32" height="32" viewBox="0 0 32 32" fill="none" xmlns="http://www.w3.org/2000/svg">
<path fill-rule="evenodd" clip-rule="evenodd" d="M23.7288 19.431C28.2969 19.431 32 15.7528 32 11.2155C32 6.6782 28.2969 3 23.7288 3C19.1608 3 15.4576 6.6782 15.4576 11.2155C15.4576 13.8622 16.7176 16.2165 18.6744 17.7191H15.8382C15.6417 17.7191 15.4579 17.8157 15.3473 17.9771L15.135 18.2872L14.2633 14.4713C14.1235 13.859 13.2452 13.8591 13.1055 14.4715L11.7119 20.5823L10.2393 15.7714C10.0677 15.2108 9.26696 15.2152 9.10156 15.7777L8.06468 19.3043L7.57009 18.0879C7.47948 17.865 7.26169 17.7191 7.01969 17.7191H5.04404V18.5271H6.87129L7.54772 20.1908C7.75859 20.7094 8.51005 20.6722 8.6679 20.1353L9.67561 16.7079L11.1751 21.6064C11.3523 22.1852 12.1874 22.1552 12.322 21.5651L13.6847 15.5899L14.4536 18.956C14.5684 19.4587 15.2315 19.5833 15.5233 19.1571L15.9546 18.5271H18.9619V17.9302C20.3093 18.8756 21.9537 19.431 23.7288 19.431ZM30.2546 12.5498H30.2677C30.5012 12.6148 30.6441 12.8228 30.6441 12.9788C30.5923 13.1478 30.4233 13.2778 30.2286 13.2778C30.1898 13.2778 30.1638 13.2778 30.1247 13.2648C30.112 13.2518 30.099 13.2518 30.086 13.2518C30.073 13.2518 30.0599 13.2486 30.0469 13.2453C30.0339 13.242 30.0209 13.2388 30.0081 13.2388C29.9173 13.2128 29.8522 13.1868 29.7744 13.1478C29.7548 13.1413 29.7353 13.1316 29.7161 13.1218C29.6965 13.1121 29.677 13.1023 29.6575 13.0958H29.6445C29.398 13.0048 29.1772 12.9268 28.9695 12.9008H28.9437C28.8852 12.9008 28.8488 12.9227 28.8122 12.9447V12.9447L28.8119 12.9448C28.8 12.9521 28.7878 12.9593 28.7748 12.9658C28.7683 12.9658 28.7653 12.9691 28.762 12.9723C28.7588 12.9756 28.7555 12.9788 28.749 12.9788L28.5931 12.9528C28.4635 13.3558 28.2818 13.7588 28.048 14.1228C27.6068 14.8248 27.0225 15.3968 26.3346 15.7998L26.3995 15.9558C26.3995 15.9589 26.3988 15.9612 26.3976 15.9632C26.3964 15.9654 26.3947 15.9671 26.393 15.9688C26.3897 15.9721 26.3865 15.9753 26.3865 15.9818C26.3838 15.9953 26.3806 16.0082 26.3773 16.0211V16.0211L26.3773 16.0212C26.3649 16.0702 26.3529 16.1178 26.3735 16.1898C26.4348 16.3739 26.5539 16.5579 26.6871 16.7639L26.6871 16.7639L26.6872 16.764L26.711 16.8008V16.8138C26.724 16.8333 26.737 16.8496 26.7499 16.8658C26.7629 16.8821 26.7759 16.8983 26.7889 16.9178C26.8408 16.9828 26.8927 17.0478 26.9317 17.1258C26.9447 17.1388 26.9576 17.1648 26.9706 17.1908C26.9706 17.1973 26.9739 17.2006 26.9771 17.2038C26.9803 17.2071 26.9836 17.2103 26.9836 17.2168C27.0355 17.3208 27.0355 17.4378 27.0095 17.5418C26.9836 17.6458 26.9057 17.7238 26.8149 17.7758C26.7629 17.8018 26.711 17.8148 26.6591 17.8148C26.5033 17.8148 26.3476 17.7238 26.2697 17.5678C26.2697 17.5678 26.2567 17.5548 26.2567 17.5418C26.2502 17.5288 26.2437 17.5191 26.2372 17.5093C26.234 17.5044 26.2307 17.4995 26.2274 17.4941C26.2242 17.4889 26.221 17.4833 26.2177 17.4768C26.1918 17.4248 26.1774 17.3728 26.163 17.3208C26.1557 17.2948 26.1485 17.2688 26.1399 17.2428L26.1009 17.1258V17.1128L26.0797 17.0549L26.0796 17.0549C25.9976 16.8312 25.924 16.6305 25.8283 16.4628C25.7764 16.3848 25.7245 16.3588 25.6596 16.3458C25.6521 16.3383 25.6489 16.3352 25.6451 16.3338C25.6439 16.3334 25.6427 16.3331 25.6412 16.333C25.6392 16.3328 25.6368 16.3328 25.6336 16.3328L25.5557 16.1898C25.3351 16.2678 25.1144 16.3328 24.8808 16.3848C24.5173 16.4758 24.1279 16.5148 23.7515 16.5148C23.1284 16.5148 22.5054 16.3978 21.9342 16.1768L21.8434 16.3458L21.8433 16.3459C21.8359 16.3533 21.8327 16.3565 21.8289 16.3578C21.8261 16.3588 21.8229 16.3588 21.8174 16.3588C21.8066 16.3642 21.7952 16.3691 21.7835 16.3741C21.739 16.3931 21.6898 16.4141 21.6487 16.4758C21.5454 16.6367 21.4826 16.818 21.4067 17.0376L21.397 17.0657C21.3901 17.0854 21.3832 17.1055 21.3761 17.1258L21.3371 17.2428C21.3318 17.2588 21.327 17.2743 21.3224 17.2896C21.3196 17.2991 21.3168 17.3085 21.314 17.3179L21.314 17.318C21.2996 17.3671 21.2852 17.4162 21.2592 17.4768C21.2463 17.4898 21.2333 17.5158 21.2203 17.5418C21.2203 17.5418 21.2073 17.5548 21.2073 17.5678C21.1294 17.7108 20.9737 17.8148 20.8179 17.8148C20.766 17.8148 20.7141 17.8018 20.6621 17.7758C20.4674 17.6848 20.3895 17.4378 20.4934 17.2168C20.4934 17.2168 20.5064 17.2038 20.5064 17.1908C20.5194 17.1648 20.5323 17.1388 20.5453 17.1258C20.5586 17.1059 20.571 17.0868 20.583 17.0684L20.5834 17.0677C20.6182 17.0142 20.6496 16.966 20.6881 16.9178C20.7011 16.8983 20.7141 16.8821 20.727 16.8658C20.733 16.8583 20.739 16.8509 20.7449 16.8431C20.748 16.8391 20.751 16.8351 20.754 16.831C20.758 16.8255 20.762 16.8198 20.766 16.8138V16.8008C20.9088 16.5798 21.0256 16.3848 21.1035 16.1898C21.1294 16.0988 21.1035 16.0338 21.0775 15.9818C21.0775 15.9753 21.0743 15.9721 21.071 15.9688C21.0678 15.9656 21.0645 15.9623 21.0645 15.9558L21.1424 15.7868C20.9477 15.6698 20.766 15.5528 20.5842 15.4098C19.7924 14.7858 19.1954 13.9278 18.8838 12.9658L18.7021 12.9918C18.6956 12.9918 18.6924 12.9886 18.6891 12.9853C18.6859 12.9821 18.6826 12.9788 18.6761 12.9788L18.6678 12.9732C18.6298 12.9476 18.5799 12.9138 18.5074 12.9138H18.4814C18.2737 12.9398 18.0531 13.0178 17.8065 13.1088H17.7935C17.774 13.1153 17.7545 13.1251 17.7351 13.1348C17.7156 13.1446 17.6961 13.1543 17.6766 13.1608C17.5988 13.1998 17.5339 13.2258 17.443 13.2518C17.43 13.2518 17.417 13.2551 17.404 13.2583H17.404C17.3911 13.2616 17.3781 13.2648 17.3651 13.2648C17.3651 13.2778 17.3521 13.2778 17.3391 13.2778C17.3002 13.2908 17.2743 13.2908 17.2353 13.2908C17.0276 13.2908 16.8589 13.1738 16.8199 12.9918C16.781 12.7838 16.9238 12.5628 17.1574 12.5108C17.1704 12.4978 17.1834 12.4978 17.1964 12.4978C17.2094 12.4978 17.2223 12.4946 17.2353 12.4913L17.2354 12.4913C17.2483 12.4881 17.2613 12.4848 17.2743 12.4848L17.3083 12.4799L17.3083 12.4799L17.3086 12.4798C17.3851 12.4687 17.453 12.4588 17.5209 12.4588C17.5598 12.4458 17.6117 12.4458 17.6507 12.4458H17.6637C17.9362 12.4198 18.1699 12.3938 18.3646 12.3288C18.4425 12.2898 18.4814 12.2378 18.5074 12.1858C18.5074 12.1793 18.5106 12.1761 18.5139 12.1728C18.5171 12.1696 18.5204 12.1663 18.5204 12.1598L18.6891 12.1078C18.5204 10.9118 18.767 9.70282 19.416 8.6758C19.4251 8.64848 19.4406 8.62756 19.4579 8.60404L19.458 8.60396V8.60393L19.4649 8.59461C19.4702 8.58742 19.4755 8.57988 19.4809 8.5718L19.3511 8.45481V8.42879C19.3511 8.3638 19.3511 8.2988 19.2862 8.2338C19.137 8.09681 18.952 7.98368 18.7313 7.84867L18.7021 7.83081C18.6632 7.80479 18.6242 7.7788 18.5853 7.76582C18.5074 7.72681 18.4425 7.68781 18.3646 7.6358C18.3564 7.6317 18.3495 7.62632 18.3431 7.62047C18.3394 7.61702 18.3358 7.61341 18.3321 7.6098C18.3224 7.60005 18.3127 7.5903 18.2997 7.58381C18.2932 7.58381 18.29 7.58055 18.2867 7.57729C18.2859 7.57649 18.2851 7.57568 18.2842 7.57492C18.2817 7.57263 18.2786 7.5708 18.2737 7.5708C18.092 7.41481 18.0531 7.1548 18.1829 6.9858C18.2478 6.89481 18.3646 6.8428 18.4814 6.8428C18.5853 6.8428 18.6891 6.8818 18.767 6.9468C18.767 6.95483 18.772 6.9579 18.7788 6.96216C18.7831 6.96477 18.788 6.96784 18.7929 6.97279C18.8082 6.98804 18.8234 6.99882 18.836 7.00773L18.836 7.00778C18.8449 7.01406 18.8525 7.01942 18.8579 7.02481C18.9228 7.0898 18.9747 7.14179 19.0266 7.20681C19.0532 7.22457 19.0738 7.2484 19.0924 7.27003C19.101 7.28003 19.1092 7.28956 19.1175 7.2978C19.2992 7.49279 19.4679 7.66179 19.6367 7.7788C19.6756 7.80479 19.7146 7.8178 19.7535 7.8178C19.7665 7.8178 19.7795 7.81455 19.7924 7.81131C19.7984 7.8098 19.8043 7.80832 19.8103 7.80717C19.8173 7.80576 19.8244 7.80479 19.8314 7.80479H19.8574L19.9871 7.89581C20.6751 7.16781 21.5578 6.66079 22.5573 6.43981C22.7909 6.3878 23.0246 6.3618 23.2582 6.33581L23.2712 6.16681L23.2972 6.14079C23.3019 6.13603 23.3069 6.13126 23.3119 6.12638C23.3482 6.09147 23.3896 6.05166 23.401 5.9718C23.4217 5.80628 23.4012 5.62427 23.3789 5.4258C23.3774 5.4122 23.3759 5.39851 23.3743 5.38474C23.3731 5.37359 23.3719 5.36239 23.3706 5.35114C23.3677 5.32432 23.3648 5.2972 23.3621 5.2698V5.2568C23.3561 5.23295 23.3529 5.21184 23.3499 5.19221C23.3464 5.16903 23.3431 5.14792 23.3361 5.1268C23.3101 5.0488 23.2972 4.9708 23.2972 4.8798V4.8018V4.7758C23.2972 4.6588 23.3361 4.5548 23.414 4.4768C23.4919 4.3988 23.5957 4.3468 23.6996 4.3468C23.9202 4.3468 24.1019 4.5418 24.1019 4.7758V4.8148V4.8928C24.089 4.98377 24.076 5.06175 24.063 5.13973L24.063 5.1398C24.05 5.1788 24.037 5.2308 24.037 5.2698V5.2828L24.0318 5.33479L24.0318 5.33487C24.0078 5.57413 23.986 5.79079 23.9981 5.98481C24.0095 6.06465 24.0509 6.10446 24.0871 6.13937L24.0874 6.13961C24.0924 6.1444 24.0972 6.14909 24.1019 6.1538L24.1279 6.1798L24.1409 6.34879C25.1274 6.43981 26.075 6.81681 26.8538 7.4278C27.0355 7.58381 27.2174 7.7398 27.386 7.9218L27.5417 7.8178H27.5677C27.5938 7.83082 27.6195 7.83081 27.6456 7.83081C27.6846 7.83081 27.7234 7.8178 27.7624 7.79181C27.9311 7.6748 28.0998 7.51881 28.2818 7.3238C28.3083 7.30605 28.3287 7.28221 28.3474 7.26058C28.3561 7.25056 28.3642 7.24102 28.3726 7.23281C28.4244 7.16781 28.4762 7.11583 28.5413 7.05083V7.0508C28.5543 7.04431 28.5641 7.03456 28.5736 7.02481C28.5833 7.01506 28.5931 7.00531 28.6061 6.99881L28.6321 6.97279C28.723 6.9078 28.8138 6.86879 28.9177 6.86879C29.0346 6.86879 29.1512 6.92081 29.2163 7.0118C29.3459 7.18079 29.3071 7.44081 29.1254 7.59679C29.1254 7.60127 29.1238 7.60418 29.1214 7.60663C29.1192 7.60859 29.1165 7.61026 29.1135 7.61215C29.1094 7.61476 29.1043 7.61783 29.0994 7.62282C29.0842 7.63803 29.069 7.64881 29.0563 7.65772V7.65778C29.0473 7.66405 29.0397 7.66944 29.0346 7.6748C28.9567 7.72681 28.8917 7.76582 28.8138 7.80479C28.7943 7.8178 28.7748 7.82756 28.7555 7.83731C28.736 7.84706 28.7165 7.85681 28.6969 7.86979L28.6677 7.88768C28.4472 8.02268 28.2622 8.13581 28.1128 8.27281C28.061 8.3378 28.048 8.4028 28.048 8.4678V8.49382L27.9181 8.6108C28.2557 9.1308 28.5022 9.70282 28.6452 10.3138C28.7878 10.9248 28.8138 11.5488 28.736 12.1468L28.9047 12.1988C28.9047 12.2053 28.9079 12.2086 28.9112 12.2118C28.9144 12.2151 28.9177 12.2183 28.9177 12.2248C28.9437 12.2768 28.9695 12.3288 29.0603 12.3678C29.2681 12.4328 29.4888 12.4588 29.7614 12.4848H29.7744C29.8262 12.4978 29.8652 12.4978 29.9043 12.4978C29.9721 12.4978 30.0401 12.5077 30.1169 12.5189L30.1508 12.5238C30.1638 12.5238 30.1768 12.5271 30.1898 12.5303C30.2028 12.5335 30.2156 12.5368 30.2286 12.5368C30.2286 12.5498 30.2416 12.5498 30.2546 12.5498ZM23.6866 12.1858L24.2577 11.9128L24.3875 11.3018L23.9981 10.8078H23.3621L22.9726 11.3018L23.1154 11.9128L23.6866 12.1858ZM27.7364 11.8738C27.7755 11.4448 27.7494 11.0028 27.6456 10.5608C27.5417 10.1058 27.373 9.68981 27.1523 9.32582L25.5817 10.7428C25.5428 10.7818 25.5168 10.8338 25.5038 10.8858C25.4649 11.0678 25.5687 11.2498 25.7505 11.3018L27.7364 11.8738ZM24.8289 9.7548L26.5293 8.5458C25.9062 7.9218 25.0885 7.51881 24.1928 7.41481L24.3096 9.53382C24.3226 9.5858 24.3356 9.63782 24.3745 9.67679C24.4914 9.8198 24.686 9.84582 24.8289 9.7548ZM22.9726 7.44081C22.9045 7.45379 22.8363 7.4668 22.765 7.47981C22.0251 7.64881 21.3631 8.01279 20.8309 8.5458L22.5573 9.78079C22.5962 9.80682 22.6611 9.8198 22.713 9.8198C22.9077 9.8198 23.0505 9.66381 23.0635 9.4818L23.1803 7.4018C23.1098 7.41465 23.0425 7.42747 22.9752 7.44032L22.975 7.44035L22.9726 7.44081ZM21.7525 10.7038L20.2078 9.32582C19.7405 10.0928 19.5458 10.9898 19.6237 11.8738L21.6357 11.2888C21.7006 11.2758 21.7525 11.2368 21.7914 11.1848C21.9083 11.0418 21.8953 10.8208 21.7525 10.7038ZM21.9212 12.4978L19.8574 12.8488C20.1689 13.7068 20.753 14.4218 21.4799 14.8898L22.2717 12.9788C22.2977 12.9138 22.2977 12.8488 22.2847 12.7708C22.2457 12.6018 22.09 12.4848 21.9212 12.4978ZM23.6866 15.5398C23.9981 15.5398 24.2967 15.5008 24.5952 15.4358C24.6527 15.4185 24.7102 15.4038 24.7666 15.3894L24.7667 15.3893C24.8376 15.3712 24.9066 15.3535 24.9716 15.3318L23.9721 13.5248C23.9332 13.4728 23.8813 13.4208 23.8164 13.3818C23.6736 13.3038 23.5048 13.3558 23.401 13.4728L22.3755 15.3318C22.7909 15.4618 23.2322 15.5398 23.6866 15.5398ZM25.8803 14.8898C26.3735 14.5648 26.8019 14.1488 27.1265 13.6288C27.2952 13.3818 27.4248 13.1218 27.5029 12.8358L25.426 12.4848C25.361 12.4848 25.2961 12.4978 25.2442 12.5238C25.0885 12.6018 25.0236 12.7708 25.0625 12.9268L25.8803 14.8898ZM0.934085 7.83348H15.1878C15.0088 8.26667 14.8624 8.71661 14.7518 9.18028H1.35593V25.5065H24.4249V20.3454C24.8875 20.3074 25.3403 20.2352 25.7808 20.1314V25.9255C25.7808 26.4379 25.3626 26.8533 24.8467 26.8533H0.934085C0.418205 26.8533 0 26.4379 0 25.9255V8.76129C0 8.24889 0.418205 7.83348 0.934085 7.83348ZM9.49153 28.3199C9.19197 28.3199 8.94915 28.5611 8.94915 28.8586V29.1279C8.94915 29.4255 9.19197 29.6667 9.49153 29.6667H16.5424C16.8419 29.6667 17.0847 29.4255 17.0847 29.1279V28.8586C17.0847 28.5611 16.8419 28.3199 16.5424 28.3199H9.49153Z" fill="#0069FF"/>
</svg>
