<?xml version="1.0" encoding="iso-8859-1"?>
<!-- Generator: Adobe Illustrator 19.0.0, SVG Export Plug-In . SVG Version: 6.00 Build 0)  -->
<svg version="1.1" id="Capa_1" xmlns="http://www.w3.org/2000/svg" xmlns:xlink="http://www.w3.org/1999/xlink" x="0px" y="0px"
	 viewBox="0 0 512.001 512.001" style="enable-background:new 0 0 512.001 512.001;" xml:space="preserve">
<g>
	<g>
		<path d="M240.155,137.887c-1.859-1.859-4.438-2.929-7.067-2.929c-2.639,0-5.208,1.07-7.067,2.929
			c-1.869,1.859-2.929,4.438-2.929,7.067c0,2.629,1.06,5.208,2.929,7.067c1.859,1.858,4.428,2.929,7.067,2.929
			c2.629,0,5.208-1.07,7.067-2.929s2.929-4.438,2.929-7.067C243.084,142.325,242.015,139.746,240.155,137.887z"/>
	</g>
</g>
<g>
	<g>
		<path d="M285.756,362.359c-1.859-1.859-4.438-2.929-7.067-2.929s-5.208,1.069-7.067,2.929c-1.859,1.86-2.929,4.438-2.929,7.067
			c0,2.629,1.07,5.208,2.929,7.066c1.859,1.86,4.438,2.93,7.067,2.93s5.208-1.07,7.067-2.93c1.869-1.858,2.929-4.437,2.929-7.066
			C288.684,366.797,287.625,364.218,285.756,362.359z"/>
	</g>
</g>
<g>
	<g>
		<path d="M296.95,214.196c-5.521,0-9.996,4.476-9.996,9.996v63.568c0,5.521,4.475,9.996,9.996,9.996
			c5.521,0,9.996-4.476,9.996-9.996v-63.568C306.945,218.672,302.47,214.196,296.95,214.196z"/>
	</g>
</g>
<g>
	<g>
		<path d="M272.391,284.215l-24.109-63.568c-1.473-3.883-5.193-6.451-9.346-6.451s-7.873,2.568-9.346,6.451l-24.109,63.568
			c-1.956,5.162,0.641,10.933,5.802,12.89c5.163,1.961,10.933-0.639,12.89-5.802l2.654-6.998h24.218l2.654,6.998
			c1.515,3.995,5.314,6.454,9.348,6.454c1.177,0,2.376-0.21,3.542-0.653C271.752,295.148,274.349,289.378,272.391,284.215z
			 M234.411,264.315l4.527-11.936l4.527,11.936H234.411z"/>
	</g>
</g>
<g>
	<g>
		<path d="M478.015,443.944c-5.736,0-11.14,1.433-15.884,3.953l-26.657-26.657v-14.898c11.276-11.776,18.226-27.726,18.226-45.278
			c0-9.065-1.912-18.015-5.505-26.248c20.992-5.232,36.594-24.238,36.594-46.827v-89.005c0-25.409-19.742-46.279-44.69-48.113
			c1.081-3.985,1.648-8.127,1.648-12.338c0-8.528-2.292-16.528-6.274-23.434V90.762l26.657-26.657
			c4.744,2.519,10.149,3.953,15.884,3.953c18.74,0,33.985-15.245,33.985-33.985c0-18.74-15.245-33.985-33.985-33.985
			c-18.74,0-33.985,15.245-33.985,33.985c0,5.742,1.436,11.152,3.961,15.9L418.41,79.554c-1.874,1.875-2.928,4.417-2.928,7.068
			v9.705c-6.276-3.106-13.336-4.861-20.801-4.861c-4.045,0-8.036,0.514-11.888,1.517c-6.013-25.51-28.952-44.561-56.273-44.561
			c-31.885,0-57.826,25.941-57.826,57.826v63.765h-64.284c-2.651,0-5.194,1.054-7.068,2.928l-24.489,24.489
			c-1.874,1.875-2.928,4.417-2.928,7.068v102.955c0,2.651,1.054,5.193,2.928,7.068l24.489,24.489
			c1.874,1.874,4.417,2.928,7.068,2.928h18.68v63.467c0,21.026-17.107,38.131-38.132,38.131c-15.03,0-28.672-8.854-34.805-22.566
			c8.743-3.875,16.608-9.65,22.98-17.001c1.805,0.37,3.674,0.565,5.588,0.565c15.325,0,27.793-12.468,27.793-27.793
			s-12.468-27.793-27.793-27.793c-15.325,0-27.793,12.468-27.793,27.793c0,6.03,1.937,11.614,5.213,16.174
			c-8.498,8.673-20.18,13.685-32.531,13.685c-25.111,0-45.54-20.429-45.54-45.54c0-9.491,2.847-18.462,8.244-26.128
			c6.018-1.427,11.732-3.992,16.793-7.561c5.331,3.665,11.779,5.816,18.723,5.816c18.269,0,33.132-14.862,33.132-33.132
			c0-18.268-14.864-33.132-33.132-33.132s-33.132,14.862-33.132,33.132c0,4.063,0.739,7.956,2.083,11.556
			c-4.564,3.02-9.905,4.644-15.532,4.644c-15.587,0-28.268-12.681-28.268-28.269v-89.005c0-15.587,12.681-28.268,28.268-28.268
			c12.945,0,23.879,8.75,27.215,20.644c-9.843,4.282-16.745,14.096-16.745,25.496c0,15.325,12.468,27.793,27.793,27.793
			s27.793-12.468,27.793-27.793c0-12.079-7.747-22.376-18.531-26.2c-2.728-15.61-12.972-28.665-26.863-35.275
			c-3.806-4.779-5.888-10.69-5.888-16.849c0-14.929,12.146-27.075,27.075-27.075c3.656,0,7.226,0.745,10.537,2.145
			c0.77,7.958,3.729,15.459,8.564,21.8c-1.069,3.154-1.657,6.527-1.657,10.037c0,17.287,14.065,31.351,31.352,31.351
			s31.352-14.064,31.352-31.351s-14.065-31.352-31.352-31.352c-6.033,0-11.671,1.717-16.459,4.683
			c-1.303-2.917-2.012-6.09-2.012-9.373v-1.261c0.022-0.376,0.02-0.751,0-1.125v-0.763c0-20.862,16.972-37.835,37.834-37.835
			s37.835,16.972,37.835,37.835c0,5.52,4.475,9.996,9.996,9.996c5.521,0,9.996-4.476,9.996-9.996
			c0-31.884-25.941-57.826-57.826-57.826c-27.32,0-50.259,19.051-56.272,44.561c-3.852-1.003-7.843-1.517-11.888-1.517
			c-7.376,0-14.358,1.709-20.578,4.746v-9.591c0-2.651-1.054-5.193-2.928-7.068L64.009,49.972c2.525-4.747,3.961-10.158,3.961-15.9
			c0-18.74-15.245-33.985-33.985-33.985C15.245,0.087,0,15.332,0,34.072c0,18.74,15.245,33.985,33.985,33.985
			c5.736,0,11.14-1.433,15.884-3.953l26.657,26.658v23.95c-4.121,6.993-6.497,15.132-6.497,23.821c0,4.21,0.569,8.352,1.648,12.338
			c-24.947,1.835-44.69,22.705-44.69,48.114v89.005c0,22.588,15.602,41.595,36.594,46.827c-3.592,8.231-5.505,17.183-5.505,26.248
			c0,17.668,7.041,33.714,18.449,45.512v14.664l-26.657,26.657c-4.744-2.519-10.149-3.953-15.884-3.953
			C15.245,443.944,0,459.189,0,477.929s15.245,33.985,33.985,33.985c18.74,0,33.985-15.245,33.985-33.985
			c0-5.741-1.436-11.152-3.961-15.9l29.581-29.581c1.874-1.875,2.928-4.417,2.928-7.068v-4.672
			c8.263,3.768,17.431,5.885,27.091,5.885c2.352,0,4.686-0.134,6.996-0.381l1.201,2.713c9.302,21.02,30.165,34.603,53.152,34.603
			c32.049,0,58.124-26.074,58.124-58.123v-63.467h64.285c2.651,0,5.194-1.054,7.068-2.928l24.489-24.489
			c1.874-1.875,2.928-4.417,2.928-7.068V204.498c0-2.651-1.054-5.193-2.928-7.068l-24.489-24.489
			c-1.874-1.874-4.417-2.928-7.068-2.928h-18.68v-63.765c0-20.862,16.972-37.835,37.835-37.835s37.835,16.972,37.835,37.835v0.763
			c-0.02,0.374-0.022,0.749,0,1.125v1.261c0,3.283-0.708,6.456-2.012,9.373c-4.788-2.966-10.425-4.683-16.459-4.683
			c-17.287,0-31.352,14.065-31.352,31.352c0,17.287,14.065,31.351,31.352,31.351c17.287,0,31.352-14.064,31.352-31.351
			c0-3.51-0.589-6.883-1.657-10.037c4.835-6.341,7.795-13.843,8.564-21.8c3.313-1.4,6.881-2.145,10.537-2.145
			c14.93,0,27.075,12.146,27.075,27.075c0,6.158-2.083,12.07-5.888,16.849c-13.891,6.609-24.135,19.664-26.863,35.275
			c-10.784,3.823-18.531,14.122-18.531,26.2c0,15.325,12.468,27.793,27.793,27.793s27.793-12.468,27.793-27.793
			c0-11.4-6.902-21.215-16.745-25.496c3.337-11.894,14.27-20.644,27.215-20.644c15.587,0,28.268,12.681,28.268,28.268v89.005
			c0,15.588-12.682,28.269-28.268,28.269c-5.629,0-10.968-1.624-15.532-4.644c1.344-3.6,2.083-7.493,2.083-11.556
			c0-18.268-14.864-33.132-33.132-33.132s-33.132,14.862-33.132,33.132c0,18.269,14.864,33.132,33.132,33.132
			c6.944,0,13.392-2.151,18.723-5.816c5.061,3.568,10.775,6.133,16.793,7.561c5.398,7.665,8.244,16.637,8.244,26.128
			c0,25.111-20.429,45.54-45.54,45.54c-12.351,0-24.033-5.012-32.531-13.685c3.276-4.56,5.213-10.144,5.213-16.174
			c0-15.325-12.468-27.793-27.793-27.793c-15.325,0-27.793,12.468-27.793,27.793s12.468,27.793,27.793,27.793
			c1.913,0,3.782-0.195,5.588-0.565c6.372,7.35,14.237,13.125,22.98,17.001c-6.133,13.712-19.774,22.566-34.805,22.566
			c-21.027,0-38.132-17.106-38.132-38.131c0-5.52-4.475-9.996-9.996-9.996s-9.996,4.476-9.996,9.996
			c0,32.049,26.075,58.123,58.124,58.123c22.987,0,43.851-13.583,53.153-34.604l1.2-2.712c2.31,0.248,4.644,0.381,6.996,0.381
			c9.746,0,18.993-2.154,27.313-5.986v4.772c0,2.651,1.054,5.193,2.928,7.068l29.581,29.581c-2.525,4.748-3.961,10.159-3.961,15.9
			c0,18.74,15.245,33.985,33.985,33.985s33.985-15.245,33.985-33.985S496.754,443.944,478.015,443.944z M478.015,20.078
			c7.717,0,13.994,6.277,13.994,13.994c0,7.717-6.277,13.994-13.994,13.994s-13.994-6.277-13.994-13.994
			C464.021,26.355,470.298,20.078,478.015,20.078z M178.72,368.942c4.302,0,7.802,3.499,7.802,7.802s-3.499,7.802-7.802,7.802
			s-7.802-3.5-7.802-7.802S174.419,368.942,178.72,368.942z M121.829,286.919c7.246,0,13.14,5.894,13.14,13.14
			s-5.894,13.14-13.14,13.14s-13.14-5.894-13.14-13.14C108.689,292.814,114.583,286.919,121.829,286.919z M113.512,209.054
			c4.302,0,7.802,3.499,7.802,7.802s-3.5,7.802-7.802,7.802s-7.802-3.499-7.802-7.802S109.209,209.054,113.512,209.054z
			 M165.893,134.078c6.264,0,11.361,5.097,11.361,11.361s-5.097,11.36-11.361,11.36c-6.264,0-11.361-5.097-11.361-11.36
			C154.532,139.175,159.628,134.078,165.893,134.078z M33.985,48.066c-7.717,0-13.994-6.277-13.994-13.994
			c0-7.717,6.277-13.994,13.994-13.994c7.717,0,13.994,6.277,13.994,13.994C47.979,41.789,41.702,48.066,33.985,48.066z
			 M33.985,491.923c-7.717,0-13.994-6.277-13.994-13.994c0-7.717,6.277-13.994,13.994-13.994c7.717,0,13.994,6.277,13.994,13.994
			C47.979,485.645,41.702,491.923,33.985,491.923z M303.226,190.004l18.634,18.635v94.674l-18.634,18.635h-94.675l-18.634-18.635
			v-94.674l18.634-18.635H303.226z M345.884,156.801c-6.264,0-11.361-5.097-11.361-11.36c0-6.265,5.097-11.361,11.361-11.361
			s11.361,5.097,11.361,11.361C357.245,151.704,352.149,156.801,345.884,156.801z M398.266,224.657
			c-4.302,0-7.802-3.499-7.802-7.802s3.499-7.802,7.802-7.802s7.802,3.499,7.802,7.802S402.568,224.657,398.266,224.657z
			 M389.947,313.199c-7.246,0-13.14-5.894-13.14-13.14c0-7.245,5.894-13.14,13.14-13.14s13.14,5.894,13.14,13.14
			S397.193,313.199,389.947,313.199z M333.057,384.545c-4.302,0-7.802-3.5-7.802-7.802c0-4.302,3.5-7.802,7.802-7.802
			c4.302,0,7.802,3.5,7.802,7.802S337.359,384.545,333.057,384.545z M478.015,491.923c-7.717,0-13.994-6.277-13.994-13.994
			c0-7.717,6.277-13.994,13.994-13.994s13.994,6.277,13.994,13.994C492.009,485.645,485.73,491.923,478.015,491.923z"/>
	</g>
</g>
<g>
</g>
<g>
</g>
<g>
</g>
<g>
</g>
<g>
</g>
<g>
</g>
<g>
</g>
<g>
</g>
<g>
</g>
<g>
</g>
<g>
</g>
<g>
</g>
<g>
</g>
<g>
</g>
<g>
</g>
</svg>
