<?xml version="1.0" encoding="UTF-8"?>
<svg xmlns="http://www.w3.org/2000/svg" xmlns:xlink="http://www.w3.org/1999/xlink" width="226.771654pt" height="232.440945pt" viewBox="0 0 226.771654 232.440945" version="1.1">
<g id="surface1">
<path style="fill-rule:evenodd;fill:rgb(94.117647%,94.117647%,94.117647%);fill-opacity:1;stroke-width:1;stroke-linecap:butt;stroke-linejoin:bevel;stroke:rgb(65.098039%,70.196078%,71.372549%);stroke-opacity:1;stroke-miterlimit:10;" d="M 0 0 L 178 0 L 248 68 L 248 306 L 0 306 Z M 0 0 " transform="matrix(0.75,0,0,0.75,39,0.75)"/>
<path style="fill-rule:evenodd;fill:rgb(76.862745%,82.745098%,84.313725%);fill-opacity:1;stroke-width:1;stroke-linecap:butt;stroke-linejoin:bevel;stroke:rgb(76.862745%,82.745098%,84.313725%);stroke-opacity:1;stroke-miterlimit:10;" d="M 70 68 L 5 68 C 2 68 0 65.932292 0 63.395833 L 0 0 Z M 70 68 " transform="matrix(0.75,0,0,0.75,171.75,0.75)"/>
<path style="fill-rule:evenodd;fill:rgb(24.313725%,22.352941%,21.960784%);fill-opacity:1;stroke-width:1;stroke-linecap:butt;stroke-linejoin:bevel;stroke:rgb(24.313725%,22.352941%,21.960784%);stroke-opacity:1;stroke-miterlimit:10;" d="M 0 0 L 24 0 L 24 2 L 0 2 Z M 0 0 " transform="matrix(0.75,0,0,0.75,129,180.75)"/>
<path style="fill-rule:evenodd;fill:rgb(24.313725%,22.352941%,21.960784%);fill-opacity:1;stroke-width:1;stroke-linecap:butt;stroke-linejoin:bevel;stroke:rgb(24.313725%,22.352941%,21.960784%);stroke-opacity:1;stroke-miterlimit:10;" d="M 0 0 L 26 0 L 26 2 L 0 2 Z M 0 0 " transform="matrix(0,-0.75,0.75,0,93.75,159.75)"/>
<path style="fill-rule:evenodd;fill:rgb(99.215686%,72.54902%,20%);fill-opacity:1;stroke-width:1;stroke-linecap:butt;stroke-linejoin:bevel;stroke:rgb(99.215686%,72.54902%,20%);stroke-opacity:1;stroke-miterlimit:10;" d="M 100 30 L 50 60 L 0 30 L 50 0 Z M 100 30 " transform="matrix(0.75,0,0,0.75,57,159)"/>
<path style="fill-rule:evenodd;fill:rgb(63.921569%,81.176471%,38.431373%);fill-opacity:1;stroke-width:1;stroke-linecap:butt;stroke-linejoin:bevel;stroke:rgb(63.921569%,81.176471%,38.431373%);stroke-opacity:1;stroke-miterlimit:10;" d="M 18 0 L 86 0 C 96 0 104 7.572917 104 17.052083 L 104 25 C 104 34 95.796875 41.833333 85.770833 41.833333 L 18 42 C 8 42 -0.151042 34.151042 -0.151042 24.677083 L 0 17 C 0 8 7.973958 -0.109375 18 -0.109375 Z M 18 0 " transform="matrix(0.75,0,0,0.75,55.5,109.5)"/>
<path style="fill-rule:evenodd;fill:rgb(29.803922%,64.705882%,98.823529%);fill-opacity:1;stroke-width:1;stroke-linecap:butt;stroke-linejoin:bevel;stroke:rgb(29.803922%,64.705882%,98.823529%);stroke-opacity:1;stroke-miterlimit:10;" d="M 3 0 L 86 0 C 88 0 90 1.307292 90 3 L 90 42 C 90 44 88.364583 45.166667 86.442708 45.166667 C 86 45 60.390625 36.088542 49.104167 43.666667 C 21 62 0 43.755208 0 42.0625 L 0 3 C 0 1 1.546875 -0.0625 3.46875 -0.0625 Z M 3 0 " transform="matrix(0.75,0,0,0.75,145.5,163.5)"/>
<path style="fill-rule:evenodd;fill:rgb(60%,15.294118%,15.294118%);fill-opacity:1;stroke-width:1;stroke-linecap:butt;stroke-linejoin:bevel;stroke:rgb(60%,15.294118%,15.294118%);stroke-opacity:1;stroke-miterlimit:10;" d="M 0 0 L 206 0 L 206 90 L 0 90 Z M 0 0 " transform="matrix(0.75,0,0,0.75,1.5,16.5)"/>
<path style=" stroke:none;fill-rule:evenodd;fill:rgb(0%,0%,0%);fill-opacity:0.0784314;" d="M 26.25 66 L 26.25 37.5 L 46.589844 37.5 L 46.589844 40.863281 L 29.972656 40.863281 L 29.972656 49.59375 L 45.535156 49.59375 L 45.535156 52.9375 L 29.972656 52.9375 L 29.972656 62.636719 L 47.242188 62.636719 L 47.242188 66 Z M 52.371094 66 L 52.371094 37.5 L 62.0625 37.5 C 64.25 37.5 65.917969 37.5 67.070313 37.910156 C 68.683594 38.285156 70.058594 38.964844 71.195313 39.949219 C 72.679688 41.21875 73.789063 42.84375 74.527344 44.820313 C 75.261719 46.796875 75.628906 49.054688 75.628906 51.59375 C 75.628906 53.757813 75.378906 55.675781 74.878906 57.347656 C 74.382813 59.019531 73.742188 60.40625 72.960938 61.5 C 72.179688 62.59375 71.328125 63.457031 70.398438 64.085938 C 69.472656 64.714844 68.351563 65.191406 67.042969 65.515625 C 65.730469 65.839844 64.222656 66 62.523438 66 Z M 56.09375 62.636719 L 62.101563 62.636719 C 63.957031 62.636719 65.410156 62.460938 66.464844 62.113281 C 67.523438 61.761719 68.363281 61.269531 68.988281 60.632813 C 69.871094 59.738281 70.558594 58.539063 71.050781 57.027344 C 71.542969 55.519531 71.789063 53.6875 71.789063 51.535156 C 71.789063 48.554688 71.308594 46.265625 70.34375 44.664063 C 69.375 43.0625 68.203125 41.992188 66.820313 41.445313 C 65.824219 41.058594 64.21875 40.863281 62.003906 40.863281 L 56.09375 40.863281 Z M 81.847656 66 L 81.847656 37.5 L 91.535156 37.5 C 93.722656 37.5 95.394531 37.5 96.542969 37.910156 C 98.15625 38.285156 99.53125 38.964844 100.667969 39.949219 C 102.152344 41.21875 103.261719 42.84375 104 44.820313 C 104.734375 46.796875 105.101563 49.054688 105.101563 51.59375 C 105.101563 53.757813 104.851563 55.675781 104.355469 57.347656 C 103.855469 59.019531 103.214844 60.40625 102.433594 61.5 C 101.65625 62.59375 100.800781 63.457031 99.875 64.085938 C 98.945313 64.714844 97.828125 65.191406 96.515625 65.515625 C 95.203125 65.839844 93.699219 66 91.996094 66 Z M 85.570313 62.636719 L 91.574219 62.636719 C 93.429688 62.636719 94.882813 62.460938 95.941406 62.113281 C 96.996094 61.761719 97.835938 61.269531 98.464844 60.632813 C 99.347656 59.738281 100.035156 58.539063 100.527344 57.027344 C 101.019531 55.519531 101.265625 53.6875 101.265625 51.535156 C 101.265625 48.554688 100.78125 46.265625 99.816406 44.664063 C 98.851563 43.0625 97.675781 41.992188 96.292969 41.445313 C 95.296875 41.058594 93.691406 40.863281 91.480469 40.863281 L 85.570313 40.863281 Z M 108.460938 66 L 119.339844 51.148438 L 109.746094 37.5 L 114.179688 37.5 L 119.28125 44.808594 C 120.34375 46.324219 121.097656 47.492188 121.546875 48.308594 C 122.175781 47.273438 122.914063 46.191406 123.773438 45.0625 L 129.433594 37.5 L 133.484375 37.5 L 123.601563 50.933594 L 134.25 66 L 129.644531 66 L 122.5625 55.832031 C 122.167969 55.25 121.757813 54.613281 121.335938 53.925781 C 120.710938 54.964844 120.261719 55.675781 119.992188 56.066406 L 112.929688 66 Z M 108.460938 66 "/>
<path style="fill-rule:evenodd;fill:rgb(100%,100%,100%);fill-opacity:1;stroke-width:1;stroke-linecap:butt;stroke-linejoin:bevel;stroke:rgb(100%,100%,100%);stroke-opacity:1;stroke-miterlimit:10;" d="M 0 38 L 0 0 L 27 0 L 27 4 L 5 4 L 5 16 L 26 16 L 26 21 L 5 21 L 5 34 L 28 34 L 28 38 Z M 35 38 L 35 0 L 48 0 C 51 0 52.890625 0 54.427083 0.546875 C 57 1 58.411458 1.953125 59.927083 3.265625 C 62 5 63.385417 7.125 64.369792 9.760417 C 65 12 65.838542 15.40625 65.838542 18.791667 C 66 22 65.505208 24.234375 64.838542 26.463542 C 64 29 63.322917 30.541667 62.28125 32 C 61 33 60.104167 34.609375 58.864583 35.447917 C 58 36 56.135417 36.921875 54.390625 37.354167 C 53 38 50.630208 38 48.364583 38 Z M 40 34 L 48 34 C 50 34 52.213542 33.28125 53.619792 32.817708 C 55 32 56.151042 31.692708 56.984375 30.84375 C 58 30 59.078125 28.052083 59.734375 26.036458 C 60 24 60.71875 21.583333 60.71875 18.713542 C 61 15 60.078125 11.6875 58.791667 9.552083 C 58 7 55.9375 5.989583 54.09375 5.260417 C 53 5 50.625 4.484375 47.671875 4.484375 L 40 4 Z M 74 38 L 74 0 L 87 0 C 90 0 92.192708 0 93.723958 0.546875 C 96 1 97.708333 1.953125 99.223958 3.265625 C 101 5 102.682292 7.125 103.666667 9.760417 C 105 12 105.135417 15.40625 105.135417 18.791667 C 105 22 104.802083 24.234375 104.140625 26.463542 C 103 29 102.619792 30.541667 101.578125 32 C 101 33 99.401042 34.609375 98.166667 35.447917 C 97 36 95.4375 36.921875 93.6875 37.354167 C 92 38 89.932292 38 87.661458 38 Z M 79 34 L 87 34 C 90 34 91.510417 33.28125 92.921875 32.817708 C 94 32 95.447917 31.692708 96.286458 30.84375 C 97 30 98.380208 28.052083 99.036458 26.036458 C 100 24 100.020833 21.583333 100.020833 18.713542 C 100 15 99.375 11.6875 98.088542 9.552083 C 97 7 95.234375 5.989583 93.390625 5.260417 C 92 5 89.921875 4.484375 86.973958 4.484375 L 79 4 Z M 110 38 L 124 18 L 111 0 L 117 0 L 124 10 C 125 12 126.463542 13.322917 127.0625 14.411458 C 128 13 128.885417 11.588542 130.03125 10.083333 L 138 0 L 143 0 L 130 18 L 144 38 L 138 38 L 128 24 C 128 24 127.34375 22.817708 126.78125 21.901042 C 126 23 125.348958 24.234375 124.989583 24.755208 L 116 38 Z M 110 38 " transform="matrix(0.75,0,0,0.75,24.75,36)"/>
</g>
</svg>
