<?xml version="1.0" ?><svg enable-background="new 0 0 512 512" id="Layer_1" version="1.1" viewBox="0 0 512 512" xml:space="preserve" xmlns="http://www.w3.org/2000/svg" xmlns:xlink="http://www.w3.org/1999/xlink"><g><g><linearGradient gradientUnits="userSpaceOnUse" id="SVGID_1_" x1="0.0000038" x2="512" y1="256" y2="256"><stop offset="0" style="stop-color:#8DC63F"/><stop offset="1" style="stop-color:#76B83F"/></linearGradient><circle cx="256" cy="256" fill="url(#SVGID_1_)" r="256"/><linearGradient gradientUnits="userSpaceOnUse" id="SVGID_2_" x1="42.6666679" x2="469.3333435" y1="256.0005188" y2="256.0005188"><stop offset="0" style="stop-color:#76B83F"/><stop offset="1" style="stop-color:#8DC63F"/></linearGradient><path d="M256,469.3338623c-117.6314697,0-213.3333282-95.7023926-213.3333282-213.3333435    c0-117.6314545,95.7018585-213.333313,213.3333282-213.333313c117.6357422,0,213.3333435,95.7018661,213.3333435,213.333313    C469.3333435,373.6314697,373.6357422,469.3338623,256,469.3338623z" fill="url(#SVGID_2_)"/></g><g><polygon opacity="0.3" points="259.8352051,176.3594666 229,144 144,144 144,210.4405365 384,210.4405365 384,176.3594666   "/><path d="M263.9942322,220.4405365v10h15.1700439v10h-15.1700439v10h15.1700439v9.9999847h-15.1700439v10h15.1700439    v10h-15.1700439v10h-15.1665039v-10h15.1665039v-10h-15.1665039v-10h15.1665039v-9.9999847h-15.1665039v-10h15.1665039v-10    h-15.1665039v-10H144v81.3119965v82.2469482h120h120V301.752533v-81.3119965H279.1642761H263.9942322z M278.9920044,324.2954712    c0,8.2991943-6.6997375,15-15,15c-8.2501373,0-15-6.7008057-15-15v-27.0512085h30V324.2954712z" opacity="0.3"/></g><g><polygon fill="#FFFFFF" points="251.8352051,168.3594666 221,136 136,136 136,202.4405365 376,202.4405365 376,168.3594666   "/><path d="M255.9942322,212.4405365v10h15.1700439v10h-15.1700439v10h15.1700439v10h-15.1700439v9.9999847    h15.1700439v10h-15.1700439v10h-15.1665039v-10h15.1665039v-10h-15.1665039v-9.9999847h15.1665039v-10h-15.1665039v-10h15.1665039    v-10h-15.1665039v-10H136v81.3119965v82.2469482h120h120V293.752533v-81.3119965H271.1642761H255.9942322z     M270.9920044,316.2954712c0,8.2991943-6.6997375,15-15,15c-8.2501373,0-15-6.7008057-15-15v-27.0512085h30V316.2954712z" fill="#FFFFFF"/></g></g></svg>