<?xml version="1.0" encoding="UTF-8" standalone="no"?>
<!-- Created with Inkscape (http://www.inkscape.org/) -->

<svg
   xmlns:svg="http://www.w3.org/2000/svg"
   xmlns="http://www.w3.org/2000/svg"
   version="1.0"
   width="28"
   height="28"
   id="svg2"
   viewBox="0 0 28 28">
  <desc
     id="desc6">Creator: FreeHEP Graphics2D Driver Producer: geogebra.d.a Revision: 1.10  Source:  Date: Samstag, 7. August 2010 14:06 Uhr MESZ</desc>
  <defs
     id="defs85" />
  <g
     id="g2498">
    <g
       transform="matrix(1.5088877,0,0,1.5088877,-0.4551044,0.6704056)"
       id="layer0"
       style="stroke-width:1;stroke-linecap:square;stroke-linejoin:miter;stroke-miterlimit:10;stroke-dasharray:none;stroke-dashoffset:0">
      <g
         transform="scale(0.5669291,0.5669291)"
         id="g18">
        <g
           id="g20"
           style="fill:none;stroke:#666666;stroke-width:2.5;stroke-linecap:round;stroke-linejoin:round;stroke-opacity:1">
          <path
             d="m 4.653045,21.715398 c 2.5528723,5.337746 9.999931,7.092936 16.633471,3.920328 6.63354,-3.172609 9.941575,-10.071615 7.388703,-15.409361 C 26.122347,4.8886185 18.675288,3.1334281 12.041748,6.3060371 5.4082076,9.4786461 2.1001727,16.377652 4.653045,21.715398 z"
             id="path22" />
        </g>
      </g>
      <g
         transform="scale(0.5669291,0.5669291)"
         id="g24">
        <g
           id="g26"
           style="fill:#9999ff;fill-opacity:1;fill-rule:nonzero;stroke:none">
          <path
             d="m 19,5 c 0,1.6568542 -1.343146,3 -3,3 -1.656854,0 -3,-1.3431458 -3,-3 0,-1.6568542 1.343146,-3 3,-3 1.656854,0 3,1.3431458 3,3 z"
             id="path28" />
        </g>
      </g>
      <g
         transform="scale(0.5669291,0.5669291)"
         id="g30">
        <g
           id="g32"
           style="fill:none;stroke:#000000;stroke-linecap:round;stroke-linejoin:round;stroke-opacity:1">
          <path
             d="m 19,5 c 0,1.6568542 -1.343146,3 -3,3 -1.656854,0 -3,-1.3431458 -3,-3 0,-1.6568542 1.343146,-3 3,-3 1.656854,0 3,1.3431458 3,3 z"
             id="path34" />
        </g>
      </g>
      <g
         transform="scale(0.5669291,0.5669291)"
         id="g36">
        <g
           id="g38"
           style="fill:#9999ff;fill-opacity:1;fill-rule:nonzero;stroke:none">
          <path
             d="m 8,13 c 0,1.656854 -1.3431458,3 -3,3 -1.6568542,0 -3,-1.343146 -3,-3 0,-1.656854 1.3431458,-3 3,-3 1.6568542,0 3,1.343146 3,3 z"
             id="path40" />
        </g>
      </g>
      <g
         transform="scale(0.5669291,0.5669291)"
         id="g42">
        <g
           id="g44"
           style="fill:none;stroke:#000000;stroke-linecap:round;stroke-linejoin:round;stroke-opacity:1">
          <path
             d="m 8,13 c 0,1.656854 -1.3431458,3 -3,3 -1.6568542,0 -3,-1.343146 -3,-3 0,-1.656854 1.3431458,-3 3,-3 1.6568542,0 3,1.343146 3,3 z"
             id="path46" />
        </g>
      </g>
      <g
         transform="scale(0.5669291,0.5669291)"
         id="g48">
        <g
           id="g50"
           style="fill:#9999ff;fill-opacity:1;fill-rule:nonzero;stroke:none">
          <path
             d="m 12,26 c 0,1.656854 -1.343146,3 -3,3 -1.6568542,0 -3,-1.343146 -3,-3 0,-1.656854 1.3431458,-3 3,-3 1.656854,0 3,1.343146 3,3 z"
             id="path52" />
        </g>
      </g>
      <g
         transform="scale(0.5669291,0.5669291)"
         id="g54">
        <g
           id="g56"
           style="fill:none;stroke:#000000;stroke-linecap:round;stroke-linejoin:round;stroke-opacity:1">
          <path
             d="m 12,26 c 0,1.656854 -1.343146,3 -3,3 -1.6568542,0 -3,-1.343146 -3,-3 0,-1.656854 1.3431458,-3 3,-3 1.656854,0 3,1.343146 3,3 z"
             id="path58" />
        </g>
      </g>
      <g
         transform="scale(0.5669291,0.5669291)"
         id="g60">
        <g
           id="g62"
           style="fill:#9999ff;fill-opacity:1;fill-rule:nonzero;stroke:none">
          <path
             d="m 27,24 c 0,1.656854 -1.343146,3 -3,3 -1.656854,0 -3,-1.343146 -3,-3 0,-1.656854 1.343146,-3 3,-3 1.656854,0 3,1.343146 3,3 z"
             id="path64" />
        </g>
      </g>
      <g
         transform="scale(0.5669291,0.5669291)"
         id="g66">
        <g
           id="g68"
           style="fill:none;stroke:#000000;stroke-linecap:round;stroke-linejoin:round;stroke-opacity:1">
          <path
             d="m 27,24 c 0,1.656854 -1.343146,3 -3,3 -1.656854,0 -3,-1.343146 -3,-3 0,-1.656854 1.343146,-3 3,-3 1.656854,0 3,1.343146 3,3 z"
             id="path70" />
        </g>
      </g>
      <g
         transform="scale(0.5669291,0.5669291)"
         id="g72">
        <g
           id="g74"
           style="fill:#9999ff;fill-opacity:1;fill-rule:nonzero;stroke:none">
          <path
             d="m 32,11 c 0,1.656854 -1.343146,3 -3,3 -1.656854,0 -3,-1.343146 -3,-3 0,-1.6568542 1.343146,-3 3,-3 1.656854,0 3,1.3431458 3,3 z"
             id="path76" />
        </g>
      </g>
      <g
         transform="scale(0.5669291,0.5669291)"
         id="g78">
        <g
           id="g80"
           style="fill:none;stroke:#000000;stroke-linecap:round;stroke-linejoin:round;stroke-opacity:1">
          <path
             d="m 32,11 c 0,1.656854 -1.343146,3 -3,3 -1.656854,0 -3,-1.343146 -3,-3 0,-1.6568542 1.343146,-3 3,-3 1.656854,0 3,1.3431458 3,3 z"
             id="path82" />
        </g>
      </g>
    </g>
  </g>
</svg>
