<?xml version="1.0" encoding="UTF-8" standalone="no"?>
<!-- Created with Inkscape (http://www.inkscape.org/) -->
<svg id="svg9522" xmlns:rdf="http://www.w3.org/1999/02/22-rdf-syntax-ns#" xmlns="http://www.w3.org/2000/svg" height="48px" width="48px" viewBox="0 0 48 48" xmlns:cc="http://creativecommons.org/ns#" xmlns:xlink="http://www.w3.org/1999/xlink" xmlns:dc="http://purl.org/dc/elements/1.1/">
 <defs id="defs9524">
  <linearGradient id="linearGradient9556" y2="9.4978" gradientUnits="userSpaceOnUse" x2="16.786" y1="28.214" x1="16.786">
   <stop id="stop9552" style="stop-color:#edd400" offset="0"/>
   <stop id="stop9554" style="stop-color:#fce94f" offset="1"/>
  </linearGradient>
  <linearGradient id="linearGradient10387" y2="34.714" gradientUnits="userSpaceOnUse" x2="-5.5" gradientTransform="matrix(1.012 0 0 1 19.97 0)" y1="-5.4286" x1="-4.6429">
   <stop id="stop10383" style="stop-color:#fff" offset="0"/>
   <stop id="stop10385" style="stop-color:#fff;stop-opacity:0" offset="1"/>
  </linearGradient>
  <linearGradient id="linearGradient10387-8" y2="34.714" gradientUnits="userSpaceOnUse" x2="-5.5" gradientTransform="matrix(1.012 0 0 1 33.97 1.7579e-7)" y1="-5.4286" x1="-4.6429">
   <stop id="stop10383-3" style="stop-color:#fff" offset="0"/>
   <stop id="stop10385-3" style="stop-color:#fff;stop-opacity:0" offset="1"/>
  </linearGradient>
  <linearGradient id="linearGradient10411" y2="9.4978" gradientUnits="userSpaceOnUse" y1="28.214" gradientTransform="translate(14 1.7579e-7)" x2="16.786" x1="16.786">
   <stop id="stop9552-9" style="stop-color:#edd400" offset="0"/>
   <stop id="stop9554-7" style="stop-color:#fce94f" offset="1"/>
  </linearGradient>
  <linearGradient id="linearGradient10387-3" y2="34.714" gradientUnits="userSpaceOnUse" x2="-5.5" gradientTransform="matrix(1.012 0 0 1 12.97 13)" y1="-5.4286" x1="-4.6429">
   <stop id="stop10383-1" style="stop-color:#fff" offset="0"/>
   <stop id="stop10385-7" style="stop-color:#fff;stop-opacity:0" offset="1"/>
  </linearGradient>
  <linearGradient id="linearGradient10640" y2="9.4978" gradientUnits="userSpaceOnUse" y1="28.214" gradientTransform="translate(-7 13)" x2="16.786" x1="16.786">
   <stop id="stop9552-5" style="stop-color:#edd400" offset="0"/>
   <stop id="stop9554-4" style="stop-color:#fce94f" offset="1"/>
  </linearGradient>
  <linearGradient id="linearGradient10387-3-0" y2="34.714" gradientUnits="userSpaceOnUse" x2="-5.5" gradientTransform="matrix(1.012 0 0 1 26.97 13)" y1="-5.4286" x1="-4.6429">
   <stop id="stop10383-1-7" style="stop-color:#fff" offset="0"/>
   <stop id="stop10385-7-0" style="stop-color:#fff;stop-opacity:0" offset="1"/>
  </linearGradient>
  <linearGradient id="linearGradient10717" y2="9.4978" gradientUnits="userSpaceOnUse" y1="28.214" gradientTransform="translate(7 13)" x2="16.786" x1="16.786">
   <stop id="stop9552-5-8" style="stop-color:#edd400" offset="0"/>
   <stop id="stop9554-4-8" style="stop-color:#fce94f" offset="1"/>
  </linearGradient>
  <linearGradient id="linearGradient10387-3-0-9" y2="34.714" gradientUnits="userSpaceOnUse" x2="-5.5" gradientTransform="matrix(1.012 0 0 1 40.97 13)" y1="-5.4286" x1="-4.6429">
   <stop id="stop10383-1-7-6" style="stop-color:#fff" offset="0"/>
   <stop id="stop10385-7-0-2" style="stop-color:#fff;stop-opacity:0" offset="1"/>
  </linearGradient>
  <linearGradient id="linearGradient10770" y2="9.4978" gradientUnits="userSpaceOnUse" y1="28.214" gradientTransform="translate(21 13)" x2="16.786" x1="16.786">
   <stop id="stop9552-5-8-7" style="stop-color:#edd400" offset="0"/>
   <stop id="stop9554-4-8-7" style="stop-color:#fce94f" offset="1"/>
  </linearGradient>
  <filter id="filter10819" height="1.4548" width="1.0423" y="-.22742" x="-.021155">
   <feGaussianBlur id="feGaussianBlur10821" stdDeviation="0.37903226"/>
  </filter>
  <filter id="filter10819-0" height="1.4548" width="1.0423" y="-.22742" x="-.021155">
   <feGaussianBlur id="feGaussianBlur10821-5" stdDeviation="0.37903226"/>
  </filter>
 </defs>
 <metadata id="metadata9527">
  <rdf:RDF>
   <cc:Work rdf:about="">
    <dc:format>image/svg+xml</dc:format>
    <dc:type rdf:resource="http://purl.org/dc/dcmitype/StillImage"/>
    <dc:title/>
   </cc:Work>
  </rdf:RDF>
 </metadata>
 <g id="layer1">
  <rect id="rect10801" style="opacity:.27;color:rgb(0, 0, 0);filter:url(#filter10819);fill:#2e3436" transform="matrix(.95941 0 0 1 .95394 0)" rx="2.0846" ry="2" height="4" width="43" y="41" x="2"/>
  <rect id="rect9548-2" style="color:rgb(0, 0, 0);stroke-dashoffset:0pt;stroke:#c6a201;stroke-linecap:round;fill:url(#linearGradient10640)" rx="1.3536" ry="1.3536" height="27" width="14" y="16.5" x="2.5"/>
  <rect id="rect9548-2-6" style="color:rgb(0, 0, 0);stroke-dashoffset:0pt;stroke:#c6a201;stroke-linecap:round;fill:url(#linearGradient10717)" rx="1.3536" ry="1.3536" height="27" width="14" y="16.5" x="16.5"/>
  <path id="path9558-0-8-3" style="color:rgb(0, 0, 0);stroke-dashoffset:0pt;stroke:#e17513;stroke-linecap:round;stroke-width:1.1864;fill:none" d="m18.857 13.607a2.3929 2.3929 0 1 1 -4.7857 0 2.3929 2.3929 0 1 1 4.7857 0z" transform="matrix(.83582 0 0 .85001 6.7388 21.9)"/>
  <path id="path9558-0-8" style="color:rgb(0, 0, 0);stroke-dashoffset:0pt;stroke:#e17513;stroke-linecap:round;stroke-width:1.1964;fill:none" d="m18.857 13.607a2.3929 2.3929 0 1 1 -4.7857 0 2.3929 2.3929 0 1 1 4.7857 0z" transform="matrix(.83582 0 0 .83582 -7.2612 22.127)"/>
  <rect id="rect10379-2" style="color:rgb(0, 0, 0);stroke-dashoffset:0pt;stroke:url(#linearGradient10387-3);stroke-linecap:round;fill:none" rx=".44194" ry=".44194" height="25" width="12" y="17.5" x="3.5"/>
  <rect id="rect10379-2-9" style="color:rgb(0, 0, 0);stroke-dashoffset:0pt;stroke:url(#linearGradient10387-3-0);stroke-linecap:round;fill:none" rx=".44194" ry=".44194" height="25" width="12" y="17.5" x="17.5"/>
  <path id="path9558-0-8-6-5" style="color:rgb(0, 0, 0);stroke-dashoffset:0pt;stroke:#e17513;stroke-linecap:round;stroke-width:1.2067;fill:none" d="m18.857 13.607a2.3929 2.3929 0 1 1 -4.7857 0 2.3929 2.3929 0 1 1 4.7857 0z" transform="matrix(.83582 0 0 .82163 12.739 22.354)"/>
  <rect id="rect9548-2-6-7" style="color:rgb(0, 0, 0);stroke-dashoffset:0pt;stroke:#c6a201;stroke-linecap:round;fill:url(#linearGradient10770)" rx="1.3536" ry="1.3536" height="27" width="14" y="16.5" x="30.5"/>
  <path id="path9558-0-8-6-5-8-3" style="color:rgb(0, 0, 0);stroke-dashoffset:0pt;stroke:#e17513;stroke-linecap:round;stroke-width:1.2067;fill:none" d="m18.857 13.607a2.3929 2.3929 0 1 1 -4.7857 0 2.3929 2.3929 0 1 1 4.7857 0z" transform="matrix(.83582 0 0 .82163 23.739 18.286)"/>
  <rect id="rect10379-2-9-1" style="color:rgb(0, 0, 0);stroke-dashoffset:0pt;stroke:url(#linearGradient10387-3-0-9);stroke-linecap:round;fill:none" rx=".44194" ry=".44194" height="25" width="12" y="17.5" x="31.5"/>
  <path id="path9558-0-8-6" style="color:rgb(0, 0, 0);stroke-dashoffset:0pt;stroke:#e17513;stroke-linecap:round;stroke-width:1.1864;fill:none" d="m18.857 13.607a2.3929 2.3929 0 1 1 -4.7857 0 2.3929 2.3929 0 1 1 4.7857 0z" transform="matrix(.83582 0 0 .85001 -1.2612 21.968)"/>
  <path id="path9558-0-8-3-1" style="color:rgb(0, 0, 0);stroke-dashoffset:0pt;stroke:#e17513;stroke-linecap:round;stroke-width:1.1864;fill:none" d="m18.857 13.607a2.3929 2.3929 0 1 1 -4.7857 0 2.3929 2.3929 0 1 1 4.7857 0z" transform="matrix(.83582 0 0 .85001 20.739 21.9)"/>
  <rect id="rect10801-0" style="opacity:0.277;color:rgb(0, 0, 0);filter:url(#filter10819-0);fill:#2e3436" transform="matrix(.66935 0 0 1.031 3.5243 -.83814)" rx="2.988" ry="1.9398" height="4" width="43" y="27.91" x="9.0903"/>
  <path id="path9558-0" style="color:rgb(0, 0, 0);stroke-dashoffset:0pt;stroke:#e17513;stroke-linecap:round;stroke-width:1.1668;fill:none" d="m18.857 13.607a2.3929 2.3929 0 1 1 -4.7857 0 2.3929 2.3929 0 1 1 4.7857 0z" transform="matrix(.86420 0 0 .85001 -7.7963 15.968)"/>
  <path id="path9558-0-8-6-5-8" style="color:rgb(0, 0, 0);stroke-dashoffset:0pt;stroke:#e17513;stroke-linecap:round;stroke-width:1.2067;fill:none" d="m18.857 13.607a2.3929 2.3929 0 1 1 -4.7857 0 2.3929 2.3929 0 1 1 4.7857 0z" transform="matrix(.83582 0 0 .82163 26.739 22.354)"/>
  <rect id="rect9548" style="color:rgb(0, 0, 0);stroke-dashoffset:0pt;stroke:#c6a201;stroke-linecap:round;fill:url(#linearGradient9556)" rx="1.3536" ry="1.3536" height="27" width="14" y="3.5" x="9.5"/>
  <path id="path9558" style="color:rgb(0, 0, 0);stroke-dashoffset:0pt;stroke:#e17513;stroke-linecap:round;stroke-width:1.1668;fill:none" d="m18.857 13.607a2.3929 2.3929 0 1 1 -4.7857 0 2.3929 2.3929 0 1 1 4.7857 0z" transform="matrix(.86420 0 0 .85001 2.2716 1.9678)"/>
  <path id="path9558-4" style="color:rgb(0, 0, 0);stroke-dashoffset:0pt;stroke:#e17513;stroke-linecap:round;stroke-width:1.1668;fill:none" d="m18.857 13.607a2.3929 2.3929 0 1 1 -4.7857 0 2.3929 2.3929 0 1 1 4.7857 0z" transform="matrix(.86420 0 0 .85001 2.2037 7.9678)"/>
  <rect id="rect9548-8" style="color:rgb(0, 0, 0);stroke-dashoffset:0pt;stroke:#c6a201;stroke-linecap:round;fill:url(#linearGradient10411)" rx="1.6629" ry="1.6629" height="27" width="14" y="3.5" x="23.5"/>
  <path id="path9558-8" style="color:rgb(0, 0, 0);stroke-dashoffset:0pt;stroke:#e17513;stroke-linecap:round;stroke-width:1.1668;fill:none" d="m18.857 13.607a2.3929 2.3929 0 1 1 -4.7857 0 2.3929 2.3929 0 1 1 4.7857 0z" transform="matrix(.86420 0 0 .85001 16.204 4.9678)"/>
  <rect id="rect10379" style="color:rgb(0, 0, 0);stroke-dashoffset:0pt;stroke:url(#linearGradient10387);stroke-linecap:round;fill:none" rx=".44194" ry=".44194" height="25" width="12" y="4.5" x="10.5"/>
  <rect id="rect10379-3" style="color:rgb(0, 0, 0);stroke-dashoffset:0pt;stroke:url(#linearGradient10387-8);stroke-linecap:round;fill:none" rx=".53033" ry=".53033" height="25" width="12" y="4.5" x="24.5"/>
 </g>
</svg>
