<?xml version="1.0" encoding="UTF-8" ?>
<!DOCTYPE svg PUBLIC "-//W3C//DTD SVG 1.1//EN" "http://www.w3.org/Graphics/SVG/1.1/DTD/svg11.dtd">
<svg width="1088pt" height="820pt" viewBox="0 0 1088 820" version="1.1" xmlns="http://www.w3.org/2000/svg">
<path fill="#fdfdfd" d=" M 0.00 0.00 L 1088.00 0.00 L 1088.00 820.00 L 0.00 820.00 L 0.00 0.00 Z" />
<path fill="#030303" d=" M 611.99 19.07 C 619.38 19.39 625.85 15.40 632.46 12.73 C 631.31 16.62 630.70 20.70 631.26 24.75 C 634.06 27.54 638.41 27.27 641.63 29.32 C 644.60 31.41 645.80 35.48 649.39 36.77 C 651.46 37.61 653.40 35.92 655.26 35.22 C 655.00 38.70 653.82 42.13 654.19 45.63 C 656.46 49.82 661.46 51.20 665.92 51.13 C 670.76 51.39 675.59 51.84 680.44 51.90 C 680.80 49.78 681.11 47.65 681.47 45.54 C 683.74 49.36 685.54 53.44 687.66 57.34 C 689.30 59.36 691.00 61.34 692.22 63.67 C 690.06 63.83 687.92 63.99 685.79 64.31 C 687.68 69.55 689.85 75.06 688.67 80.73 C 687.84 84.15 689.11 87.51 690.05 90.76 C 694.10 91.81 697.76 94.10 701.86 94.88 C 705.34 93.71 708.34 91.36 711.91 90.42 C 714.71 89.94 717.56 89.97 720.40 89.85 C 721.44 88.14 722.36 86.26 724.04 85.05 C 728.93 81.31 732.80 76.45 737.52 72.50 C 739.83 70.75 741.24 68.18 743.11 66.02 C 744.97 65.10 747.08 65.75 749.06 65.78 C 759.45 66.17 770.02 66.70 779.98 70.00 C 783.96 71.40 788.32 70.43 792.29 71.74 C 798.79 74.78 806.18 74.05 813.02 75.90 C 816.52 75.96 818.43 79.18 820.69 81.35 C 822.14 83.05 824.30 83.80 826.17 84.93 C 834.95 91.70 840.18 101.69 846.30 110.71 C 848.74 115.07 851.22 119.46 852.77 124.24 C 855.90 133.75 861.33 142.61 862.31 152.73 C 863.82 157.63 866.34 162.36 869.81 166.16 C 873.61 169.34 877.92 172.41 879.82 177.19 C 881.62 182.28 880.49 187.80 881.93 192.97 C 884.46 193.00 887.00 193.01 889.55 193.03 C 890.16 195.68 890.83 198.40 892.38 200.68 C 895.63 202.82 899.71 202.83 903.42 203.60 C 908.58 204.37 913.58 205.89 918.54 207.48 C 921.16 208.23 922.34 210.99 924.56 212.38 C 931.05 216.69 939.09 217.99 945.39 222.65 C 949.61 225.78 954.16 228.45 958.33 231.67 C 961.14 233.79 964.74 234.42 967.68 236.34 C 973.14 239.85 979.18 242.26 985.00 245.08 C 987.80 246.76 991.08 245.35 994.12 245.83 C 996.70 245.79 999.05 246.90 1001.31 248.06 C 1000.72 250.29 999.40 252.41 999.39 254.74 C 1000.22 256.64 1001.67 258.18 1002.96 259.79 C 1001.85 261.17 1000.68 262.52 999.90 264.12 C 1000.57 268.51 1007.55 269.21 1006.97 273.96 C 1006.86 275.70 1006.46 277.41 1006.16 279.13 C 1008.67 279.20 1011.18 279.15 1013.71 279.21 C 1013.90 283.33 1013.99 287.46 1014.09 291.59 C 1017.38 293.49 1019.62 296.56 1021.42 299.84 C 1019.14 299.50 1016.87 299.14 1014.60 298.90 C 1015.95 305.32 1020.53 310.44 1022.37 316.69 C 1025.52 324.46 1029.35 332.02 1034.81 338.45 C 1031.34 338.37 1027.88 338.75 1024.70 340.24 C 1027.67 348.37 1031.16 356.33 1033.27 364.74 C 1037.30 376.87 1037.76 389.76 1040.92 402.09 C 1042.49 409.32 1044.91 416.53 1044.73 424.01 C 1045.10 427.09 1046.82 429.87 1046.95 433.01 C 1047.27 439.03 1046.38 445.17 1047.89 451.10 C 1049.20 456.46 1049.50 462.01 1050.73 467.38 C 1053.70 474.50 1052.98 482.34 1054.00 489.83 C 1054.10 496.46 1056.55 502.70 1057.88 509.13 C 1058.69 512.95 1058.55 516.86 1058.78 520.74 C 1058.91 524.64 1060.85 528.34 1060.25 532.30 C 1059.36 537.90 1063.28 543.79 1059.92 548.98 C 1060.73 549.86 1061.59 550.72 1062.37 551.67 C 1062.30 553.46 1061.77 555.20 1061.69 557.00 C 1062.07 559.94 1063.51 563.07 1062.02 565.95 C 1059.69 571.34 1061.71 577.20 1062.35 582.73 C 1063.42 587.46 1061.66 592.19 1061.99 596.97 C 1062.20 602.33 1061.81 607.68 1061.13 613.00 C 1061.15 619.64 1059.27 626.21 1060.19 632.86 C 1060.72 636.31 1061.42 639.76 1061.32 643.28 C 1061.07 646.18 1064.08 648.10 1063.96 651.00 C 1064.23 656.99 1063.77 663.01 1064.03 669.01 C 1064.13 672.21 1066.17 674.87 1067.12 677.85 C 1068.42 681.09 1067.79 684.63 1067.98 688.03 C 1068.03 691.41 1069.35 694.59 1070.24 697.82 C 1066.47 700.02 1062.75 702.73 1058.30 703.26 C 1055.12 703.93 1051.59 703.80 1048.96 706.00 C 1045.47 708.64 1041.56 710.62 1037.75 712.74 C 1035.18 715.31 1033.03 718.28 1030.89 721.22 C 1028.92 723.69 1031.13 726.78 1031.49 729.46 C 1032.47 735.72 1032.93 742.45 1030.50 748.47 C 1029.66 751.49 1030.01 754.68 1029.94 757.79 C 1025.46 761.41 1021.18 765.47 1015.85 767.85 C 1012.94 769.16 1009.61 768.66 1006.65 769.67 C 1000.17 773.51 992.25 772.92 985.00 773.01 C 978.06 773.22 970.96 772.20 964.20 774.19 C 956.21 776.47 948.08 773.68 940.01 773.97 C 932.75 773.88 925.36 774.66 918.26 772.75 C 911.11 770.81 903.07 773.86 896.52 769.54 C 890.26 767.27 885.88 762.13 880.38 758.62 C 876.54 756.21 873.48 752.75 869.52 750.53 C 862.86 747.62 860.50 740.15 856.02 734.98 C 854.79 732.69 851.58 731.06 852.04 728.21 C 853.42 725.12 855.61 721.84 859.14 721.06 C 861.28 721.16 863.42 721.71 865.42 722.54 C 868.57 724.37 870.87 728.43 874.98 728.01 C 881.19 727.32 887.39 726.46 893.59 725.66 C 896.59 721.44 899.34 716.44 899.51 711.10 C 899.14 708.74 896.65 707.73 895.00 706.39 C 895.06 704.01 894.61 701.63 892.49 700.23 C 886.05 698.57 880.39 703.56 873.98 703.10 C 871.03 703.61 869.17 701.03 866.76 699.96 C 864.04 699.71 861.67 701.31 859.23 702.20 C 852.43 704.69 844.77 706.40 837.76 703.72 C 832.49 704.79 825.63 707.04 821.32 702.66 C 818.17 699.62 813.34 701.91 809.58 700.38 C 806.02 699.39 803.47 695.14 799.41 696.39 C 795.29 697.34 791.15 696.09 787.29 694.75 C 784.07 693.51 780.26 694.69 777.32 692.67 C 774.15 690.25 770.02 691.09 766.33 690.93 C 765.20 689.34 764.07 687.77 762.90 686.23 C 759.02 686.21 755.14 685.96 751.27 685.95 C 750.41 684.63 749.56 683.32 748.71 682.02 C 744.22 681.71 738.71 683.27 735.17 679.71 C 734.54 674.39 735.38 669.04 735.22 663.71 C 735.03 658.53 737.60 653.84 739.05 649.01 C 740.31 644.94 743.49 641.80 744.81 637.79 C 745.28 633.19 744.93 628.55 745.04 623.94 C 744.90 621.99 745.32 619.72 743.90 618.15 C 741.68 615.08 739.75 611.56 736.21 609.81 C 731.22 607.20 727.09 603.34 722.65 599.94 C 726.51 595.69 730.80 591.87 735.12 588.11 C 739.04 581.75 741.39 574.56 743.29 567.37 C 744.14 564.62 742.30 561.53 743.89 558.97 C 746.31 554.60 748.29 549.89 748.88 544.89 C 749.32 542.02 748.97 538.98 750.20 536.27 C 752.73 529.93 754.46 523.29 755.59 516.56 C 756.12 513.45 753.89 510.39 755.25 507.33 C 757.64 501.83 759.94 496.11 760.06 490.01 C 760.11 485.48 762.09 481.06 761.21 476.52 C 760.73 473.90 761.50 471.28 761.76 468.69 C 761.81 465.45 766.02 464.20 765.95 460.94 C 766.37 452.27 764.96 443.39 767.72 434.97 C 768.01 431.23 771.01 428.75 772.59 425.60 C 774.19 421.21 773.74 416.43 774.98 411.97 C 777.96 401.02 783.00 390.81 787.62 380.50 C 789.08 377.32 786.28 374.56 785.23 371.77 C 785.34 369.44 786.39 367.30 787.07 365.11 C 789.33 359.07 790.71 352.64 794.05 347.05 C 797.25 341.62 800.80 336.34 803.06 330.42 C 804.85 325.37 808.11 321.02 810.00 316.02 C 811.43 312.91 811.73 309.40 813.29 306.36 C 815.50 304.32 818.30 303.05 820.64 301.17 C 818.40 298.64 815.86 296.36 812.75 294.97 C 812.91 298.09 812.85 302.62 809.43 303.97 C 805.42 304.45 801.34 303.43 797.35 304.19 C 794.90 305.68 794.87 308.78 794.24 311.25 C 793.56 315.19 792.24 318.99 790.60 322.63 C 789.24 325.72 786.52 327.86 784.48 330.47 C 779.31 336.93 772.33 341.87 768.02 349.03 C 765.97 352.46 766.18 356.73 764.07 360.14 C 761.94 363.65 758.53 367.31 754.05 367.05 C 747.25 367.14 742.81 360.83 736.43 359.49 C 733.63 358.47 730.75 359.59 728.01 360.19 C 727.92 364.14 727.85 368.17 729.01 372.01 C 730.31 376.41 730.55 381.68 727.56 385.49 C 723.34 387.45 719.65 390.26 715.64 392.58 C 709.30 394.98 704.10 399.91 700.70 405.70 C 697.77 411.93 700.47 418.50 701.22 424.86 C 697.65 422.88 693.78 421.58 690.12 419.79 C 688.42 418.89 686.34 418.59 684.58 419.48 C 683.43 422.86 684.02 426.50 683.96 430.00 C 684.18 437.28 683.68 444.58 684.22 451.85 C 685.30 458.02 684.90 464.29 685.34 470.52 C 685.72 475.40 684.38 480.33 685.65 485.16 C 686.63 488.78 684.81 492.34 684.99 495.97 C 685.04 498.08 686.03 499.99 686.44 502.04 C 687.02 507.13 685.46 512.24 686.63 517.30 C 687.88 524.10 688.00 530.98 688.25 537.86 C 689.45 543.24 687.51 548.61 687.98 554.03 C 687.99 557.12 689.63 559.98 689.47 563.07 C 689.07 568.48 690.30 573.94 688.95 579.28 C 689.62 578.38 690.31 577.49 691.01 576.61 C 689.95 582.29 691.63 588.03 690.70 593.73 C 689.54 600.09 690.12 606.57 690.12 612.99 C 690.47 621.75 689.11 630.61 690.77 639.30 C 691.39 642.62 689.76 645.93 690.67 649.24 C 692.01 655.63 693.13 662.07 693.56 668.60 C 694.10 673.28 693.80 678.43 696.67 682.45 C 698.14 684.43 697.52 687.02 697.97 689.29 C 698.13 692.17 700.95 694.09 700.96 697.00 C 701.15 700.31 701.00 703.64 700.97 706.96 C 696.66 707.33 692.26 707.45 688.15 705.87 C 684.50 705.12 683.20 701.23 681.91 698.21 C 680.01 691.05 680.20 683.58 679.66 676.26 C 677.51 669.80 678.24 662.93 676.95 656.31 C 676.67 648.55 677.34 640.77 676.91 633.01 C 676.55 629.51 674.97 626.25 674.76 622.72 C 674.34 620.17 676.12 617.84 675.70 615.29 C 674.67 608.55 672.62 601.89 673.00 595.00 C 673.33 589.20 671.73 583.57 671.26 577.84 C 671.47 573.62 672.33 569.39 671.47 565.18 C 671.85 565.30 672.60 565.53 672.97 565.65 C 673.00 565.08 673.05 563.95 673.07 563.38 C 672.57 563.48 671.57 563.67 671.07 563.77 C 672.56 556.92 671.92 549.89 672.21 542.96 C 671.44 535.64 672.40 528.30 672.31 520.98 C 672.49 518.66 671.33 516.65 670.19 514.74 C 672.72 510.13 670.56 504.97 669.11 500.39 C 668.05 493.79 667.94 487.09 667.82 480.42 C 667.78 476.44 666.33 472.70 665.59 468.84 C 665.44 462.19 664.29 455.60 663.01 449.09 C 661.05 448.71 659.13 448.15 657.14 448.03 C 653.84 448.93 651.95 452.02 649.80 454.42 C 648.75 446.64 648.64 438.41 644.58 431.42 C 642.23 428.09 638.29 425.89 636.99 421.87 C 637.22 417.37 639.86 413.50 641.31 409.34 C 643.51 402.79 643.11 395.78 642.90 388.98 C 642.90 386.24 641.68 383.11 643.67 380.76 C 649.19 372.43 659.92 370.37 669.15 369.25 C 677.98 369.41 686.62 366.64 694.19 362.21 C 697.77 360.43 698.56 354.08 694.52 352.46 C 689.46 350.12 683.76 350.34 678.37 349.61 C 673.25 348.84 671.22 343.13 666.66 341.29 C 664.52 341.08 662.42 341.77 660.32 342.04 C 659.10 339.91 658.43 336.97 655.77 336.21 C 652.11 334.85 648.22 334.25 644.41 333.47 C 636.79 331.62 629.89 337.35 622.25 336.32 C 618.09 334.53 615.71 330.08 611.30 328.75 C 607.77 327.77 604.11 327.40 600.58 326.45 C 595.48 325.49 590.79 323.03 585.61 322.42 C 575.89 321.16 566.09 320.56 556.34 319.72 C 553.88 317.93 553.02 314.84 551.77 312.22 C 549.73 307.23 546.86 302.64 543.67 298.33 C 539.81 293.85 535.02 290.22 531.59 285.36 C 529.67 282.62 526.68 280.72 525.26 277.64 C 525.39 265.14 529.55 253.24 532.19 241.14 C 532.88 237.99 535.33 235.37 538.44 234.49 C 544.35 232.81 549.55 229.42 555.28 227.28 C 560.21 225.42 564.12 221.77 568.85 219.55 C 568.93 221.00 569.01 222.46 569.09 223.92 C 565.06 227.34 561.73 231.56 557.19 234.39 C 553.10 237.80 547.23 238.80 544.19 243.46 C 542.74 247.55 546.75 250.36 548.89 253.24 C 546.88 256.27 544.18 259.20 544.00 263.02 C 543.80 265.27 543.41 267.52 543.49 269.79 C 544.44 273.72 549.01 275.77 552.77 274.94 C 554.31 274.81 555.26 273.39 555.46 271.98 C 556.45 266.93 558.93 262.37 560.56 257.52 C 561.54 254.96 563.46 251.20 566.78 252.06 C 571.31 253.86 575.34 256.79 578.77 260.23 C 580.68 262.60 584.61 262.74 586.92 260.94 C 588.91 258.86 590.48 256.41 592.49 254.33 C 593.45 257.37 594.53 260.65 593.30 263.79 C 591.66 268.24 591.03 273.79 594.29 277.68 C 598.64 282.35 602.66 287.30 607.15 291.85 C 611.57 296.42 614.87 302.26 620.51 305.49 C 626.61 308.47 633.23 310.53 640.03 310.96 C 645.59 311.17 651.15 312.77 656.72 311.74 C 659.50 310.35 656.98 307.56 655.75 306.03 C 655.00 307.45 654.24 308.87 653.45 310.27 C 653.10 308.31 652.79 306.35 652.43 304.39 C 655.96 303.62 659.09 301.74 662.44 300.47 C 666.42 299.66 670.65 300.19 674.47 298.58 C 676.94 296.01 679.51 291.89 683.72 293.16 C 696.06 296.28 707.96 301.56 720.83 302.19 C 722.23 299.22 722.93 295.67 725.35 293.34 C 729.80 293.30 734.56 292.13 736.82 287.88 C 739.00 282.54 742.06 277.64 744.75 272.56 C 746.14 267.84 740.99 264.55 740.43 260.06 C 737.44 260.02 734.46 259.99 731.48 259.96 C 730.76 257.76 730.71 254.72 728.32 253.60 C 725.47 252.16 722.11 253.24 719.34 254.32 C 716.39 255.19 716.12 258.66 714.89 261.01 C 712.80 259.88 710.68 258.80 708.60 257.70 C 708.53 252.86 714.92 251.03 714.08 246.11 C 714.36 244.09 712.48 242.92 711.07 241.92 C 708.36 239.92 704.88 239.91 701.74 239.14 C 698.15 242.75 699.24 248.12 697.58 252.56 C 696.52 255.27 695.46 258.19 693.22 260.17 C 689.73 262.67 689.22 267.65 685.02 269.43 C 686.09 266.53 687.56 263.78 688.54 260.85 C 689.95 253.35 687.53 245.96 686.42 238.59 C 685.94 234.46 682.63 231.67 680.08 228.70 C 675.87 230.49 671.04 230.52 667.16 233.10 C 661.71 236.31 657.98 241.61 652.98 245.40 C 656.74 239.54 661.47 233.98 663.02 227.01 C 664.34 222.65 665.34 217.93 668.28 214.31 C 671.96 210.58 675.98 207.17 680.05 203.86 C 680.01 201.98 680.00 200.10 680.00 198.22 C 676.18 195.60 672.64 192.52 668.57 190.30 C 664.54 189.36 660.23 190.90 656.66 192.73 C 654.75 196.73 655.67 201.52 653.42 205.38 C 651.78 208.24 650.62 212.30 646.82 212.78 C 643.51 213.93 639.11 213.63 637.12 217.05 C 633.98 221.70 629.12 224.62 624.32 227.29 C 621.30 228.84 619.24 231.65 616.49 233.57 C 613.50 235.01 609.25 234.93 608.02 238.66 C 604.32 238.86 600.78 239.90 597.38 241.31 C 596.23 238.88 594.71 236.59 593.98 233.99 C 595.04 229.92 598.41 225.93 596.64 221.55 C 594.80 219.22 592.67 217.09 591.41 214.36 C 595.90 212.84 600.58 211.82 604.93 209.91 C 607.77 208.12 610.35 205.88 612.69 203.48 C 613.23 201.83 613.14 200.04 612.91 198.34 C 610.94 195.84 607.49 195.46 604.68 196.63 C 599.97 197.87 594.14 200.88 589.80 197.21 C 586.22 193.87 581.14 192.68 576.37 193.02 C 574.51 197.02 572.79 201.69 568.71 203.91 C 565.50 204.45 563.19 201.79 560.62 200.38 C 556.23 198.32 557.23 192.67 554.88 189.10 C 552.28 185.11 547.85 180.80 549.50 175.61 C 550.72 171.28 552.17 166.68 555.52 163.50 C 558.07 161.04 558.67 157.01 557.23 153.81 C 556.25 150.27 552.58 148.79 549.58 147.37 C 546.19 146.37 546.05 142.19 543.64 140.07 C 539.85 139.00 536.79 141.60 533.77 143.39 C 535.33 140.54 537.23 137.90 539.03 135.20 C 538.56 133.85 538.13 132.49 537.71 131.14 C 535.14 130.49 532.57 129.88 530.02 129.20 C 527.37 132.46 524.63 135.68 522.74 139.46 C 521.05 138.37 519.40 136.60 517.21 136.95 C 515.35 137.88 513.98 139.52 512.48 140.90 C 511.17 140.72 509.87 140.51 508.57 140.31 C 507.16 142.99 505.00 145.16 502.41 146.72 C 503.08 143.39 503.53 139.63 506.31 137.31 C 509.62 134.31 511.45 130.14 514.28 126.73 C 512.67 125.57 510.64 124.82 509.60 123.04 C 513.52 120.04 518.10 117.95 521.71 114.54 C 524.66 110.13 519.12 105.94 520.31 101.32 C 521.73 95.59 518.96 88.93 522.91 83.91 C 525.47 80.48 528.36 77.32 530.86 73.85 C 534.38 68.98 540.64 67.70 545.17 64.13 C 547.20 62.62 547.38 59.81 546.77 57.54 C 545.01 56.19 543.00 55.21 540.99 54.29 C 536.22 57.90 530.26 59.64 524.34 59.92 C 527.02 57.82 530.57 57.85 533.63 56.62 C 534.81 56.12 535.29 55.21 535.06 53.90 C 535.16 51.17 534.54 48.49 533.93 45.84 C 535.30 46.91 536.42 48.47 538.13 49.03 C 540.45 49.43 541.60 46.85 543.23 45.67 C 545.00 47.91 546.57 50.39 548.84 52.19 C 552.67 54.51 558.18 54.73 560.93 50.61 C 561.22 46.63 559.25 42.96 558.66 39.09 C 562.02 37.40 565.82 36.84 569.18 35.19 C 571.68 33.00 573.46 30.12 575.72 27.69 C 578.47 24.63 577.92 20.16 579.67 16.62 C 582.93 15.37 586.61 16.32 590.05 15.97 C 593.40 16.16 596.30 13.35 599.66 14.14 C 603.70 15.90 607.34 19.17 611.99 19.07 Z" />
<path fill="#fdfdfd" d=" M 808.25 77.25 C 808.78 77.79 808.78 77.79 808.25 77.25 Z" />
<path fill="#030303" d=" M 979.25 123.26 C 979.79 123.79 979.79 123.79 979.25 123.26 Z" />
<path fill="#030303" d=" M 262.25 189.20 C 266.76 183.38 273.53 180.17 279.93 176.91 C 279.42 179.47 279.06 182.06 278.83 184.66 C 282.72 185.89 287.05 186.83 290.89 184.86 C 297.45 181.67 304.57 179.57 311.86 179.06 C 314.60 179.59 316.60 182.00 319.36 182.66 C 324.46 183.80 329.62 182.21 334.72 181.81 C 336.88 184.45 339.66 186.42 342.46 188.32 C 340.72 188.93 338.99 189.53 337.25 190.13 C 337.71 192.17 337.94 194.27 338.62 196.25 C 343.13 199.27 347.43 202.63 352.08 205.45 C 350.01 206.24 347.97 207.10 345.96 208.03 C 346.53 213.57 346.33 219.16 347.10 224.69 C 347.47 227.30 345.67 229.80 346.48 232.42 C 347.00 239.19 352.93 243.28 357.03 247.98 C 359.55 250.39 361.45 253.32 363.16 256.34 C 360.32 258.68 357.07 260.43 353.84 262.15 C 354.34 264.65 354.88 267.15 355.29 269.67 C 351.82 271.84 349.37 275.78 349.93 279.98 C 349.47 284.50 352.67 289.56 349.62 293.61 C 347.44 296.43 344.90 298.97 342.15 301.23 C 340.02 303.15 337.03 302.42 334.43 302.57 C 330.75 302.86 327.28 300.73 323.60 301.50 C 320.81 301.89 317.96 302.24 315.35 303.36 C 313.50 304.06 314.12 306.31 314.13 307.83 C 314.66 311.44 314.86 315.09 315.30 318.72 C 316.92 323.01 319.89 326.67 322.91 330.08 C 324.83 332.31 324.92 335.80 327.61 337.38 C 330.29 339.33 332.99 341.47 334.50 344.51 C 336.53 347.44 335.68 351.20 336.61 354.48 C 337.32 358.13 340.95 360.05 342.75 363.14 C 349.32 371.31 352.24 381.57 355.77 391.26 C 357.98 396.10 355.93 401.77 358.53 406.50 C 362.97 415.23 362.72 425.23 365.53 434.45 C 366.73 440.46 365.01 446.82 367.30 452.68 C 369.66 459.30 368.48 466.39 369.81 473.18 C 372.02 484.99 370.61 497.06 371.00 509.00 C 370.57 517.21 372.45 525.98 368.67 533.66 C 366.78 537.97 363.84 542.08 363.96 546.98 C 363.92 550.29 362.52 553.34 361.42 556.41 C 359.45 560.77 360.26 565.81 358.18 570.16 C 355.94 574.99 354.61 580.14 353.33 585.29 C 352.64 589.09 353.31 592.98 352.82 596.80 C 351.87 599.43 350.04 601.72 349.60 604.55 C 348.28 611.11 347.73 617.90 345.17 624.15 C 343.20 628.59 344.76 633.62 343.13 638.13 C 342.29 640.32 342.06 642.65 341.95 644.98 C 341.83 650.31 338.36 654.67 336.43 659.43 C 335.62 662.57 336.17 665.86 335.99 669.06 C 336.17 672.90 333.06 675.81 332.61 679.54 C 331.40 689.01 329.11 698.37 328.98 707.97 C 329.00 721.32 329.02 734.67 328.98 748.02 C 328.86 753.69 330.17 759.27 330.08 764.95 C 330.02 768.83 335.01 769.36 336.86 772.11 C 339.20 775.56 342.18 778.56 344.10 782.29 C 346.25 782.76 348.50 783.23 350.20 784.76 C 352.61 786.96 355.89 787.52 358.94 788.32 C 359.66 791.42 360.05 794.58 360.15 797.78 C 353.16 798.69 346.45 802.21 339.28 800.73 C 334.91 799.84 330.31 800.45 326.09 798.88 C 323.90 798.15 321.86 797.05 319.66 796.38 C 316.74 795.82 313.67 796.13 310.83 795.14 C 306.39 793.82 302.83 790.04 298.00 790.02 C 291.39 789.89 284.77 790.06 278.16 790.00 C 277.14 785.43 277.05 780.76 276.78 776.13 C 275.94 772.10 274.36 768.18 274.32 764.01 C 274.58 759.60 275.92 754.92 274.42 750.65 C 270.11 745.12 271.42 737.77 270.66 731.28 C 269.45 724.52 270.55 717.59 269.21 710.84 C 268.80 702.26 268.94 693.65 269.13 685.06 C 270.44 677.44 269.91 669.70 270.01 662.00 C 270.00 657.52 270.21 653.01 269.43 648.57 C 268.30 641.67 269.85 634.58 268.25 627.74 C 266.03 618.99 267.33 609.91 267.00 601.00 C 266.66 592.51 268.06 583.77 265.48 575.51 C 264.20 571.63 263.79 567.51 262.30 563.69 C 260.32 559.00 261.00 553.66 259.04 548.96 C 256.97 543.99 250.38 542.33 249.26 536.77 C 247.77 530.48 244.37 524.75 243.67 518.28 C 242.66 511.46 237.43 506.09 236.82 499.17 C 235.85 490.81 230.96 483.57 229.69 475.29 C 228.84 470.89 229.15 466.35 228.06 462.00 C 222.93 462.11 217.48 461.20 212.74 463.67 C 208.26 464.80 205.81 469.91 200.97 469.98 C 194.36 470.57 188.33 474.02 183.54 478.47 C 181.54 479.96 179.71 482.37 176.94 482.10 C 174.44 482.36 172.43 480.70 170.41 479.51 C 168.47 478.00 165.91 478.38 163.62 478.05 C 162.33 481.34 160.49 484.51 157.44 486.46 C 153.76 488.59 154.43 493.32 152.67 496.65 C 151.42 498.22 149.65 499.23 148.06 500.40 C 147.94 504.19 147.91 507.99 147.97 511.80 C 146.18 512.67 144.23 513.31 142.66 514.59 C 140.88 518.54 139.26 522.56 137.44 526.50 C 135.09 530.37 132.16 533.84 129.47 537.47 C 127.19 541.51 126.28 546.16 125.66 550.72 C 125.20 553.73 122.32 556.03 122.77 559.21 C 123.08 563.92 122.42 568.96 124.64 573.32 C 127.55 574.44 130.97 573.54 133.71 575.28 C 136.22 576.68 139.09 577.19 141.70 578.37 C 144.34 579.54 146.14 581.89 148.47 583.53 C 154.27 586.96 160.97 588.31 167.54 589.40 C 171.61 591.80 174.39 596.04 178.54 598.42 C 180.34 599.53 182.69 600.41 183.30 602.68 C 185.76 609.83 187.31 617.39 187.03 625.00 C 186.89 631.98 187.17 638.97 186.95 645.96 C 187.08 649.81 182.29 651.34 182.13 655.08 C 181.84 657.99 180.73 660.71 179.26 663.22 C 177.05 666.64 178.97 671.20 176.53 674.55 C 174.25 677.69 173.42 681.51 171.99 685.03 C 169.53 687.75 167.98 691.02 167.33 694.63 C 165.83 695.14 164.27 695.54 162.89 696.34 C 159.96 700.79 160.50 706.43 158.15 711.12 C 157.13 713.39 156.74 715.86 156.28 718.30 C 155.82 724.29 150.69 729.47 152.89 735.69 C 150.13 738.19 149.17 741.88 148.44 745.39 C 148.24 748.30 149.06 751.25 148.13 754.11 C 146.95 757.90 148.90 761.72 148.23 765.58 C 147.03 765.43 145.83 765.30 144.63 765.19 C 145.14 766.16 145.65 767.15 146.17 768.14 C 147.44 767.54 148.71 766.93 149.97 766.33 C 150.11 768.99 149.56 771.84 150.51 774.39 C 153.59 778.68 158.36 781.26 161.92 785.12 C 164.53 788.24 168.95 787.59 172.52 788.46 C 174.39 789.54 175.86 791.17 177.60 792.43 C 180.00 793.28 182.54 793.65 185.02 794.19 C 186.33 797.52 186.61 801.99 183.18 804.16 C 172.86 809.12 161.13 808.00 150.04 807.91 C 143.35 806.93 136.66 805.67 130.16 803.81 C 124.00 801.33 116.75 801.04 111.65 796.38 C 110.05 794.95 107.79 795.01 105.83 794.51 C 107.73 789.39 108.39 783.85 110.99 778.99 C 112.97 775.36 113.65 771.26 114.34 767.25 C 115.01 763.26 117.84 759.59 116.73 755.41 C 115.16 747.87 112.87 740.32 113.54 732.52 C 114.17 728.93 112.20 725.64 111.86 722.13 C 110.41 715.80 112.17 709.39 112.00 703.02 C 112.01 700.33 111.89 697.65 112.04 694.98 C 112.00 691.69 114.92 689.27 114.95 686.01 C 115.15 681.26 114.75 676.47 115.54 671.76 C 114.14 671.49 112.74 671.15 111.31 671.09 C 107.60 672.92 104.41 676.73 99.91 676.19 C 95.53 675.80 91.84 678.47 87.80 679.62 C 83.43 680.71 78.90 681.41 74.40 681.11 C 72.12 679.96 70.39 677.84 67.88 677.16 C 63.48 675.90 59.17 674.19 55.37 671.61 C 50.51 667.84 43.99 671.22 38.62 669.55 C 35.40 666.29 32.86 662.45 30.26 658.71 C 28.66 656.33 26.23 654.68 24.59 652.34 C 23.01 647.62 22.51 642.47 19.83 638.18 C 17.15 633.53 15.43 628.35 14.94 623.01 C 14.68 618.73 10.99 615.48 11.10 611.12 C 10.98 602.68 10.88 594.24 11.20 585.81 C 11.16 581.34 10.67 576.85 11.43 572.42 C 13.30 560.59 10.18 548.33 13.57 536.70 C 14.43 531.56 16.17 526.63 16.46 521.39 C 17.13 516.19 20.01 511.73 21.97 506.98 C 23.94 502.00 23.18 496.34 25.44 491.45 C 28.44 484.32 30.14 476.68 33.68 469.77 C 35.35 467.40 38.49 466.39 39.60 463.59 C 41.57 460.69 41.72 457.11 42.98 453.96 C 45.86 448.95 48.28 443.57 52.30 439.34 C 54.33 436.97 56.21 434.47 58.01 431.93 C 60.25 428.95 60.57 424.97 63.15 422.21 C 67.08 416.45 73.42 412.68 76.30 406.16 C 80.48 401.42 85.34 397.24 90.25 393.25 C 95.87 386.91 106.53 384.24 107.63 374.65 C 114.51 374.00 117.64 366.77 123.80 364.51 C 124.16 362.41 124.90 360.33 124.80 358.19 C 124.18 355.24 122.97 352.46 121.87 349.68 C 117.86 353.04 113.15 355.84 110.44 360.48 C 108.64 363.56 103.99 362.12 101.96 364.98 C 97.76 369.62 92.50 373.20 86.88 375.91 C 84.73 376.97 84.13 379.41 83.40 381.48 C 78.89 383.00 74.52 384.98 70.40 387.37 C 66.69 389.50 64.49 393.46 60.72 395.49 C 56.94 395.34 53.16 394.89 49.37 394.89 C 48.30 392.03 45.83 389.51 45.99 386.32 C 47.93 384.17 49.84 381.80 52.40 380.37 C 60.22 379.39 68.79 379.39 75.27 374.26 C 78.91 370.50 80.96 365.42 84.95 361.94 C 87.60 360.26 91.01 359.64 92.98 357.02 C 95.10 354.40 97.65 352.16 99.69 349.48 C 101.06 347.25 99.12 344.51 96.77 344.16 C 93.85 343.80 90.89 343.88 87.96 344.00 C 83.43 344.15 79.17 346.88 74.58 345.55 C 68.82 345.33 63.82 342.44 58.60 340.39 C 54.73 339.68 50.70 340.26 46.90 339.10 C 44.52 338.72 43.20 336.47 41.47 335.04 C 38.17 338.54 33.75 335.41 30.56 333.43 C 27.43 330.62 28.02 326.05 27.93 322.26 C 31.72 322.35 35.20 320.91 38.80 320.09 C 41.76 321.50 44.52 323.33 47.63 324.44 C 51.87 325.88 54.21 331.04 59.06 330.93 C 62.43 330.78 65.24 332.62 68.24 333.81 C 71.44 333.96 74.58 332.68 77.79 333.17 C 81.75 333.66 86.10 334.99 89.80 332.81 C 92.55 331.28 95.84 331.11 98.54 329.53 C 101.76 325.30 103.67 319.89 108.84 317.53 C 108.72 310.61 110.74 303.92 111.07 297.04 C 111.30 291.99 114.49 287.75 115.48 282.90 C 115.58 279.31 115.95 275.69 117.42 272.37 C 119.16 268.29 115.75 263.85 117.86 259.86 C 119.13 256.81 121.81 254.72 123.99 252.35 C 125.74 253.02 127.58 254.52 129.53 253.66 C 132.28 252.71 134.86 251.34 137.34 249.83 C 136.64 247.70 135.83 245.61 135.00 243.53 C 138.24 242.42 141.18 240.64 144.32 239.32 C 148.76 238.33 153.31 239.44 157.78 239.57 C 163.47 237.91 168.56 233.74 174.80 234.27 C 180.17 235.30 185.42 237.42 190.99 236.99 C 193.48 237.24 196.67 236.23 198.53 238.43 C 201.52 241.69 205.83 243.11 209.35 245.64 C 214.50 249.42 220.32 252.57 224.08 257.90 C 226.34 261.58 228.78 265.33 229.32 269.73 C 230.12 274.53 233.59 278.17 235.55 282.48 C 237.73 289.41 235.34 296.48 234.73 303.44 C 232.02 304.71 229.16 306.01 227.20 308.36 C 226.71 312.01 226.43 316.15 228.69 319.32 C 230.33 321.72 232.46 323.74 234.30 325.98 C 230.89 328.52 226.59 330.65 225.19 335.00 C 223.97 338.65 221.84 342.62 223.61 346.47 C 223.92 347.78 225.05 349.07 224.68 350.46 C 223.25 351.47 221.70 352.31 220.20 353.21 C 220.43 358.13 218.59 362.85 215.82 366.83 C 213.26 368.86 209.81 369.70 206.57 369.45 C 202.26 369.22 197.94 369.74 193.74 370.69 C 188.99 371.84 184.42 369.33 179.68 369.49 C 176.10 370.23 174.40 373.82 172.34 376.44 C 170.42 377.62 168.12 377.90 165.97 378.42 C 166.04 381.46 165.69 384.56 166.35 387.55 C 168.70 391.74 172.90 394.46 175.42 398.54 C 177.52 401.43 179.14 405.00 182.38 406.81 C 184.61 407.38 186.88 406.57 189.04 406.07 C 194.57 404.55 199.98 402.13 204.28 398.28 C 206.65 396.01 210.13 395.67 212.71 393.71 C 216.74 390.73 220.82 387.81 224.97 385.01 C 227.41 383.69 230.25 383.20 232.52 381.55 C 235.53 377.19 237.23 372.13 239.38 367.35 C 243.37 361.75 245.35 355.02 249.48 349.50 C 252.00 345.08 254.11 340.39 257.58 336.59 C 259.87 332.58 262.24 328.61 265.17 325.03 C 266.11 325.26 267.06 325.50 268.01 325.74 C 266.37 322.51 266.92 318.87 267.07 315.41 C 270.40 313.54 272.61 310.43 274.39 307.16 C 272.11 304.72 269.71 302.29 268.32 299.21 C 266.86 299.11 265.40 299.03 263.95 298.95 C 264.65 298.30 265.35 297.66 266.05 297.02 C 263.87 296.84 261.69 296.76 259.51 296.76 C 257.31 292.42 254.74 288.14 250.88 285.08 C 247.32 282.20 247.47 277.21 245.56 273.38 C 241.56 266.16 241.05 257.47 236.47 250.53 C 233.30 246.12 236.15 240.36 234.50 235.55 C 233.39 234.07 231.95 232.89 230.66 231.57 C 233.70 230.18 238.44 229.90 238.97 225.79 C 239.91 222.88 237.54 220.96 235.49 219.41 C 235.72 218.03 235.92 216.65 236.13 215.28 C 240.85 213.05 245.86 211.56 250.74 209.75 C 255.23 207.78 258.28 203.76 262.16 200.92 C 261.28 199.89 260.40 198.88 259.52 197.86 C 260.69 195.05 260.87 191.91 262.25 189.20 Z" />
<path fill="#fdfdfd" d=" M 335.27 195.26 C 335.78 195.79 335.78 195.79 335.27 195.26 Z" />
<path fill="#030303" d=" M 651.25 245.26 C 651.79 245.80 651.79 245.80 651.25 245.26 Z" />
<path fill="#fdfdfd" d=" M 996.27 250.26 C 996.77 250.78 996.77 250.78 996.27 250.26 Z" />
<path fill="#fdfdfd" d=" M 567.72 269.77 C 570.40 267.45 574.32 267.70 577.60 268.23 C 584.39 272.52 581.40 281.41 582.00 288.03 C 577.87 288.79 572.22 290.75 569.18 286.79 C 566.82 284.26 567.02 280.58 566.46 277.40 C 565.94 274.82 566.22 271.98 567.72 269.77 Z" />
<path fill="#fdfdfd" d=" M 770.26 342.25 C 770.79 342.79 770.79 342.79 770.26 342.25 Z" />
<path fill="#030303" d=" M 757.26 368.26 C 757.77 368.78 757.77 368.78 757.26 368.26 Z" />
<path fill="#fdfdfd" d=" M 685.14 385.87 C 688.90 385.92 693.60 385.77 695.93 389.33 C 697.12 394.49 692.59 398.27 689.13 401.27 C 687.47 402.92 684.98 401.74 683.33 400.71 C 680.16 395.97 682.70 390.29 685.14 385.87 Z" />
<path fill="#fdfdfd" d=" M 652.74 413.59 C 653.56 410.27 657.65 409.37 660.58 410.15 C 662.39 411.44 664.15 413.05 665.06 415.14 C 664.62 419.91 662.16 424.20 659.77 428.26 C 658.09 427.60 656.36 427.07 654.78 426.21 C 651.56 422.84 651.94 417.81 652.74 413.59 Z" />
<path fill="#fdfdfd" d=" M 697.25 419.30 C 697.78 419.84 697.78 419.84 697.25 419.30 Z" />
<path fill="#fdfdfd" d=" M 205.93 425.93 C 210.85 422.54 216.74 421.20 222.48 419.95 C 219.79 424.30 217.10 428.86 213.43 432.42 C 205.48 435.85 199.13 442.14 190.92 444.97 C 187.01 446.62 183.54 449.80 179.17 450.03 C 174.81 448.32 172.33 443.90 169.20 440.65 C 168.79 437.76 169.01 434.83 169.00 431.93 C 172.07 432.17 175.86 431.13 178.11 433.88 C 180.36 436.38 183.31 437.98 186.68 438.37 C 191.31 431.80 199.63 430.27 205.93 425.93 Z" />
<path fill="#fdfdfd" d=" M 1045.26 451.26 C 1045.78 451.78 1045.78 451.78 1045.26 451.26 Z" />
<path fill="#030303" d=" M 201.27 721.25 C 201.77 721.77 201.77 721.77 201.27 721.25 Z" />
<path fill="#030303" d=" M 164.25 783.25 C 164.79 783.79 164.79 783.79 164.25 783.25 Z" />
</svg>
