<svg xmlns="http://www.w3.org/2000/svg" width="2428" height="2500" viewBox="0 0 141.266 145.432"><g fill="#37a5e2"><path d="M135.422 5.213c-10.249-9.836-31.847-5.277-55.632 9.668a72.686 72.686 0 0 0-7.44-.395c-35.896 0-64.996 26.347-64.996 58.847 0 .31.02.613.026.922 14.645-23.25 34.292-39.353 52.153-44.5a219.716 219.716 0 0 0-17.019 15.972C28.43 60.402 17.364 75.85 10.048 90.105c-11.269 21.957-13.614 41.076-4.196 50.113 10.101 9.695 31.23 5.4 54.611-9.04 3.856.644 7.824 1 11.886 1 2.91 0 5.775-.18 8.584-.516 25.621-3.065 46.529-19.639 53.716-41.562H91.49c-2.662 7.937-10.145 13.663-18.979 13.663-11.06 0-20.028-8.968-20.028-20.03v-2.017h84.192a53.87 53.87 0 0 0 .668-8.384c0-25.715-18.223-47.562-43.609-55.571 17.819-10.003 33.015-12.756 40.339-5.728 4.475 4.295 5.417 11.68 3.363 20.93h2.372c2.832-12.098 1.625-21.98-4.385-27.75zM56.028 130.306c-18.409 10.636-34.193 13.712-41.705 6.504-6.531-6.267-5.541-19.114 1.314-34.737 8.554 13.808 23.066 24.177 40.391 28.233zm-3.521-67.221c.25-10.844 9.101-19.564 20.005-19.564 10.905 0 19.756 8.72 20.005 19.564h-40.01"/><path d="M125.208 127.667c-1.093 1.096-2.411 1.643-3.96 1.643s-2.866-.548-3.954-1.643c-1.08-1.09-1.622-2.41-1.622-3.962 0-1.537.546-2.85 1.637-3.94 1.086-1.087 2.399-1.628 3.938-1.628 1.548 0 2.867.541 3.96 1.628 1.091 1.086 1.637 2.398 1.637 3.94.001 1.546-.545 2.868-1.636 3.962zm-7.368-7.352c-.937.937-1.405 2.07-1.405 3.398 0 1.338.465 2.48 1.398 3.422.936.943 2.074 1.413 3.412 1.413s2.475-.47 3.413-1.413c.936-.944 1.405-2.084 1.405-3.422 0-1.327-.469-2.46-1.405-3.398-.943-.944-2.08-1.414-3.413-1.414-1.33-.001-2.463.47-3.405 1.414zm3.305.303c.764 0 1.324.074 1.68.223.635.264.954.784.954 1.556 0 .549-.2.955-.601 1.215-.213.139-.51.236-.89.299.482.074.835.274 1.059.597.222.323.335.638.335.948v.445c0 .142.003.294.012.457.01.16.026.268.05.317l.035.076h-1.002a.506.506 0 0 1-.015-.063l-.017-.066-.02-.195v-.485c0-.705-.196-1.171-.585-1.396-.23-.131-.635-.199-1.213-.199h-.859v2.404h-1.074v-6.133h2.152zm1.168.99c-.274-.15-.713-.228-1.316-.228h-.928v2.207h.983c.458 0 .805-.045 1.035-.136.426-.166.638-.485.638-.954 0-.441-.137-.739-.412-.89"/></g></svg>