<?xml version="1.0" encoding="utf-8"?>
<!-- Generator: Adobe Illustrator 15.0.0, SVG Export Plug-In . SVG Version: 6.00 Build 0)  -->
<!DOCTYPE svg PUBLIC "-//W3C//DTD SVG 1.1//EN" "http://www.w3.org/Graphics/SVG/1.1/DTD/svg11.dtd">
<svg version="1.1" id="Layer_2_1_" xmlns="http://www.w3.org/2000/svg" xmlns:xlink="http://www.w3.org/1999/xlink" x="0px" y="0px"
	 width="146.98px" height="97.838px" viewBox="0 0 146.98 97.838" enable-background="new 0 0 146.98 97.838" xml:space="preserve">
<g>
	<defs>
		<rect id="SVGID_1_" x="15.572" y="23.601" width="114.021" height="54.691"/>
	</defs>
	<clipPath id="SVGID_2_">
		<use xlink:href="#SVGID_1_"  overflow="visible"/>
	</clipPath>
	<path clip-path="url(#SVGID_2_)" fill="none" stroke="#20221D" stroke-width="1.8" d="M19.712,24.501c0,0-3.24,0-3.24,3.24v46.41
		c0,0,0,3.24,3.24,3.24h105.741c0,0,3.24,0,3.24-3.24v-46.41c0,0,0-3.24-3.24-3.24H19.712z"/>
	<path clip-path="url(#SVGID_2_)" fill="#20221D" d="M43.614,63.057c0,0-0.648,0-0.648,0.647v5.624c0,0,0,0.648,0.648,0.648h57.662
		c0,0,0.648,0,0.648-0.648v-5.624c0,0,0-0.647-0.648-0.647H43.614z"/>
	<path clip-path="url(#SVGID_2_)" fill="#20221D" d="M106.031,63.057c0,0-0.648,0-0.648,0.647v5.624c0,0,0,0.648,0.648,0.648h14.85
		c0,0,0.648,0,0.648-0.648v-5.624c0,0,0-0.647-0.648-0.647H106.031z"/>
	<path clip-path="url(#SVGID_2_)" fill="#20221D" d="M24.146,63.057c0,0-0.648,0-0.648,0.647v5.624c0,0,0,0.648,0.648,0.648h14.85
		c0,0,0.648,0,0.648-0.648v-5.624c0,0,0-0.647-0.648-0.647H24.146z"/>
	<path clip-path="url(#SVGID_2_)" fill="#20221D" d="M54.132,52.677c0,0-0.647,0-0.647,0.647v5.624c0,0,0,0.648,0.647,0.648h5.624
		c0,0,0.648,0,0.648-0.648v-5.624c0,0,0-0.647-0.648-0.647H54.132z"/>
	<path clip-path="url(#SVGID_2_)" fill="#20221D" d="M43.752,52.677c0,0-0.648,0-0.648,0.647v5.624c0,0,0,0.648,0.648,0.648h5.624
		c0,0,0.647,0,0.647-0.648v-5.624c0,0,0-0.647-0.647-0.647H43.752z"/>
	<path clip-path="url(#SVGID_2_)" fill="#20221D" d="M24.146,52.677c0,0-0.648,0-0.648,0.647v5.624c0,0,0,0.648,0.648,0.648h14.85
		c0,0,0.648,0,0.648-0.648v-5.624c0,0,0-0.647-0.648-0.647H24.146z"/>
	<path clip-path="url(#SVGID_2_)" fill="#20221D" d="M64.512,52.677c0,0-0.648,0-0.648,0.647v5.624c0,0,0,0.648,0.648,0.648h5.624
		c0,0,0.647,0,0.647-0.648v-5.624c0,0,0-0.647-0.647-0.647H64.512z"/>
	<path clip-path="url(#SVGID_2_)" fill="#20221D" d="M74.892,52.677c0,0-0.647,0-0.647,0.647v5.624c0,0,0,0.648,0.647,0.648h5.624
		c0,0,0.648,0,0.648-0.648v-5.624c0,0,0-0.647-0.648-0.647H74.892z"/>
	<path clip-path="url(#SVGID_2_)" fill="#20221D" d="M85.271,52.677c0,0-0.648,0-0.648,0.647v5.624c0,0,0,0.648,0.648,0.648h5.624
		c0,0,0.647,0,0.647-0.648v-5.624c0,0,0-0.647-0.647-0.647H85.271z"/>
	<path clip-path="url(#SVGID_2_)" fill="#20221D" d="M95.651,52.677c0,0-0.647,0-0.647,0.647v5.624c0,0,0,0.648,0.647,0.648h5.624
		c0,0,0.648,0,0.648-0.648v-5.624c0,0,0-0.647-0.648-0.647H95.651z"/>
	<path clip-path="url(#SVGID_2_)" fill="#20221D" d="M106.031,52.677c0,0-0.648,0-0.648,0.647v5.624c0,0,0,0.648,0.648,0.648h14.989
		c0,0,0.647,0,0.647-0.648v-5.624c0,0,0-0.647-0.647-0.647H106.031z"/>
	<path clip-path="url(#SVGID_2_)" fill="#20221D" d="M49.519,42.297c0,0-0.648,0-0.648,0.647v5.624c0,0,0,0.648,0.648,0.648h5.624
		c0,0,0.648,0,0.648-0.648v-5.624c0,0,0-0.647-0.648-0.647H49.519z"/>
	<path clip-path="url(#SVGID_2_)" fill="#20221D" d="M39.139,42.297c0,0-0.648,0-0.648,0.647v5.624c0,0,0,0.648,0.648,0.648h5.624
		c0,0,0.648,0,0.648-0.648v-5.624c0,0,0-0.647-0.648-0.647H39.139z"/>
	<path clip-path="url(#SVGID_2_)" fill="#20221D" d="M24.146,42.297c0,0-0.648,0-0.648,0.647v5.624c0,0,0,0.648,0.648,0.648h10.237
		c0,0,0.648,0,0.648-0.648v-5.624c0,0,0-0.647-0.648-0.647H24.146z"/>
	<path clip-path="url(#SVGID_2_)" fill="#20221D" d="M59.898,42.297c0,0-0.648,0-0.648,0.647v5.624c0,0,0,0.648,0.648,0.648h5.624
		c0,0,0.648,0,0.648-0.648v-5.624c0,0,0-0.647-0.648-0.647H59.898z"/>
	<path clip-path="url(#SVGID_2_)" fill="#20221D" d="M70.278,42.297c0,0-0.647,0-0.647,0.647v5.624c0,0,0,0.648,0.647,0.648h5.624
		c0,0,0.648,0,0.648-0.648v-5.624c0,0,0-0.647-0.648-0.647H70.278z"/>
	<path clip-path="url(#SVGID_2_)" fill="#20221D" d="M80.658,42.297c0,0-0.648,0-0.648,0.647v5.624c0,0,0,0.648,0.648,0.648h5.624
		c0,0,0.647,0,0.647-0.648v-5.624c0,0,0-0.647-0.647-0.647H80.658z"/>
	<path clip-path="url(#SVGID_2_)" fill="#20221D" d="M91.038,42.297c0,0-0.647,0-0.647,0.647v5.624c0,0,0,0.648,0.647,0.648h5.624
		c0,0,0.648,0,0.648-0.648v-5.624c0,0,0-0.647-0.648-0.647H91.038z"/>
	<path clip-path="url(#SVGID_2_)" fill="#20221D" d="M101.418,42.297c0,0-0.648,0-0.648,0.647v5.624c0,0,0,0.648,0.648,0.648h5.624
		c0,0,0.647,0,0.647-0.648v-5.624c0,0,0-0.647-0.647-0.647H101.418z"/>
	<path clip-path="url(#SVGID_2_)" fill="#20221D" d="M111.798,42.297c0,0-0.647,0-0.647,0.647v5.624c0,0,0,0.648,0.647,0.648h9.222
		c0,0,0.648,0,0.648-0.648v-5.624c0,0,0-0.647-0.648-0.647H111.798z"/>
	<path clip-path="url(#SVGID_2_)" fill="#20221D" d="M74.635,31.916c0,0-0.647,0-0.647,0.648v5.624c0,0,0,0.648,0.647,0.648h5.625
		c0,0,0.647,0,0.647-0.648v-5.624c0,0,0-0.648-0.647-0.648H74.635z"/>
	<path clip-path="url(#SVGID_2_)" fill="#20221D" d="M64.537,31.916c0,0-0.647,0-0.647,0.648v5.624c0,0,0,0.648,0.647,0.648h5.625
		c0,0,0.647,0,0.647-0.648v-5.624c0,0,0-0.648-0.647-0.648H64.537z"/>
	<path clip-path="url(#SVGID_2_)" fill="#20221D" d="M54.439,31.916c0,0-0.648,0-0.648,0.648v5.624c0,0,0,0.648,0.648,0.648h5.624
		c0,0,0.647,0,0.647-0.648v-5.624c0,0,0-0.648-0.647-0.648H54.439z"/>
	<path clip-path="url(#SVGID_2_)" fill="#20221D" d="M44.342,31.916c0,0-0.648,0-0.648,0.648v5.624c0,0,0,0.648,0.648,0.648h5.624
		c0,0,0.647,0,0.647-0.648v-5.624c0,0,0-0.648-0.647-0.648H44.342z"/>
	<path clip-path="url(#SVGID_2_)" fill="#20221D" d="M34.244,31.916c0,0-0.648,0-0.648,0.648v5.624c0,0,0,0.648,0.648,0.648h5.624
		c0,0,0.648,0,0.648-0.648v-5.624c0,0,0-0.648-0.648-0.648H34.244z"/>
	<path clip-path="url(#SVGID_2_)" fill="#20221D" d="M24.146,31.916c0,0-0.648,0-0.648,0.648v5.624c0,0,0,0.648,0.648,0.648h5.624
		c0,0,0.648,0,0.648-0.648v-5.624c0,0,0-0.648-0.648-0.648H24.146z"/>
	<path clip-path="url(#SVGID_2_)" fill="#20221D" d="M84.733,31.916c0,0-0.647,0-0.647,0.648v5.624c0,0,0,0.648,0.647,0.648h5.624
		c0,0,0.648,0,0.648-0.648v-5.624c0,0,0-0.648-0.648-0.648H84.733z"/>
	<path clip-path="url(#SVGID_2_)" fill="#20221D" d="M94.832,31.916c0,0-0.648,0-0.648,0.648v5.624c0,0,0,0.648,0.648,0.648h5.623
		c0,0,0.648,0,0.648-0.648v-5.624c0,0,0-0.648-0.648-0.648H94.832z"/>
	<path clip-path="url(#SVGID_2_)" fill="#20221D" d="M104.93,31.916c0,0-0.648,0-0.648,0.648v5.624c0,0,0,0.648,0.648,0.648h5.623
		c0,0,0.648,0,0.648-0.648v-5.624c0,0,0-0.648-0.648-0.648H104.93z"/>
	<path clip-path="url(#SVGID_2_)" fill="#20221D" d="M115.027,31.916c0,0-0.648,0-0.648,0.648v5.624c0,0,0,0.648,0.648,0.648h5.624
		c0,0,0.647,0,0.647-0.648v-5.624c0,0,0-0.648-0.647-0.648H115.027z"/>
</g>
</svg>
