<?xml version="1.0" encoding="UTF-8" standalone="no"?>
<svg
   xmlns:dc="http://purl.org/dc/elements/1.1/"
   xmlns:cc="http://creativecommons.org/ns#"
   xmlns:rdf="http://www.w3.org/1999/02/22-rdf-syntax-ns#"
   xmlns:svg="http://www.w3.org/2000/svg"
   xmlns="http://www.w3.org/2000/svg"
   xmlns:sodipodi="http://sodipodi.sourceforge.net/DTD/sodipodi-0.dtd"
   xmlns:inkscape="http://www.inkscape.org/namespaces/inkscape"
   width="110.03257"
   height="107.5"
   viewBox="0 0 88.026056 86"
   version="1.1"
   id="svg2"
   inkscape:version="0.91 r13725"
   sodipodi:docname="Microsoft_Outlook_2013_logo.svg">
  <metadata
     id="metadata126">
    <rdf:RDF>
      <cc:Work
         rdf:about="">
        <dc:format>image/svg+xml</dc:format>
        <dc:type
           rdf:resource="http://purl.org/dc/dcmitype/StillImage" />
        <dc:title></dc:title>
      </cc:Work>
    </rdf:RDF>
  </metadata>
  <defs
     id="defs124" />
  <sodipodi:namedview
     pagecolor="#ffffff"
     bordercolor="#666666"
     borderopacity="1"
     objecttolerance="10"
     gridtolerance="10"
     guidetolerance="10"
     inkscape:pageopacity="0"
     inkscape:pageshadow="2"
     inkscape:window-width="2495"
     inkscape:window-height="1416"
     id="namedview122"
     showgrid="false"
     inkscape:zoom="3.0846778"
     inkscape:cx="194.54094"
     inkscape:cy="-5.059628"
     inkscape:window-x="2625"
     inkscape:window-y="24"
     inkscape:window-maximized="1"
     inkscape:current-layer="svg2"
     fit-margin-top="0"
     fit-margin-left="0"
     fit-margin-right="0"
     fit-margin-bottom="0" />
  <path
     d="m 45.524256,6.716341 5.054322,0 c 0,5.646232 0,11.284 0,16.930233 8.756316,0.01693 17.504181,-0.0254 26.252046,0 1.724216,-0.08465 4.082336,0.41479 4.048528,2.590326 0.321178,10.708371 0.0085,21.442139 0.152137,32.158976 0.03381,1.896186 -0.02536,4.884371 -2.60323,4.909767 -9.271891,0.321674 -18.569138,0.0254 -27.849481,0.126976 0,5.358419 0,10.725303 0,16.083722 l -5.240267,0 C 32.457398,77.171504 19.542676,75.012899 6.6448584,72.744248 6.6364063,52.995131 6.6364063,33.246015 6.6364063,13.505364 19.601841,11.228248 32.567274,9.0273177 45.524256,6.716341 Z"
     id="path18"
     inkscape:connector-curvature="0"
     style="fill:#0071c5" />
  <path
     d="m 50.578578,26.186108 c 9.364864,0.0085 18.721275,-0.0254 28.086139,0.01694 -0.160589,1.108929 -0.498671,2.20093 -1.428396,2.89507 -5.595252,5.222976 -11.156696,10.471348 -16.735045,15.711255 -3.35546,-3.038976 -6.61795,-6.179534 -9.922698,-9.269302 0,-3.123628 0,-6.238791 0,-9.353954 z"
     id="path64"
     inkscape:connector-curvature="0"
     style="fill:#ffffff" />
  <path
     d="m 24.757587,29.284341 c 4.766952,-1.80307 10.336848,0.728 12.356886,5.341488 2.755367,6.348837 2.366573,15.034047 -3.110352,19.833768 -5.045869,4.325674 -13.506364,1.862325 -15.80532,-4.283349 -3.025832,-7.085303 -1.555176,-17.988372 6.558786,-20.891907 z"
     id="path76"
     inkscape:connector-curvature="0"
     style="fill:#ffffff" />
  <path
     d="m 63.155218,45.56276 c 5.079678,-4.833582 10.201616,-9.633303 15.30665,-14.441489 0.02536,9.921117 0,19.850698 0.0085,29.771814 -9.297246,0 -18.594494,0 -27.891741,0 0,-7.381581 -0.0085,-14.763163 0.0085,-22.136279 3.152612,2.793488 5.975594,5.976372 9.322603,8.524372 1.377683,0.253954 2.307408,-0.939627 3.245585,-1.718418 z"
     id="path92"
     inkscape:connector-curvature="0"
     style="fill:#ffffff" />
  <path
     d="m 25.577434,34.371876 c 2.248244,-1.07507 5.062775,0.01693 6.11928,2.243256 1.690409,3.352186 1.681956,7.440837 0.574739,10.979255 -0.78604,2.51414 -3.532954,4.588093 -6.195347,3.597674 -3.321653,-1.049674 -4.327447,-4.994418 -4.361255,-8.084185 -0.04226,-3.199814 0.693068,-7.186884 3.862583,-8.736 z"
     id="path96"
     inkscape:connector-curvature="0"
     style="fill:#0071c5" />
</svg>
