<?xml version="1.0" encoding="UTF-8" standalone="no"?>
<svg
   xmlns:dc="http://purl.org/dc/elements/1.1/"
   xmlns:cc="http://creativecommons.org/ns#"
   xmlns:rdf="http://www.w3.org/1999/02/22-rdf-syntax-ns#"
   xmlns:svg="http://www.w3.org/2000/svg"
   xmlns="http://www.w3.org/2000/svg"
   xmlns:sodipodi="http://sodipodi.sourceforge.net/DTD/sodipodi-0.dtd"
   xmlns:inkscape="http://www.inkscape.org/namespaces/inkscape"
   width="110.03758"
   height="107.5"
   viewBox="0 0 88.030066 86"
   version="1.1"
   id="svg2"
   inkscape:version="0.91 r13725"
   sodipodi:docname="Microsoft_Excel_2013_logo.svg">
  <metadata
     id="metadata126">
    <rdf:RDF>
      <cc:Work
         rdf:about="">
        <dc:format>image/svg+xml</dc:format>
        <dc:type
           rdf:resource="http://purl.org/dc/dcmitype/StillImage" />
        <dc:title />
      </cc:Work>
    </rdf:RDF>
  </metadata>
  <defs
     id="defs124" />
  <sodipodi:namedview
     pagecolor="#ffffff"
     bordercolor="#666666"
     borderopacity="1"
     objecttolerance="10"
     gridtolerance="10"
     guidetolerance="10"
     inkscape:pageopacity="0"
     inkscape:pageshadow="2"
     inkscape:window-width="2495"
     inkscape:window-height="1416"
     id="namedview122"
     showgrid="false"
     inkscape:zoom="6.1693556"
     inkscape:cx="70.698914"
     inkscape:cy="91.060643"
     inkscape:window-x="2625"
     inkscape:window-y="24"
     inkscape:window-maximized="1"
     inkscape:current-layer="svg2"
     fit-margin-top="0"
     fit-margin-left="0"
     fit-margin-right="0"
     fit-margin-bottom="0" />
  <path
     d="m 45.604351,6.661425 5.020285,0 c 0,2.2601861 0,4.511907 0,6.772093 8.46011,0 16.92022,0.01693 25.380328,-0.0254 1.428331,0.05925 3.000339,-0.04233 4.242733,0.812651 0.87052,1.252838 0.7691,2.844279 0.828263,4.283349 -0.04226,14.695443 -0.02536,29.38242 -0.0169,44.069398 -0.04226,2.463348 0.228195,4.977487 -0.287356,7.406976 -0.338065,1.760744 -2.45098,1.80307 -3.862406,1.862327 -8.75592,0.0254 -17.520287,-0.01693 -26.284657,0 0,2.539533 0,5.079069 0,7.618604 l -5.24848,0 C 32.49583,77.116591 19.590148,74.949521 6.6929184,72.689335 c 0,-19.749117 0,-39.498235 0,-59.247352 C 19.666213,11.181797 32.639507,8.9554717 45.604351,6.661425 Z"
     id="path10"
     inkscape:connector-curvature="0"
     style="fill:#207245" />
  <path
     d="m 50.624636,15.973053 c 9.296824,0 18.593648,0 27.89047,0 0,17.776744 0,35.55349 0,53.330235 -9.296822,0 -18.593646,0 -27.89047,0 0,-1.693024 0,-3.386047 0,-5.079071 2.256593,0 4.504734,0 6.761326,0 0,-1.972372 0,-3.953208 0,-5.925581 -2.256592,0 -4.504733,0 -6.761326,0 0,-1.12586 0,-2.260186 0,-3.386047 2.256593,0 4.504734,0 6.761326,0 0,-1.972371 0,-3.95321 0,-5.925581 -2.256592,0 -4.504733,0 -6.761326,0 0,-1.12586 0,-2.260186 0,-3.386046 2.256593,0 4.504734,0 6.761326,0 0,-1.972373 0,-3.95321 0,-5.925583 -2.256592,0 -4.504733,0 -6.761326,0 0,-1.12586 0,-2.260185 0,-3.386046 2.256593,0 4.504734,0 6.761326,0 0,-1.972372 0,-3.953209 0,-5.925581 -2.256592,0 -4.504733,0 -6.761326,0 0,-1.125861 0,-2.260187 0,-3.386047 2.256593,0 4.504734,0 6.761326,0 0,-1.972372 0,-3.95321 0,-5.925582 -2.256592,0 -4.504733,0 -6.761326,0 0,-1.693023 0,-3.386047 0,-5.07907 z"
     id="path48"
     inkscape:connector-curvature="0"
     style="fill:#ffffff" />
  <path
     d="m 60.766626,21.052123 c 3.946923,0 7.885396,0 11.83232,0 0,1.972372 0,3.95321 0,5.925582 -3.946924,0 -7.885397,0 -11.83232,0 0,-1.972372 0,-3.95321 0,-5.925582 z"
     id="path58"
     inkscape:connector-curvature="0"
     style="fill:#207245" />
  <path
     d="m 31.726729,28.983938 c 1.910074,-0.135443 3.828601,-0.253955 5.747127,-0.347071 -2.256593,4.630419 -4.521636,9.260838 -6.820488,13.874327 2.324206,4.740465 4.699122,9.44707 7.031779,14.187536 -2.03685,-0.118512 -4.065247,-0.245489 -6.102097,-0.389396 -1.436781,-3.529954 -3.186274,-6.941395 -4.217377,-10.632187 -1.149425,3.436837 -2.789046,6.678977 -4.107505,10.048094 -1.850913,-0.0254 -3.701827,-0.101582 -5.552739,-0.177768 2.172076,-4.257953 4.268086,-8.549768 6.507777,-12.782327 -1.901624,-4.359534 -3.989183,-8.634418 -5.949968,-12.968558 1.859365,-0.110046 3.718729,-0.220092 5.578095,-0.321674 1.259296,3.309861 2.636917,6.577396 3.67647,9.971907 1.115619,-3.597674 2.780596,-6.983721 4.208926,-10.462883 z"
     id="path72"
     inkscape:connector-curvature="0"
     style="fill:#ffffff" />
  <path
     d="m 60.766626,30.363752 c 3.946923,0 7.885396,0 11.83232,0 0,1.972372 0,3.953209 0,5.925581 -3.946924,0 -7.885397,0 -11.83232,0 0,-1.972372 0,-3.953209 0,-5.925581 z"
     id="path90"
     inkscape:connector-curvature="0"
     style="fill:#207245" />
  <path
     d="m 60.766626,39.675379 c 3.946923,0 7.885396,0 11.83232,0 0,1.972373 0,3.95321 0,5.925583 -3.946924,0 -7.885397,0 -11.83232,0 0,-1.972373 0,-3.95321 0,-5.925583 z"
     id="path108"
     inkscape:connector-curvature="0"
     style="fill:#207245" />
  <path
     d="m 60.766626,48.987008 c 3.946923,0 7.885396,0 11.83232,0 0,1.972371 0,3.95321 0,5.925581 -3.946924,0 -7.885397,0 -11.83232,0 0,-1.972371 0,-3.95321 0,-5.925581 z"
     id="path114"
     inkscape:connector-curvature="0"
     style="fill:#207245" />
  <path
     d="m 60.766626,58.298636 c 3.946923,0 7.885396,0 11.83232,0 0,1.972373 0,3.953209 0,5.925581 -3.946924,0 -7.885397,0 -11.83232,0 0,-1.972372 0,-3.953208 0,-5.925581 z"
     id="path120"
     inkscape:connector-curvature="0"
     style="fill:#207245" />
</svg>
