<?xml version="1.0" encoding="UTF-8" standalone="no"?>
<svg
   xmlns:dc="http://purl.org/dc/elements/1.1/"
   xmlns:cc="http://creativecommons.org/ns#"
   xmlns:rdf="http://www.w3.org/1999/02/22-rdf-syntax-ns#"
   xmlns:svg="http://www.w3.org/2000/svg"
   xmlns="http://www.w3.org/2000/svg"
   xmlns:sodipodi="http://sodipodi.sourceforge.net/DTD/sodipodi-0.dtd"
   xmlns:inkscape="http://www.inkscape.org/namespaces/inkscape"
   width="109.9875"
   height="107.5"
   viewBox="0 0 87.990002 86"
   version="1.1"
   id="svg2"
   inkscape:version="0.91 r13725"
   sodipodi:docname="Microsoft_Access_2013_logo.svg">
  <metadata
     id="metadata126">
    <rdf:RDF>
      <cc:Work
         rdf:about="">
        <dc:format>image/svg+xml</dc:format>
        <dc:type
           rdf:resource="http://purl.org/dc/dcmitype/StillImage" />
        <dc:title />
      </cc:Work>
    </rdf:RDF>
  </metadata>
  <defs
     id="defs124" />
  <sodipodi:namedview
     pagecolor="#ffffff"
     bordercolor="#666666"
     borderopacity="1"
     objecttolerance="10"
     gridtolerance="10"
     guidetolerance="10"
     inkscape:pageopacity="0"
     inkscape:pageshadow="2"
     inkscape:window-width="2495"
     inkscape:window-height="1416"
     id="namedview122"
     showgrid="false"
     inkscape:zoom="6.1693556"
     inkscape:cx="124.02242"
     inkscape:cy="62.89319"
     inkscape:window-x="2625"
     inkscape:window-y="24"
     inkscape:window-maximized="1"
     inkscape:current-layer="svg2"
     fit-margin-top="0"
     fit-margin-left="0"
     fit-margin-right="0"
     fit-margin-bottom="0" />
  <path
     d="m 45.661694,6.586667 5.056394,0 c 0,2.4633489 0,4.918233 0,7.381581 8.168019,-1.041209 16.70808,-0.965022 24.546336,1.811536 2.950971,1.007348 6.164065,3.30986 5.876577,6.831348 0.03382,13.010884 0.03382,26.030233 0,39.049581 0.295943,3.563815 -3.001705,5.849397 -5.9865,6.848281 -7.84671,2.607255 -16.29376,2.920463 -24.436413,1.760744 0,3.038977 0,6.077953 0,9.116929 l -5.267782,0 C 32.572569,77.033365 19.66101,74.883225 6.7663619,72.614574 c 0,-19.749116 0,-39.498233 0,-59.238884 C 19.728654,11.107039 32.707857,8.8976438 45.661694,6.586667 Z"
     id="path22"
     inkscape:connector-curvature="0"
     style="fill:#a33639" />
  <path
     d="m 50.718088,16.541644 c 7.550767,-1.04121 15.414388,-1.007349 22.753768,1.235908 2.020867,0.753395 4.726629,1.659161 5.183226,4.07172 -0.33822,1.972371 -2.392908,2.861209 -4.016366,3.572279 -7.669144,2.590325 -15.963997,2.835814 -23.920628,1.633767 0,-3.504558 0,-7.009115 0,-10.513674 z"
     id="path50"
     inkscape:connector-curvature="0"
     style="fill:#ffffff" />
  <path
     d="m 68.034966,29.713364 c 3.720422,-0.550231 7.6015,-1.354418 10.611661,-3.775441 -0.186022,3.64 0.287487,7.322326 -0.253666,10.928465 -1.513536,1.80307 -3.9149,2.446419 -6.07951,3.064372 -7.060348,1.667628 -14.425094,1.709954 -21.595363,0.787256 0,-3.65693 0,-7.31386 0,-10.97079 5.741288,0.728 11.575588,0.719533 17.316878,-0.03386 z"
     id="path66"
     inkscape:connector-curvature="0"
     style="fill:#ffffff" />
  <path
     d="m 24.024052,28.841458 c 1.970133,-0.143907 3.93181,-0.279349 5.910399,-0.431721 2.832595,9.48093 5.521446,19.012651 8.320219,28.502047 -1.953222,-0.126978 -3.906445,-0.270884 -5.842755,-0.448652 -0.515787,-2.116279 -1.065394,-4.232558 -1.623457,-6.340372 -2.595841,-0.0085 -5.191683,-0.09311 -7.779067,-0.220093 -0.498875,2.006233 -1.006205,4.004 -1.521992,6.001768 -1.657278,-0.126978 -3.306103,-0.245489 -4.954927,-0.355535 2.469009,-8.913767 5.039482,-17.793674 7.49158,-26.707442 z"
     id="path78"
     inkscape:connector-curvature="0"
     style="fill:#ffffff" />
  <path
     d="m 24.066329,45.331504 c 0.854006,-3.961674 2.122332,-7.830233 2.688851,-11.851163 0.760996,4.012466 1.936311,7.923349 2.900239,11.885024 -1.868667,-0.0085 -3.728879,-0.01693 -5.58909,-0.03386 z"
     id="path98"
     inkscape:connector-curvature="0"
     style="fill:#a33639" />
  <path
     d="m 68.085699,43.249085 c 3.711967,-0.550231 7.567677,-1.354418 10.560928,-3.766976 -0.169111,3.631536 0.26212,7.29693 -0.236755,10.90307 -1.479714,1.811535 -3.881077,2.454883 -6.037231,3.072837 -7.07726,1.684559 -14.467373,1.726883 -21.654553,0.812651 0,-3.665395 0,-7.322326 0,-10.979255 5.758199,0.736465 11.60941,0.719534 17.367611,-0.04233 z"
     id="path110"
     inkscape:connector-curvature="0"
     style="fill:#ffffff" />
  <path
     d="m 68.051877,56.793272 c 3.720423,-0.541768 7.584589,-1.354419 10.59475,-3.766976 -0.177566,3.631534 0.279031,7.31386 -0.253666,10.919999 -2.392908,2.607256 -6.18943,3.089768 -9.478622,3.758512 -6.028778,0.922698 -12.192842,0.939627 -18.230073,0.06771 0.05919,-3.648465 0.03382,-7.288465 0.03382,-10.93693 5.749744,0.736465 11.584044,0.719534 17.333789,-0.04233 z"
     id="path118"
     inkscape:connector-curvature="0"
     style="fill:#ffffff" />
</svg>
