<?xml version="1.0" encoding="UTF-8" standalone="no"?>
<svg
   xmlns:dc="http://purl.org/dc/elements/1.1/"
   xmlns:cc="http://creativecommons.org/ns#"
   xmlns:rdf="http://www.w3.org/1999/02/22-rdf-syntax-ns#"
   xmlns:svg="http://www.w3.org/2000/svg"
   xmlns="http://www.w3.org/2000/svg"
   xmlns:sodipodi="http://sodipodi.sourceforge.net/DTD/sodipodi-0.dtd"
   xmlns:inkscape="http://www.inkscape.org/namespaces/inkscape"
   width="110.06419"
   height="107.5"
   viewBox="0 0 88.051355 86"
   version="1.1"
   id="svg2"
   inkscape:version="0.91 r13725"
   sodipodi:docname="Microsoft_OneNote_2013_logo.svg">
  <metadata
     id="metadata126">
    <rdf:RDF>
      <cc:Work
         rdf:about="">
        <dc:format>image/svg+xml</dc:format>
        <dc:type
           rdf:resource="http://purl.org/dc/dcmitype/StillImage" />
        <dc:title />
      </cc:Work>
    </rdf:RDF>
  </metadata>
  <defs
     id="defs124" />
  <sodipodi:namedview
     pagecolor="#ffffff"
     bordercolor="#666666"
     borderopacity="1"
     objecttolerance="10"
     gridtolerance="10"
     guidetolerance="10"
     inkscape:pageopacity="0"
     inkscape:pageshadow="2"
     inkscape:window-width="2495"
     inkscape:window-height="1416"
     id="namedview122"
     showgrid="false"
     inkscape:zoom="6.1693556"
     inkscape:cx="85.679262"
     inkscape:cy="85.800006"
     inkscape:window-x="2625"
     inkscape:window-y="24"
     inkscape:window-maximized="1"
     inkscape:current-layer="svg2"
     fit-margin-top="0"
     fit-margin-left="0"
     fit-margin-right="0"
     fit-margin-bottom="0" />
  <path
     d="m 45.585325,6.622912 5.052875,0 c 0,2.2601863 0,4.520373 0.0084,6.780559 7.908846,0.304744 15.910638,-0.643349 23.760337,0.541768 0.278838,0.897302 0.574575,1.786139 0.870311,2.674976 1.99411,0.355535 5.204967,0.110046 5.517604,2.818884 0.642171,4.952094 0.194341,9.963444 -0.126745,14.924002 0.45628,5.273767 0.768916,10.632187 -0.152094,15.872094 0.768917,4.850513 0.777366,9.828001 0.261939,14.695445 -0.363333,2.63265 -3.481244,2.446418 -5.450006,2.818882 -0.287287,1.379814 -0.261939,2.89507 -1.005505,4.122513 -1.520933,0.956558 -3.405199,0.728 -5.103572,0.804186 -6.193573,-0.05926 -12.387146,-0.03387 -18.572269,-0.03387 -0.0084,2.260186 -0.0084,4.520372 -0.0084,6.780559 l -5.289464,0 C 32.496861,77.061152 19.611188,74.902547 6.7424128,72.650825 6.7339631,52.901708 6.7339631,33.161054 6.7339631,13.411936 19.687233,11.151749 32.640505,8.9338889 45.585325,6.622912 Z"
     id="path26"
     inkscape:connector-curvature="0"
     style="fill:#733781" />
  <path
     d="m 50.6382,15.926076 c 7.325822,0 14.651645,-0.0084 21.977466,0 -0.0084,1.12586 -0.0084,2.243255 0,3.369117 1.943414,0.0084 3.886827,0.04232 5.83869,0.126977 0.109845,4.45265 0.152093,8.905302 -0.03381,13.357954 -1.934964,0.06772 -3.878378,0.101582 -5.804891,0.110046 0,12.409862 0.0084,24.819725 0,37.229586 -7.325822,0.0084 -14.651645,0 -21.977467,0 0,-2.260186 0,-4.528838 0,-6.789024 5.34861,-0.0084 10.697222,0 16.054282,0 -0.0084,-1.12586 -0.0084,-2.243256 0,-3.369116 -5.35706,0 -10.705672,0.0084 -16.054282,0 0,-1.413676 0,-2.835815 0,-4.24949 5.34861,-0.0084 10.697222,0 16.054282,0 -0.0084,-1.12586 -0.0084,-2.243256 0,-3.369116 -5.35706,0 -10.705672,0.0084 -16.054282,0 0,-1.413675 0,-2.835814 0,-4.249488 5.34861,-0.0084 10.697222,0 16.054282,0 -0.0084,-1.125862 -0.0084,-2.243257 0,-3.369117 -5.35706,0 -10.705672,0.0084 -16.054282,0 0,-1.413675 0,-2.835815 0,-4.249489 5.34861,-0.0084 10.697222,0 16.045832,0 0,-1.125861 0,-2.243257 0.0084,-3.369117 -5.35706,0 -10.705671,0.0084 -16.054282,0 0,-1.413675 0,-2.835815 0,-4.249489 5.348611,-0.0084 10.697222,0 16.054282,0 -0.0084,-1.12586 -0.0084,-2.243256 0,-3.369117 -5.35706,0 -10.705671,0.0084 -16.054282,0 0,-1.413674 0,-2.835814 0,-4.249489 5.348611,-0.0084 10.697222,0 16.054282,0 -0.0084,-1.12586 -0.0084,-2.243255 0,-3.369116 -5.35706,0 -10.705671,0.0084 -16.054282,0 0,-1.980837 0,-3.961675 0,-5.942512 z"
     id="path52"
     inkscape:connector-curvature="0"
     style="fill:#ffffff" />
  <path
     d="m 32.843295,28.826914 c 1.681475,-0.09311 3.371399,-0.186233 5.069774,-0.262419 0,9.34549 0,18.699444 0,28.044933 -1.825118,-0.07619 -3.633337,-0.177767 -5.441557,-0.279348 -3.36295,-6.475815 -7.004736,-12.807723 -10.257841,-19.342794 0.185892,6.264188 0.07605,12.53684 0.09294,18.801026 -1.537832,-0.101581 -3.058764,-0.194697 -4.588145,-0.287814 0.02535,-8.600558 0.0169,-17.209583 0,-25.810142 1.740623,-0.09311 3.472795,-0.186232 5.221866,-0.279349 3.303803,6.061024 6.658303,12.096653 9.869159,18.216933 0.06759,-6.264187 0,-12.536839 0.0338,-18.801026 z"
     id="path80"
     inkscape:connector-curvature="0"
     style="fill:#ffffff" />
  <path
     d="m 75.133655,35.361985 c 1.098451,0.04232 2.1969,0.09311 3.303801,0.143907 0.143644,4.452651 0.168993,8.896838 -0.02535,13.341024 -1.098452,0.05079 -2.188453,0.101581 -3.278453,0.143908 -0.0084,-4.545769 -0.0084,-9.091537 0,-13.628839 z"
     id="path102"
     inkscape:connector-curvature="0"
     style="fill:#ffffff" />
  <path
     d="m 75.133655,51.437242 c 1.098451,0.05079 2.205351,0.110047 3.320701,0.169303 0.126744,4.427256 0.118295,8.854512 0,13.281768 -1.11535,0.06772 -2.22225,0.135442 -3.320701,0.203163 -0.0084,-4.554233 -0.0084,-9.100001 0,-13.654234 z"
     id="path116"
     inkscape:connector-curvature="0"
     style="fill:#ffffff" />
</svg>
