<?xml version="1.0" encoding="UTF-8" standalone="no"?>
<svg
   xmlns:dc="http://purl.org/dc/elements/1.1/"
   xmlns:cc="http://creativecommons.org/ns#"
   xmlns:rdf="http://www.w3.org/1999/02/22-rdf-syntax-ns#"
   xmlns:svg="http://www.w3.org/2000/svg"
   xmlns="http://www.w3.org/2000/svg"
   xmlns:sodipodi="http://sodipodi.sourceforge.net/DTD/sodipodi-0.dtd"
   xmlns:inkscape="http://www.inkscape.org/namespaces/inkscape"
   width="110.03056"
   height="107.5"
   viewBox="0 0 88.024445 86"
   version="1.1"
   id="svg2"
   inkscape:version="0.48.3.1 r9886"
   sodipodi:docname="excle.svg">
  <metadata
     id="metadata126">
    <rdf:RDF>
      <cc:Work
         rdf:about="">
        <dc:format>image/svg+xml</dc:format>
        <dc:type
           rdf:resource="http://purl.org/dc/dcmitype/StillImage" />
        <dc:title></dc:title>
      </cc:Work>
    </rdf:RDF>
  </metadata>
  <defs
     id="defs124" />
  <sodipodi:namedview
     pagecolor="#ffffff"
     bordercolor="#666666"
     borderopacity="1"
     objecttolerance="10"
     gridtolerance="10"
     guidetolerance="10"
     inkscape:pageopacity="0"
     inkscape:pageshadow="2"
     inkscape:window-width="1280"
     inkscape:window-height="960"
     id="namedview122"
     showgrid="false"
     inkscape:zoom="1.0905983"
     inkscape:cx="70.49345"
     inkscape:cy="53.75"
     inkscape:window-x="0"
     inkscape:window-y="0"
     inkscape:window-maximized="1"
     inkscape:current-layer="svg2"
     fit-margin-top="0"
     fit-margin-left="0"
     fit-margin-right="0"
     fit-margin-bottom="0" />
  <g
     id="g3607"
     transform="translate(-223.01556,0)">
    <path
       id="path14"
       d="M 269.33,0 275,0 c 0,3 0,6 0,9 10.69,0.06 21.39,-0.11 32.07,0.05 2.3,-0.22 4.1,1.57 3.87,3.87 0.17,18.68 -0.04,37.37 0.1,56.06 -0.1,2.02 0.2,4.26 -0.96,6.05 -1.46,1.06 -3.36,0.92 -5.07,1 -10,-0.05 -20,-0.03 -30.01,-0.03 0,3.33 0,6.67 0,10 l -6.22,0 c -15.24,-2.78 -30.51,-5.32 -45.76,-8 -0.01,-23.33 0,-46.66 0,-69.98 C 238.45,5.35 253.88,2.63 269.33,0 z"
       inkscape:connector-curvature="0"
       style="fill:#d24625" />
    <path
       id="path54"
       d="m 275,12 c 11,0 22,0 33,0 0,20.33 0,40.67 0,61 -11,0 -22,0 -33,0 0,-2.67 0,-5.33 0,-8 8,0 16,0 24,0 0,-1.33 0,-2.67 0,-4 -8,0 -16,0 -24,0 0,-1.67 0,-3.33 0,-5 8,0 16,0 24,0 0,-1.33 0,-2.67 0,-4 -8,0 -16,0 -23.99,0 -0.01,-1.96 -0.01,-3.92 -0.02,-5.88 3.96,1.23 8.47,1.2 12.01,-1.18 3.83,-2.27 5.83,-6.6 6.16,-10.92 C 288.77,33.99 284.38,34 280,34 c -0.01,-4.35 0.05,-8.7 -0.09,-13.04 -1.64,0.32 -3.28,0.66 -4.91,1.01 0,-3.32 0,-6.65 0,-9.97 z"
       inkscape:connector-curvature="0"
       style="fill:#ffffff" />
    <path
       id="path60"
       d="m 282.01,18.87 c 6.95,0.32 12.79,6.17 13.16,13.1 -4.39,0.05 -8.78,0.03 -13.17,0.03 0,-4.38 -0.01,-8.76 0.01,-13.13 z"
       inkscape:connector-curvature="0"
       style="fill:#d24625" />
    <path
       id="path74"
       d="m 239.06,26.42 c 5.43,0.26 12.01,-2.15 16.51,1.92 4.31,5.23 3.17,14.85 -3.22,17.98 -2.27,1.16 -4.87,1 -7.34,0.92 -0.01,3.91 -0.02,7.82 -0.01,11.73 -1.98,-0.17 -3.97,-0.34 -5.95,-0.5 -0.09,-10.68 -0.11,-21.37 0.01,-32.05 z"
       inkscape:connector-curvature="0"
       style="fill:#ffffff" />
    <path
       id="path94"
       d="m 245,31.83 c 1.97,-0.09 4.41,-0.45 5.74,1.4 1.14,1.96 1.08,4.54 0.13,6.56 -1.14,2.06 -3.72,1.86 -5.71,2.1 -0.21,-3.35 -0.19,-6.7 -0.16,-10.06 z"
       inkscape:connector-curvature="0"
       style="fill:#d24625" />
  </g>
</svg>
