<?xml version="1.0" encoding="UTF-8" standalone="no"?>
<!-- Created with Inkscape (http://www.inkscape.org/) -->

<svg
   xmlns:dc="http://purl.org/dc/elements/1.1/"
   xmlns:cc="http://creativecommons.org/ns#"
   xmlns:rdf="http://www.w3.org/1999/02/22-rdf-syntax-ns#"
   xmlns:svg="http://www.w3.org/2000/svg"
   xmlns="http://www.w3.org/2000/svg"
   xmlns:sodipodi="http://sodipodi.sourceforge.net/DTD/sodipodi-0.dtd"
   xmlns:inkscape="http://www.inkscape.org/namespaces/inkscape"
   id="svg2985"
   version="1.1"
   inkscape:version="0.48.4 r9939"
   width="1057.67"
   height="1036.8101"
   sodipodi:docname="Office PowerPoint 2000.svg">
  <metadata
     id="metadata2991">
    <rdf:RDF>
      <cc:Work
         rdf:about="">
        <dc:format>image/svg+xml</dc:format>
        <dc:type
           rdf:resource="http://purl.org/dc/dcmitype/StillImage" />
        <dc:title></dc:title>
      </cc:Work>
    </rdf:RDF>
  </metadata>
  <defs
     id="defs2989" />
  <sodipodi:namedview
     pagecolor="#ffffff"
     bordercolor="#666666"
     borderopacity="1"
     objecttolerance="10"
     gridtolerance="10"
     guidetolerance="10"
     inkscape:pageopacity="0"
     inkscape:pageshadow="2"
     inkscape:window-width="1280"
     inkscape:window-height="750"
     id="namedview2987"
     showgrid="false"
     inkscape:zoom="256"
     inkscape:cx="1057.4255"
     inkscape:cy="-0.044840535"
     inkscape:window-x="-8"
     inkscape:window-y="-8"
     inkscape:window-maximized="1"
     inkscape:current-layer="svg2985" />
  <g
     id="g3884"
     transform="matrix(1.0000038,0,0,1.0000038,-0.08347429,0.38532725)">
    <path
       id="rect3827-4-0-9"
       d="m 0.08347398,-0.3825571 0,1036.8030571 1057.66492602,0 0,-1036.8030571 -1057.66492602,0 z"
       style="fill:#e57333;fill-opacity:1;fill-rule:nonzero;stroke:none"
       inkscape:connector-curvature="0" />
    <path
       id="rect3827-4-0"
       d="m 110.39209,97.19816 0,841.64162 842.70434,0 0,-841.64162 -842.70434,0 z"
       style="fill:#ffffff;fill-opacity:1;fill-rule:nonzero;stroke:none"
       inkscape:connector-curvature="0" />
    <path
       id="rect3827-4"
       d="m 187.796,231.53838 0,572.94108 684.3125,0 0,-572.94108 -684.3125,0 z"
       style="fill:#e57333;fill-opacity:1;fill-rule:nonzero;stroke:none"
       inkscape:connector-curvature="0" />
    <path
       id="path2998"
       d="m 414.84375,449.875 c -81.62789,2.08776 -147.125,66.94664 -147.125,146.6875 0,81.05841 67.68282,146.78125 151.1875,146.78125 83.50468,0 151.21875,-65.72284 151.21875,-146.78125 0,-0.99446 -0.0422,-1.97901 -0.0625,-2.96875 l -155.21875,0 0,-143.71875 z"
       style="fill:#ffffff;fill-opacity:1;fill-rule:nonzero;stroke:none"
       inkscape:connector-curvature="0" />
    <path
       id="rect3772"
       d="m 609.125,431.96875 0,41.15625 38.53125,0 0,-41.15625 -38.53125,0 z m 63.1875,0 0,41.15625 134.5,0 0,-41.15625 -134.5,0 z m -63.1875,79.125 0,43.0625 38.53125,0 0,-43.0625 -38.53125,0 z m 63.1875,0 0,43.0625 134.5,0 0,-43.0625 -134.5,0 z m -63.1875,82.09375 0,39.46875 38.53125,0 0,-39.46875 -38.53125,0 z m 63.1875,0 0,39.46875 134.5,0 0,-39.46875 -134.5,0 z"
       style="fill:#ffffff;fill-opacity:1;fill-rule:nonzero;stroke:none"
       inkscape:connector-curvature="0" />
    <path
       id="rect3827"
       d="m 241.65625,273.09375 0,92.59375 588.5625,0 0,-92.59375 -588.5625,0 z"
       style="fill:#ffffff;fill-opacity:1;fill-rule:nonzero;stroke:none"
       inkscape:connector-curvature="0" />
  </g>
</svg>
