<svg xmlns="http://www.w3.org/2000/svg" viewBox="128 160 768 704">
	<defs>
		<linearGradient id="g" x1="-.2" y1="-.2" x2=".8" y2=".8">
			<stop offset="0" stop-color="#5a62c4"/>
			<stop offset="1" stop-color="#3940ab"/>
		</linearGradient>
		<clipPath id="c">
			<path fill="#fff" d="M684 432H512v-49.143A112 112 0 1 0 416 272a111.556 111.556 0 0 0 10.785 48H160a32.094 32.094 0 0 0-32 32v320a32.094 32.094 0 0 0 32 32h178.67c15.236 90.8 94.2 160 189.33 160 106.039 0 192-85.961 192-192V468a36 36 0 0 0-36-36z"/>
		</clipPath>
	</defs>
	<path fill="#5059c9" d="M692 432h168a36 36 0 0 1 36 36v164a120 120 0 0 1-120 120 120 120 0 0 1-120-120V468a36 36 0 0 1 36-36z"/>
	<circle fill="#5059c9" cx="776" cy="304" r="80"/>
	<path fill="#7b83eb" d="M372 432h312a36 36 0 0 1 36 36v204a192 192 0 0 1-192 192 192 192 0 0 1-192-192V468a36 36 0 0 1 36-36z"/>
	<circle fill="#7b83eb" cx="528" cy="272" r="112"/>
	<g clip-path="url(#c)">
		<g transform="translate(32 -24) scale (5.9077)">
			<path opacity=".05" d="M85 63v59.62a5.382 5.382 0 0 1-5.38 5.38H45.25c-.3-.33-.59-.66-.87-1s-.56-.66-.83-1-.53-.66-.79-1-.51-.66-.76-1a56.259 56.259 0 0 1-11-33.5V90a56.259 56.259 0 0 1 10.28-32c.06-.08.12-.17.17-.25s.12-.17.19-.25.12-.17.18-.25a2.348 2.348 0 0 1 .19-.25h37.61c2.97 0 5.38 3.03 5.38 6z" style="&#10;"/>
			<path opacity=".075" d="M84.25 63.1v58.52a5.3 5.3 0 0 1-5.29 5.38H44.38c-.29-.33-.56-.66-.83-1s-.53-.66-.79-1-.51-.66-.76-1a56.259 56.259 0 0 1-11-33.5V90a56.259 56.259 0 0 1 10.28-32c.06-.08.12-.17.17-.25s.12-.17.19-.25.12-.17.18-.25h37.05c2.97 0 5.38 2.87 5.38 5.85z"/>
			<path opacity=".1" d="M83.5 63.19v57.43a5.223 5.223 0 0 1-5.19 5.38H43.55c-.27-.33-.53-.66-.79-1s-.51-.66-.76-1a56.259 56.259 0 0 1-11-33.5V90a56.259 56.259 0 0 1 10.28-32c.06-.08.12-.17.17-.25s.12-.17.19-.25h36.48a5.655 5.655 0 0 1 5.38 5.69z"/>
			<path opacity=".125" d="M82.75 63.28v56.34a5.144 5.144 0 0 1-5.1 5.38H42.76c-.26-.33-.51-.66-.76-1a56.259 56.259 0 0 1-11-33.5V90a56.259 56.259 0 0 1 10.28-32c.06-.08.12-.17.17-.25h35.92a5.512 5.512 0 0 1 5.38 5.53z"/>
			<path opacity=".2" d="M82 63.38v55.24a5.07 5.07 0 0 1-5 5.38H42a56.259 56.259 0 0 1-11-33.5V90a56.259 56.259 0 0 1 10.28-32h35.34A5.382 5.382 0 0 1 82 63.38z"/>
		</g>
	</g>
	<rect fill="url(#g)" x="128" y="320" width="384" height="384" rx="32" ry="32"/>
	<path fill="#fff" d="M399.365 445.855h-60.293v164.2h-38.418v-164.2h-60.02V414h158.73z"/>
</svg>