<?xml version="1.0" encoding="utf-8"?>
<!-- Generator: Adobe Illustrator 15.1.0, SVG Export Plug-In . SVG Version: 6.00 Build 0)  -->
<!DOCTYPE svg PUBLIC "-//W3C//DTD SVG 1.1//EN" "http://www.w3.org/Graphics/SVG/1.1/DTD/svg11.dtd">
<svg version="1.1" id="图层_1" xmlns="http://www.w3.org/2000/svg" xmlns:xlink="http://www.w3.org/1999/xlink" x="0px" y="0px"
	 width="362.803px" height="362.803px" viewBox="0 0 362.803 362.803" enable-background="new 0 0 362.803 362.803"
	 xml:space="preserve">
<linearGradient id="SVGID_1_" gradientUnits="userSpaceOnUse" x1="181.4014" y1="362.8027" x2="181.4014" y2="0">
	<stop  offset="0" style="stop-color:#FC3159"/>
	<stop  offset="0.8035" style="stop-color:#FF6441"/>
</linearGradient>
<path fill="url(#SVGID_1_)" d="M362.803,281.506c0,44.703-36.578,81.297-81.281,81.297H81.297C36.594,362.803,0,326.209,0,281.506
	V81.281C0,36.578,36.594,0,81.297,0h200.225c44.703,0,81.281,36.578,81.281,81.281V281.506z"/>
<path fill="#FFFFFF" d="M305.896,92.344l-22.844-0.016H250.6h-29.141l-4.359,0.063c-5.203,0.188-9.625,3.313-11.719,7.828
	l-0.109,0.078l-22.313,41.406l-22,40.875l-18.828,35.006c-2.094,3.938-4.063-0.109-4.063-0.109L99.406,134.5
	c0,0-1.75-4.094,2.625-4.094c4.381,0,23.49,0,26.506,0c4.5,0,6.656,4,6.656,4s16.625,31.109,18.797,35.109s4.266-0.016,4.266-0.016
	l16.328-30.297c2.078-3.938,0.109-8.031,0.109-8.031l-2.703-4.766l-13.984-26.156l-0.125-0.078c-2.063-4.531-6.5-7.656-11.688-7.844
	l-89.287,0.016c-6.422,0.234-11.563,5.469-11.563,11.938c0,1.375,0.281,2.672,0.703,3.891l10.375,22.234h0.047l68.35,146.006h0.172
	c2.578,4.906,7.578,8.281,13.469,8.281c5.859,0,10.906-3.375,13.453-8.281h0.078l28.469-53.016l21.734-40.6l0,0l25.875-48.391
	c0,0,2.25-4,6.672-4c3,0,21.547,0,26.047,0s2.609,4.109,2.609,4.109l-38.609,82.85c0,0-1.906,4.125-4.047,0.125
	c-2.156-4.016-11.578-21.631-11.578-21.631s-2.234-3.844-4.281,0.016c-1.438,2.688-16.234,30.428-16.234,30.428
	s-2.078,4.156-0.016,7.984l22.625,42.125h0.047c2.563,4.906,7.578,8.281,13.453,8.281c5.891,0,10.922-3.375,13.469-8.281h0.125
	l68.047-146.006h0.078l10.25-22.125c0.453-1.266,0.75-2.578,0.75-4C317.475,97.813,312.334,92.578,305.896,92.344z"/>
<linearGradient id="SVGID_2_" gradientUnits="userSpaceOnUse" x1="181.4014" y1="362.8027" x2="181.4014" y2="0">
	<stop  offset="0" style="stop-color:#FC3159"/>
	<stop  offset="0.8035" style="stop-color:#FF6441"/>
</linearGradient>
<path fill="url(#SVGID_2_)" d="M362.803,281.506c0,44.703-36.578,81.297-81.281,81.297H81.297C36.594,362.803,0,326.209,0,281.506
	V81.281C0,36.578,36.594,0,81.297,0h200.225c44.703,0,81.281,36.578,81.281,81.281V281.506z"/>
<path fill="#FFFFFF" d="M305.896,92.344l-22.844-0.016H250.6h-29.141l-4.359,0.063c-5.203,0.188-9.625,3.313-11.719,7.828
	l-0.109,0.078l-22.313,41.406l-22,40.875l-18.828,35.006c-2.094,3.938-4.063-0.109-4.063-0.109L99.406,134.5
	c0,0-1.75-4.094,2.625-4.094c4.381,0,23.49,0,26.506,0c4.5,0,6.656,4,6.656,4l20.922,39.063l2.141-3.969l16.328-30.297l2.135-3.964
	l-4.729-8.833l-13.984-26.156l-0.125-0.078c-2.063-4.531-6.5-7.656-11.688-7.844l-89.287,0.016
	c-6.422,0.234-11.563,5.469-11.563,11.938c0,1.375,0.281,2.672,0.703,3.891l10.375,22.234h0.047l68.35,146.006h0.172
	c2.578,4.906,7.578,8.281,13.469,8.281c5.859,0,10.906-3.375,13.453-8.281h0.078l28.469-53.016l21.734-40.6l0,0l25.875-48.391
	c0,0,2.25-4,6.672-4c3,0,21.547,0,26.047,0s2.609,4.109,2.609,4.109l-38.609,82.85c0,0-1.906,4.125-4.047,0.125
	c-2.156-4.016-11.578-21.631-11.578-21.631l-2.141-4.01l-18.375,34.453l-2.141,4.01l24.75,46.1h0.047
	c2.563,4.906,7.578,8.281,13.453,8.281c5.891,0,10.922-3.375,13.469-8.281h0.125l68.047-146.006h0.078l10.25-22.125
	c0.453-1.266,0.75-2.578,0.75-4C317.475,97.813,312.334,92.578,305.896,92.344z"/>
</svg>
